<?xml version="1.0" encoding="UTF-8" standalone="no"?><svg xmlns="http://www.w3.org/2000/svg" xmlns:xlink="http://www.w3.org/1999/xlink" clip-rule="evenodd" stroke-miterlimit="4.00" viewBox="0 0 1920 1080"><desc>SVG generated by Keynote</desc><defs></defs><g transform="matrix(1.00, 0.00, -0.00, -1.00, 0.0, 1080.0)"><path d="M 0.0 1080.0 L 1920.0 1080.0 L 1920.0 0.0 L 0.0 0.0 Z M 0.0 1080.0 " fill="#FEFFFF"></path><g><clipPath id="clip-318"><path d="M -2.0 1080.0 L 975.0 1080.0 L 975.0 0.0 L -2.0 0.0 Z M -1.9 1080.1 "></path></clipPath><g clip-path="url(#clip-318)"><image xlink:href="680B3990D001920A9D6E5DA7C2B099A6.jpeg" width="1151.00" height="768.00" transform="matrix(1.41, 0.00, -0.00, -1.41, -1.0, 1080.0)"></image></g></g><path d="M 370.7 38.9 L 603.2 38.9 L 603.2 2.7 L 370.7 2.7 Z M 370.7 38.9 " fill="#000000" fill-opacity="0.34"></path><g><clipPath id="clip-319"><path d="M 370.7 2.7 L 603.8 2.7 L 603.8 38.9 L 370.7 38.9 Z M 370.7 2.7 "></path></clipPath><g clip-path="url(#clip-319)"><text xml:space="preserve" font-family="Helvetica-Light" font-size="21.0" fill="#FEFFFF" transform="matrix(1.00, 0.00, -0.00, -1.00, 377.0, 13.0)">P</text><text xml:space="preserve" font-family="Helvetica-Light" font-size="21.0" fill="#FEFFFF" transform="matrix(1.00, 0.00, -0.00, -1.00, 389.8, 13.0)">h</text><text xml:space="preserve" font-family="Helvetica-Light" font-size="21.0" fill="#FEFFFF" transform="matrix(1.00, 0.00, -0.00, -1.00, 401.5, 13.0)">o</text><text xml:space="preserve" font-family="Helvetica-Light" font-size="21.0" fill="#FEFFFF" transform="matrix(1.00, 0.00, -0.00, -1.00, 413.2, 13.0)">t</text><text xml:space="preserve" font-family="Helvetica-Light" font-size="21.0" fill="#FEFFFF" transform="matrix(1.00, 0.00, -0.00, -1.00, 419.0, 13.0)">o</text><text xml:space="preserve" font-family="Helvetica-Light" font-size="21.0" fill="#FEFFFF" transform="matrix(1.00, 0.00, -0.00, -1.00, 430.7, 13.0)"> </text><text xml:space="preserve" font-family="Helvetica-Light" font-size="21.0" fill="#FEFFFF" transform="matrix(1.00, 0.00, -0.00, -1.00, 436.5, 13.0)">B</text><text xml:space="preserve" font-family="Helvetica-Light" font-size="21.0" fill="#FEFFFF" transform="matrix(1.00, 0.00, -0.00, -1.00, 450.5, 13.0)">y</text><text xml:space="preserve" font-family="Helvetica-Light" font-size="21.0" fill="#FEFFFF" transform="matrix(1.00, 0.00, -0.00, -1.00, 461.0, 13.0)"> </text><text xml:space="preserve" font-family="Helvetica-Light" font-size="21.0" fill="#FEFFFF" transform="matrix(1.00, 0.00, -0.00, -1.00, 466.9, 13.0)">K</text><text xml:space="preserve" font-family="Helvetica-Light" font-size="21.0" fill="#FEFFFF" transform="matrix(1.00, 0.00, -0.00, -1.00, 480.9, 13.0)">a</text><text xml:space="preserve" font-family="Helvetica-Light" font-size="21.0" fill="#FEFFFF" transform="matrix(1.00, 0.00, -0.00, -1.00, 492.6, 13.0)">t</text><text xml:space="preserve" font-family="Helvetica-Light" font-size="21.0" fill="#FEFFFF" transform="matrix(1.00, 0.00, -0.00, -1.00, 498.4, 13.0)">r</text><text xml:space="preserve" font-family="Helvetica-Light" font-size="21.0" fill="#FEFFFF" transform="matrix(1.00, 0.00, -0.00, -1.00, 505.4, 13.0)">i</text><text xml:space="preserve" font-family="Helvetica-Light" font-size="21.0" fill="#FEFFFF" transform="matrix(1.00, 0.00, -0.00, -1.00, 510.1, 13.0)">n</text><text xml:space="preserve" font-family="Helvetica-Light" font-size="21.0" fill="#FEFFFF" transform="matrix(1.00, 0.00, -0.00, -1.00, 521.7, 13.0)"> </text><text xml:space="preserve" font-family="Helvetica-Light" font-size="21.0" fill="#FEFFFF" transform="matrix(1.00, 0.00, -0.00, -1.00, 527.6, 13.0)">M</text><text xml:space="preserve" font-family="Helvetica-Light" font-size="21.0" fill="#FEFFFF" transform="matrix(1.00, 0.00, -0.00, -1.00, 545.1, 13.0)">o</text><text xml:space="preserve" font-family="Helvetica-Light" font-size="21.0" fill="#FEFFFF" transform="matrix(1.00, 0.00, -0.00, -1.00, 556.7, 13.0)">r</text><text xml:space="preserve" font-family="Helvetica-Light" font-size="21.0" fill="#FEFFFF" transform="matrix(1.00, 0.00, -0.00, -1.00, 563.4, 13.0)">e</text><text xml:space="preserve" font-family="Helvetica-Light" font-size="21.0" fill="#FEFFFF" transform="matrix(1.00, 0.00, -0.00, -1.00, 575.0, 13.0)">n</text><text xml:space="preserve" font-family="Helvetica-Light" font-size="21.0" fill="#FEFFFF" transform="matrix(1.00, 0.00, -0.00, -1.00, 586.7, 13.0)">z</text></g></g><g><clipPath id="clip-320"><path d="M 973.0 1080.0 L 1921.0 1080.0 L 1921.0 0.0 L 973.0 0.0 Z M 972.6 1080.0 "></path></clipPath><g clip-path="url(#clip-320)"><image xlink:href="2BF0F4CCA9C980DF4AF3DD076EF1777F.jpeg" width="1025.00" height="768.00" transform="matrix(1.40, 0.00, -0.00, -1.41, 611.0, 1080.0)"></image></g></g><path d="M 1332.5 38.9 L 1560.7 38.9 L 1560.7 2.7 L 1332.5 2.7 Z M 1332.5 38.9 " fill="#000000" fill-opacity="0.34"></path><g><clipPath id="clip-321"><path d="M 1332.5 2.7 L 1561.3 2.7 L 1561.3 38.9 L 1332.5 38.9 Z M 1332.5 2.7 "></path></clipPath><g clip-path="url(#clip-321)"><text xml:space="preserve" font-family="Helvetica-Light" font-size="21.0" fill="#FEFFFF" transform="matrix(1.00, 0.00, -0.00, -1.00, 1339.0, 13.0)">P</text><text xml:space="preserve" font-family="Helvetica-Light" font-size="21.0" fill="#FEFFFF" transform="matrix(1.00, 0.00, -0.00, -1.00, 1351.8, 13.0)">h</text><text xml:space="preserve" font-family="Helvetica-Light" font-size="21.0" fill="#FEFFFF" transform="matrix(1.00, 0.00, -0.00, -1.00, 1363.5, 13.0)">o</text><text xml:space="preserve" font-family="Helvetica-Light" font-size="21.0" fill="#FEFFFF" transform="matrix(1.00, 0.00, -0.00, -1.00, 1375.2, 13.0)">t</text><text xml:space="preserve" font-family="Helvetica-Light" font-size="21.0" fill="#FEFFFF" transform="matrix(1.00, 0.00, -0.00, -1.00, 1381.0, 13.0)">o</text><text xml:space="preserve" font-family="Helvetica-Light" font-size="21.0" fill="#FEFFFF" transform="matrix(1.00, 0.00, -0.00, -1.00, 1392.7, 13.0)"> </text><text xml:space="preserve" font-family="Helvetica-Light" font-size="21.0" fill="#FEFFFF" transform="matrix(1.00, 0.00, -0.00, -1.00, 1398.5, 13.0)">B</text><text xml:space="preserve" font-family="Helvetica-Light" font-size="21.0" fill="#FEFFFF" transform="matrix(1.00, 0.00, -0.00, -1.00, 1412.5, 13.0)">y</text><text xml:space="preserve" font-family="Helvetica-Light" font-size="21.0" fill="#FEFFFF" transform="matrix(1.00, 0.00, -0.00, -1.00, 1423.0, 13.0)"> </text><text xml:space="preserve" font-family="Helvetica-Light" font-size="21.0" fill="#FEFFFF" transform="matrix(1.00, 0.00, -0.00, -1.00, 1428.9, 13.0)">D</text><text xml:space="preserve" font-family="Helvetica-Light" font-size="21.0" fill="#FEFFFF" transform="matrix(1.00, 0.00, -0.00, -1.00, 1444.0, 13.0)">a</text><text xml:space="preserve" font-family="Helvetica-Light" font-size="21.0" fill="#FEFFFF" transform="matrix(1.00, 0.00, -0.00, -1.00, 1455.7, 13.0)">v</text><text xml:space="preserve" font-family="Helvetica-Light" font-size="21.0" fill="#FEFFFF" transform="matrix(1.00, 0.00, -0.00, -1.00, 1466.2, 13.0)">i</text><text xml:space="preserve" font-family="Helvetica-Light" font-size="21.0" fill="#FEFFFF" transform="matrix(1.00, 0.00, -0.00, -1.00, 1470.9, 13.0)">d</text><text xml:space="preserve" font-family="Helvetica-Light" font-size="21.0" fill="#FEFFFF" transform="matrix(1.00, 0.00, -0.00, -1.00, 1483.7, 13.0)"> </text><text xml:space="preserve" font-family="Helvetica-Light" font-size="21.0" fill="#FEFFFF" transform="matrix(1.00, 0.00, -0.00, -1.00, 1489.5, 13.0)">M</text><text xml:space="preserve" font-family="Helvetica-Light" font-size="21.0" fill="#FEFFFF" transform="matrix(1.00, 0.00, -0.00, -1.00, 1507.0, 13.0)">u</text><text xml:space="preserve" font-family="Helvetica-Light" font-size="21.0" fill="#FEFFFF" transform="matrix(1.00, 0.00, -0.00, -1.00, 1518.7, 13.0)">l</text><text xml:space="preserve" font-family="Helvetica-Light" font-size="21.0" fill="#FEFFFF" transform="matrix(1.00, 0.00, -0.00, -1.00, 1523.4, 13.0)">d</text><text xml:space="preserve" font-family="Helvetica-Light" font-size="21.0" fill="#FEFFFF" transform="matrix(1.00, 0.00, -0.00, -1.00, 1536.2, 13.0)">e</text><text xml:space="preserve" font-family="Helvetica-Light" font-size="21.0" fill="#FEFFFF" transform="matrix(1.00, 0.00, -0.00, -1.00, 1547.9, 13.0)">r</text></g></g><path d="M 750.3 37.9 L 1169.7 37.9 L 1169.7 3.7 L 750.3 3.7 Z M 750.3 37.9 " fill="#000000" fill-opacity="0.34"></path><g><clipPath id="clip-322"><path d="M 750.3 3.7 L 1169.9 3.7 L 1169.9 37.9 L 750.3 37.9 Z M 750.3 3.7 "></path></clipPath><g clip-path="url(#clip-322)"><text xml:space="preserve" font-family="Helvetica-Light" font-size="19.0" fill="#FEFFFF" transform="matrix(1.00, 0.00, -0.00, -1.00, 756.0, 14.0)">h</text><text xml:space="preserve" font-family="Helvetica-Light" font-size="19.0" fill="#FEFFFF" transform="matrix(1.00, 0.00, -0.00, -1.00, 766.6, 14.0)">t</text><text xml:space="preserve" font-family="Helvetica-Light" font-size="19.0" fill="#FEFFFF" transform="matrix(1.00, 0.00, -0.00, -1.00, 771.8, 14.0)">t</text><text xml:space="preserve" font-family="Helvetica-Light" font-size="19.0" fill="#FEFFFF" transform="matrix(1.00, 0.00, -0.00, -1.00, 777.1, 14.0)">p</text><text xml:space="preserve" font-family="Helvetica-Light" font-size="19.0" fill="#FEFFFF" transform="matrix(1.00, 0.00, -0.00, -1.00, 788.7, 14.0)">s</text><text xml:space="preserve" font-family="Helvetica-Light" font-size="19.0" fill="#FEFFFF" transform="matrix(1.00, 0.00, -0.00, -1.00, 798.2, 14.0)">:</text><text xml:space="preserve" font-family="Helvetica-Light" font-size="19.0" fill="#FEFFFF" transform="matrix(1.00, 0.00, -0.00, -1.00, 803.5, 14.0)">/</text><text xml:space="preserve" font-family="Helvetica-Light" font-size="19.0" fill="#FEFFFF" transform="matrix(1.00, 0.00, -0.00, -1.00, 808.8, 14.0)">/</text><text xml:space="preserve" font-family="Helvetica-Light" font-size="19.0" fill="#FEFFFF" transform="matrix(1.00, 0.00, -0.00, -1.00, 814.1, 14.0)">c</text><text xml:space="preserve" font-family="Helvetica-Light" font-size="19.0" fill="#FEFFFF" transform="matrix(1.00, 0.00, -0.00, -1.00, 824.6, 14.0)">r</text><text xml:space="preserve" font-family="Helvetica-Light" font-size="19.0" fill="#FEFFFF" transform="matrix(1.00, 0.00, -0.00, -1.00, 830.6, 14.0)">e</text><text xml:space="preserve" font-family="Helvetica-Light" font-size="19.0" fill="#FEFFFF" transform="matrix(1.00, 0.00, -0.00, -1.00, 841.2, 14.0)">a</text><text xml:space="preserve" font-family="Helvetica-Light" font-size="19.0" fill="#FEFFFF" transform="matrix(1.00, 0.00, -0.00, -1.00, 851.8, 14.0)">t</text><text xml:space="preserve" font-family="Helvetica-Light" font-size="19.0" fill="#FEFFFF" transform="matrix(1.00, 0.00, -0.00, -1.00, 857.0, 14.0)">i</text><text xml:space="preserve" font-family="Helvetica-Light" font-size="19.0" fill="#FEFFFF" transform="matrix(1.00, 0.00, -0.00, -1.00, 861.3, 14.0)">v</text><text xml:space="preserve" font-family="Helvetica-Light" font-size="19.0" fill="#FEFFFF" transform="matrix(1.00, 0.00, -0.00, -1.00, 870.8, 14.0)">e</text><text xml:space="preserve" font-family="Helvetica-Light" font-size="19.0" fill="#FEFFFF" transform="matrix(1.00, 0.00, -0.00, -1.00, 881.3, 14.0)">c</text><text xml:space="preserve" font-family="Helvetica-Light" font-size="19.0" fill="#FEFFFF" transform="matrix(1.00, 0.00, -0.00, -1.00, 891.9, 14.0)">o</text><text xml:space="preserve" font-family="Helvetica-Light" font-size="19.0" fill="#FEFFFF" transform="matrix(1.00, 0.00, -0.00, -1.00, 902.5, 14.0)">m</text><text xml:space="preserve" font-family="Helvetica-Light" font-size="19.0" fill="#FEFFFF" transform="matrix(1.00, 0.00, -0.00, -1.00, 918.3, 14.0)">m</text><text xml:space="preserve" font-family="Helvetica-Light" font-size="19.0" fill="#FEFFFF" transform="matrix(1.00, 0.00, -0.00, -1.00, 934.1, 14.0)">o</text><text xml:space="preserve" font-family="Helvetica-Light" font-size="19.0" fill="#FEFFFF" transform="matrix(1.00, 0.00, -0.00, -1.00, 944.7, 14.0)">n</text><text xml:space="preserve" font-family="Helvetica-Light" font-size="19.0" fill="#FEFFFF" transform="matrix(1.00, 0.00, -0.00, -1.00, 955.2, 14.0)">s</text><text xml:space="preserve" font-family="Helvetica-Light" font-size="19.0" fill="#FEFFFF" transform="matrix(1.00, 0.00, -0.00, -1.00, 964.7, 14.0)">.</text><text xml:space="preserve" font-family="Helvetica-Light" font-size="19.0" fill="#FEFFFF" transform="matrix(1.00, 0.00, -0.00, -1.00, 970.0, 14.0)">o</text><text xml:space="preserve" font-family="Helvetica-Light" font-size="19.0" fill="#FEFFFF" transform="matrix(1.00, 0.00, -0.00, -1.00, 980.6, 14.0)">r</text><text xml:space="preserve" font-family="Helvetica-Light" font-size="19.0" fill="#FEFFFF" transform="matrix(1.00, 0.00, -0.00, -1.00, 986.9, 14.0)">g</text><text xml:space="preserve" font-family="Helvetica-Light" font-size="19.0" fill="#FEFFFF" transform="matrix(1.00, 0.00, -0.00, -1.00, 998.5, 14.0)">/</text><text xml:space="preserve" font-family="Helvetica-Light" font-size="19.0" fill="#FEFFFF" transform="matrix(1.00, 0.00, -0.00, -1.00, 1003.8, 14.0)">l</text><text xml:space="preserve" font-family="Helvetica-Light" font-size="19.0" fill="#FEFFFF" transform="matrix(1.00, 0.00, -0.00, -1.00, 1008.0, 14.0)">i</text><text xml:space="preserve" font-family="Helvetica-Light" font-size="19.0" fill="#FEFFFF" transform="matrix(1.00, 0.00, -0.00, -1.00, 1012.2, 14.0)">c</text><text xml:space="preserve" font-family="Helvetica-Light" font-size="19.0" fill="#FEFFFF" transform="matrix(1.00, 0.00, -0.00, -1.00, 1022.8, 14.0)">e</text><text xml:space="preserve" font-family="Helvetica-Light" font-size="19.0" fill="#FEFFFF" transform="matrix(1.00, 0.00, -0.00, -1.00, 1033.4, 14.0)">n</text><text xml:space="preserve" font-family="Helvetica-Light" font-size="19.0" fill="#FEFFFF" transform="matrix(1.00, 0.00, -0.00, -1.00, 1043.9, 14.0)">s</text><text xml:space="preserve" font-family="Helvetica-Light" font-size="19.0" fill="#FEFFFF" transform="matrix(1.00, 0.00, -0.00, -1.00, 1053.4, 14.0)">e</text><text xml:space="preserve" font-family="Helvetica-Light" font-size="19.0" fill="#FEFFFF" transform="matrix(1.00, 0.00, -0.00, -1.00, 1064.0, 14.0)">s</text><text xml:space="preserve" font-family="Helvetica-Light" font-size="19.0" fill="#FEFFFF" transform="matrix(1.00, 0.00, -0.00, -1.00, 1073.5, 14.0)">/</text><text xml:space="preserve" font-family="Helvetica-Light" font-size="19.0" fill="#FEFFFF" transform="matrix(1.00, 0.00, -0.00, -1.00, 1078.8, 14.0)">b</text><text xml:space="preserve" font-family="Helvetica-Light" font-size="19.0" fill="#FEFFFF" transform="matrix(1.00, 0.00, -0.00, -1.00, 1090.4, 14.0)">y</text><text xml:space="preserve" font-family="Helvetica-Light" font-size="19.0" fill="#FEFFFF" transform="matrix(1.00, 0.00, -0.00, -1.00, 1099.9, 14.0)">-</text><text xml:space="preserve" font-family="Helvetica-Light" font-size="19.0" fill="#FEFFFF" transform="matrix(1.00, 0.00, -0.00, -1.00, 1106.2, 14.0)">s</text><text xml:space="preserve" font-family="Helvetica-Light" font-size="19.0" fill="#FEFFFF" transform="matrix(1.00, 0.00, -0.00, -1.00, 1115.7, 14.0)">a</text><text xml:space="preserve" font-family="Helvetica-Light" font-size="19.0" fill="#FEFFFF" transform="matrix(1.00, 0.00, -0.00, -1.00, 1126.3, 14.0)">/</text><text xml:space="preserve" font-family="Helvetica-Light" font-size="19.0" fill="#FEFFFF" transform="matrix(1.00, 0.00, -0.00, -1.00, 1131.6, 14.0)">2</text><text xml:space="preserve" font-family="Helvetica-Light" font-size="19.0" fill="#FEFFFF" transform="matrix(1.00, 0.00, -0.00, -1.00, 1142.1, 14.0)">.</text><text xml:space="preserve" font-family="Helvetica-Light" font-size="19.0" fill="#FEFFFF" transform="matrix(1.00, 0.00, -0.00, -1.00, 1147.4, 14.0)">0</text><text xml:space="preserve" font-family="Helvetica-Light" font-size="19.0" fill="#FEFFFF" transform="matrix(1.00, 0.00, -0.00, -1.00, 1158.0, 14.0)">/</text></g></g><path d="M 393.6 1048.5 L 580.3 1048.5 L 580.3 949.3 L 393.6 949.3 Z M 393.6 1048.5 " fill="#000000" fill-opacity="0.45"></path><g><clipPath id="clip-323"><path d="M 380.9 936.6 L 594.0 936.6 L 594.0 1061.1 L 380.9 1061.1 Z M 380.9 936.6 "></path></clipPath><g clip-path="url(#clip-323)"><text xml:space="preserve" font-family="Helvetica-Bold" font-weight="bold" font-size="73.0" fill="#FEFFFF" transform="matrix(1.00, 0.00, -0.00, -1.00, 400.0, 972.0)">B</text><text xml:space="preserve" font-family="Helvetica-Bold" font-weight="bold" font-size="73.0" fill="#FEFFFF" transform="matrix(1.00, 0.00, -0.00, -1.00, 452.7, 972.0)">a</text><text xml:space="preserve" font-family="Helvetica-Bold" font-weight="bold" font-size="73.0" fill="#FEFFFF" transform="matrix(1.00, 0.00, -0.00, -1.00, 493.3, 972.0)">k</text><text xml:space="preserve" font-family="Helvetica-Bold" font-weight="bold" font-size="73.0" fill="#FEFFFF" transform="matrix(1.00, 0.00, -0.00, -1.00, 534.0, 972.0)">e</text></g></g><path d="M 1288.4 1048.5 L 1604.8 1048.5 L 1604.8 949.3 L 1288.4 949.3 Z M 1288.4 1048.5 " fill="#000000" fill-opacity="0.45"></path><g><clipPath id="clip-324"><path d="M 1275.7 936.6 L 1618.4 936.6 L 1618.4 1061.1 L 1275.7 1061.1 Z M 1275.7 936.6 "></path></clipPath><g clip-path="url(#clip-324)"><text xml:space="preserve" font-family="Helvetica-Bold" font-weight="bold" font-size="73.0" fill="#FEFFFF" transform="matrix(1.00, 0.00, -0.00, -1.00, 1294.0, 972.0)">(</text><text xml:space="preserve" font-family="Helvetica-Bold" font-weight="bold" font-size="73.0" fill="#FEFFFF" transform="matrix(1.00, 0.00, -0.00, -1.00, 1318.3, 972.0)">S</text><text xml:space="preserve" font-family="Helvetica-Bold" font-weight="bold" font-size="73.0" fill="#FEFFFF" transform="matrix(1.00, 0.00, -0.00, -1.00, 1367.0, 972.0)">t</text><text xml:space="preserve" font-family="Helvetica-Bold" font-weight="bold" font-size="73.0" fill="#FEFFFF" transform="matrix(1.00, 0.00, -0.00, -1.00, 1391.3, 972.0)">i</text><text xml:space="preserve" font-family="Helvetica-Bold" font-weight="bold" font-size="73.0" fill="#FEFFFF" transform="matrix(1.00, 0.00, -0.00, -1.00, 1411.6, 972.0)">r</text><text xml:space="preserve" font-family="Helvetica-Bold" font-weight="bold" font-size="73.0" fill="#FEFFFF" transform="matrix(1.00, 0.00, -0.00, -1.00, 1440.0, 972.0)">)</text><text xml:space="preserve" font-family="Helvetica-Bold" font-weight="bold" font-size="73.0" fill="#FEFFFF" transform="matrix(1.00, 0.00, -0.00, -1.00, 1464.3, 972.0)"> </text><text xml:space="preserve" font-family="Helvetica-Bold" font-weight="bold" font-size="73.0" fill="#FEFFFF" transform="matrix(1.00, 0.00, -0.00, -1.00, 1484.6, 972.0)">F</text><text xml:space="preserve" font-family="Helvetica-Bold" font-weight="bold" font-size="73.0" fill="#FEFFFF" transform="matrix(1.00, 0.00, -0.00, -1.00, 1529.2, 972.0)">r</text><text xml:space="preserve" font-family="Helvetica-Bold" font-weight="bold" font-size="73.0" fill="#FEFFFF" transform="matrix(1.00, 0.00, -0.00, -1.00, 1557.6, 972.0)">y</text></g></g></g></svg>