<?xml version="1.0" encoding="UTF-8" standalone="no"?><svg xmlns="http://www.w3.org/2000/svg" xmlns:xlink="http://www.w3.org/1999/xlink" clip-rule="evenodd" stroke-miterlimit="4.00" viewBox="0 0 1920 1080"><desc>SVG generated by Keynote</desc><defs></defs><g transform="matrix(1.00, 0.00, -0.00, -1.00, 0.0, 1080.0)"><path d="M 0.0 1080.0 L 1920.0 1080.0 L 1920.0 0.0 L 0.0 0.0 Z M 0.0 1080.0 " fill="#FEFFFF"></path><text xml:space="preserve" font-family="Helvetica-Bold" font-weight="bold" font-size="108.0" fill="#000000" transform="matrix(1.00, 0.00, -0.00, -1.00, 450.0, 565.0)">T</text><text xml:space="preserve" font-family="Helvetica-Bold" font-weight="bold" font-size="108.0" fill="#000000" transform="matrix(1.00, 0.00, -0.00, -1.00, 508.0, 565.0)">e</text><text xml:space="preserve" font-family="Helvetica-Bold" font-weight="bold" font-size="108.0" fill="#000000" transform="matrix(1.00, 0.00, -0.00, -1.00, 568.1, 565.0)">r</text><text xml:space="preserve" font-family="Helvetica-Bold" font-weight="bold" font-size="108.0" fill="#000000" transform="matrix(1.00, 0.00, -0.00, -1.00, 610.1, 565.0)">a</text><text xml:space="preserve" font-family="Helvetica-Bold" font-weight="bold" font-size="108.0" fill="#000000" transform="matrix(1.00, 0.00, -0.00, -1.00, 670.2, 565.0)">d</text><text xml:space="preserve" font-family="Helvetica-Bold" font-weight="bold" font-size="108.0" fill="#000000" transform="matrix(1.00, 0.00, -0.00, -1.00, 736.2, 565.0)">a</text><text xml:space="preserve" font-family="Helvetica-Bold" font-weight="bold" font-size="108.0" fill="#000000" transform="matrix(1.00, 0.00, -0.00, -1.00, 796.2, 565.0)">t</text><text xml:space="preserve" font-family="Helvetica-Bold" font-weight="bold" font-size="108.0" fill="#000000" transform="matrix(1.00, 0.00, -0.00, -1.00, 832.2, 565.0)">a</text><text xml:space="preserve" font-family="Helvetica-Bold" font-weight="bold" font-size="108.0" fill="#000000" transform="matrix(1.00, 0.00, -0.00, -1.00, 892.3, 565.0)"> </text><text xml:space="preserve" font-family="Helvetica-Bold" font-weight="bold" font-size="108.0" fill="#000000" transform="matrix(1.00, 0.00, -0.00, -1.00, 918.3, 565.0)">A</text><text xml:space="preserve" font-family="Helvetica-Bold" font-weight="bold" font-size="108.0" fill="#000000" transform="matrix(1.00, 0.00, -0.00, -1.00, 996.3, 565.0)">p</text><text xml:space="preserve" font-family="Helvetica-Bold" font-weight="bold" font-size="108.0" fill="#000000" transform="matrix(1.00, 0.00, -0.00, -1.00, 1062.3, 565.0)">p</text><text xml:space="preserve" font-family="Helvetica-Bold" font-weight="bold" font-size="108.0" fill="#000000" transform="matrix(1.00, 0.00, -0.00, -1.00, 1128.2, 565.0)">C</text><text xml:space="preserve" font-family="Helvetica-Bold" font-weight="bold" font-size="108.0" fill="#000000" transform="matrix(1.00, 0.00, -0.00, -1.00, 1206.3, 565.0)">e</text><text xml:space="preserve" font-family="Helvetica-Bold" font-weight="bold" font-size="108.0" fill="#000000" transform="matrix(1.00, 0.00, -0.00, -1.00, 1266.3, 565.0)">n</text><text xml:space="preserve" font-family="Helvetica-Bold" font-weight="bold" font-size="108.0" fill="#000000" transform="matrix(1.00, 0.00, -0.00, -1.00, 1332.3, 565.0)">t</text><text xml:space="preserve" font-family="Helvetica-Bold" font-weight="bold" font-size="108.0" fill="#000000" transform="matrix(1.00, 0.00, -0.00, -1.00, 1368.3, 565.0)">e</text><text xml:space="preserve" font-family="Helvetica-Bold" font-weight="bold" font-size="108.0" fill="#000000" transform="matrix(1.00, 0.00, -0.00, -1.00, 1428.3, 565.0)">r</text><text xml:space="preserve" font-family="Helvetica-Light" font-size="108.0" fill="#000000" transform="matrix(1.00, 0.00, -0.00, -1.00, 166.0, 435.0)">I</text><text xml:space="preserve" font-family="Helvetica-Light" font-size="108.0" fill="#000000" transform="matrix(1.00, 0.00, -0.00, -1.00, 196.0, 435.0)">n</text><text xml:space="preserve" font-family="Helvetica-Light" font-size="108.0" fill="#000000" transform="matrix(1.00, 0.00, -0.00, -1.00, 256.1, 435.0)">t</text><text xml:space="preserve" font-family="Helvetica-Light" font-size="108.0" fill="#000000" transform="matrix(1.00, 0.00, -0.00, -1.00, 286.1, 435.0)">e</text><text xml:space="preserve" font-family="Helvetica-Light" font-size="108.0" fill="#000000" transform="matrix(1.00, 0.00, -0.00, -1.00, 346.1, 435.0)">r</text><text xml:space="preserve" font-family="Helvetica-Light" font-size="108.0" fill="#000000" transform="matrix(1.00, 0.00, -0.00, -1.00, 384.1, 435.0)">n</text><text xml:space="preserve" font-family="Helvetica-Light" font-size="108.0" fill="#000000" transform="matrix(1.00, 0.00, -0.00, -1.00, 444.1, 435.0)">a</text><text xml:space="preserve" font-family="Helvetica-Light" font-size="108.0" fill="#000000" transform="matrix(1.00, 0.00, -0.00, -1.00, 504.1, 435.0)">l</text><text xml:space="preserve" font-family="Helvetica-Light" font-size="108.0" fill="#000000" transform="matrix(1.00, 0.00, -0.00, -1.00, 528.1, 435.0)"> </text><text xml:space="preserve" font-family="Helvetica-Light" font-size="108.0" fill="#000000" transform="matrix(1.00, 0.00, -0.00, -1.00, 558.1, 435.0)">S</text><text xml:space="preserve" font-family="Helvetica-Light" font-size="108.0" fill="#000000" transform="matrix(1.00, 0.00, -0.00, -1.00, 624.1, 435.0)">e</text><text xml:space="preserve" font-family="Helvetica-Light" font-size="108.0" fill="#000000" transform="matrix(1.00, 0.00, -0.00, -1.00, 684.2, 435.0)">r</text><text xml:space="preserve" font-family="Helvetica-Light" font-size="108.0" fill="#000000" transform="matrix(1.00, 0.00, -0.00, -1.00, 720.1, 435.0)">v</text><text xml:space="preserve" font-family="Helvetica-Light" font-size="108.0" fill="#000000" transform="matrix(1.00, 0.00, -0.00, -1.00, 774.1, 435.0)">i</text><text xml:space="preserve" font-family="Helvetica-Light" font-size="108.0" fill="#000000" transform="matrix(1.00, 0.00, -0.00, -1.00, 798.1, 435.0)">c</text><text xml:space="preserve" font-family="Helvetica-Light" font-size="108.0" fill="#000000" transform="matrix(1.00, 0.00, -0.00, -1.00, 858.2, 435.0)">e</text><text xml:space="preserve" font-family="Helvetica-Light" font-size="108.0" fill="#000000" transform="matrix(1.00, 0.00, -0.00, -1.00, 918.2, 435.0)"> </text><text xml:space="preserve" font-family="Helvetica-Light" font-size="108.0" fill="#000000" transform="matrix(1.00, 0.00, -0.00, -1.00, 948.2, 435.0)">D</text><text xml:space="preserve" font-family="Helvetica-Light" font-size="108.0" fill="#000000" transform="matrix(1.00, 0.00, -0.00, -1.00, 1026.2, 435.0)">e</text><text xml:space="preserve" font-family="Helvetica-Light" font-size="108.0" fill="#000000" transform="matrix(1.00, 0.00, -0.00, -1.00, 1086.3, 435.0)">l</text><text xml:space="preserve" font-family="Helvetica-Light" font-size="108.0" fill="#000000" transform="matrix(1.00, 0.00, -0.00, -1.00, 1110.2, 435.0)">i</text><text xml:space="preserve" font-family="Helvetica-Light" font-size="108.0" fill="#000000" transform="matrix(1.00, 0.00, -0.00, -1.00, 1134.2, 435.0)">v</text><text xml:space="preserve" font-family="Helvetica-Light" font-size="108.0" fill="#000000" transform="matrix(1.00, 0.00, -0.00, -1.00, 1188.2, 435.0)">e</text><text xml:space="preserve" font-family="Helvetica-Light" font-size="108.0" fill="#000000" transform="matrix(1.00, 0.00, -0.00, -1.00, 1248.3, 435.0)">r</text><text xml:space="preserve" font-family="Helvetica-Light" font-size="108.0" fill="#000000" transform="matrix(1.00, 0.00, -0.00, -1.00, 1286.2, 435.0)">y</text><text xml:space="preserve" font-family="Helvetica-Light" font-size="108.0" fill="#000000" transform="matrix(1.00, 0.00, -0.00, -1.00, 1340.2, 435.0)"> </text><text xml:space="preserve" font-family="Helvetica-Light" font-size="108.0" fill="#000000" transform="matrix(1.00, 0.00, -0.00, -1.00, 1370.2, 435.0)">P</text><text xml:space="preserve" font-family="Helvetica-Light" font-size="108.0" fill="#000000" transform="matrix(1.00, 0.00, -0.00, -1.00, 1436.2, 435.0)">i</text><text xml:space="preserve" font-family="Helvetica-Light" font-size="108.0" fill="#000000" transform="matrix(1.00, 0.00, -0.00, -1.00, 1460.2, 435.0)">p</text><text xml:space="preserve" font-family="Helvetica-Light" font-size="108.0" fill="#000000" transform="matrix(1.00, 0.00, -0.00, -1.00, 1526.2, 435.0)">e</text><text xml:space="preserve" font-family="Helvetica-Light" font-size="108.0" fill="#000000" transform="matrix(1.00, 0.00, -0.00, -1.00, 1586.2, 435.0)">l</text><text xml:space="preserve" font-family="Helvetica-Light" font-size="108.0" fill="#000000" transform="matrix(1.00, 0.00, -0.00, -1.00, 1610.2, 435.0)">i</text><text xml:space="preserve" font-family="Helvetica-Light" font-size="108.0" fill="#000000" transform="matrix(1.00, 0.00, -0.00, -1.00, 1634.2, 435.0)">n</text><text xml:space="preserve" font-family="Helvetica-Light" font-size="108.0" fill="#000000" transform="matrix(1.00, 0.00, -0.00, -1.00, 1694.2, 435.0)">e</text></g></svg>