<?xml version="1.0" encoding="UTF-8" standalone="no"?><svg xmlns="http://www.w3.org/2000/svg" xmlns:xlink="http://www.w3.org/1999/xlink" clip-rule="evenodd" stroke-miterlimit="4.00" viewBox="0 0 1920 1080"><desc>SVG generated by Keynote</desc><defs><linearGradient id="gradSh1.0" x1="0.0" y1="0.0" x2="100.0" y2="0.0" gradientUnits="userSpaceOnUse" gradientTransform="matrix(0.00, -10.38, -3.68, 0.00, 991.3, 1068.9)"><stop offset="0.00000" stop-color="#FFFFFF"></stop><stop offset="0.01100" stop-color="#FFFEFF"></stop><stop offset="1.00000" stop-color="#D2D1D3"></stop></linearGradient><linearGradient id="gradSh1.1" x1="0.0" y1="0.0" x2="100.0" y2="0.0" gradientUnits="userSpaceOnUse" gradientTransform="matrix(0.00, -10.38, -5.22, 0.00, 525.9, 1068.9)"><stop offset="0.00000" stop-color="#FFFFFF"></stop><stop offset="0.01100" stop-color="#FFFEFF"></stop><stop offset="1.00000" stop-color="#D2D1D3"></stop></linearGradient></defs><g transform="matrix(1.00, 0.00, -0.00, -1.00, 0.0, 1080.0)"><path d="M 0.0 1080.0 L 1920.0 1080.0 L 1920.0 0.0 L 0.0 0.0 Z M 0.0 1080.0 " fill="#FEFFFF"></path><image xlink:href="0574BF7CBABFBD0947125E2107E9732B.png" width="374.00" height="1044.00" transform="matrix(1.00, 0.00, -0.00, -1.00, 804.3, 1069.9)" opacity="0.50"></image><g><clipPath id="clip-392"><path d="M 840.5 1067.9 L 1142.0 1067.9 C 1151.2 1067.9 1155.9 1067.9 1160.9 1066.3 C 1166.4 1064.3 1170.7 1060.0 1172.7 1054.6 C 1174.3 1049.6 1174.3 1044.9 1174.3 1035.5 L 1174.3 63.8 C 1174.3 54.5 1174.3 49.9 1172.7 44.9 C 1170.7 39.4 1166.4 35.1 1160.9 33.1 C 1155.9 31.5 1151.2 31.5 1141.9 31.5 L 840.5 31.5 C 831.3 31.5 826.6 31.5 821.6 33.1 C 816.1 35.1 811.8 39.4 809.8 44.9 C 808.3 49.9 808.3 54.5 808.3 63.9 L 808.3 1035.7 C 808.3 1044.9 808.3 1049.6 809.8 1054.6 C 811.8 1060.0 816.1 1064.3 821.6 1066.3 C 826.6 1067.9 831.3 1067.9 840.6 1067.9 Z M 840.5 1067.9 "></path></clipPath><g clip-path="url(#clip-392)"><path d="M 840.5 1067.9 L 1142.0 1067.9 C 1151.2 1067.9 1155.9 1067.9 1160.9 1066.3 C 1166.4 1064.3 1170.7 1060.0 1172.7 1054.6 C 1174.3 1049.6 1174.3 1044.9 1174.3 1035.5 L 1174.3 63.8 C 1174.3 54.5 1174.3 49.9 1172.7 44.9 C 1170.7 39.4 1166.4 35.1 1160.9 33.1 C 1155.9 31.5 1151.2 31.5 1141.9 31.5 L 840.5 31.5 C 831.3 31.5 826.6 31.5 821.6 33.1 C 816.1 35.1 811.8 39.4 809.8 44.9 C 808.3 49.9 808.3 54.5 808.3 63.9 L 808.3 1035.7 C 808.3 1044.9 808.3 1049.6 809.8 1054.6 C 811.8 1060.0 816.1 1064.3 821.6 1066.3 C 826.6 1067.9 831.3 1067.9 840.6 1067.9 Z M 840.5 1067.9 " fill="url(#gradSh1.0)"></path></g></g><image xlink:href="E5382A5D1D60C8CB65412D3DCDF9E0C4.png" width="528.00" height="1044.00" transform="matrix(1.00, 0.00, -0.00, -1.00, 261.9, 1069.9)" opacity="0.50"></image><g><clipPath id="clip-393"><path d="M 298.1 1067.9 L 753.6 1067.9 C 762.9 1067.9 767.6 1067.9 772.5 1066.3 C 778.0 1064.3 782.3 1060.0 784.3 1054.6 C 785.9 1049.6 785.9 1044.9 785.9 1035.5 L 785.9 63.8 C 785.9 54.5 785.9 49.9 784.3 44.9 C 782.3 39.4 778.0 35.1 772.5 33.1 C 767.6 31.5 762.9 31.5 753.5 31.5 L 298.1 31.5 C 288.9 31.5 284.2 31.5 279.2 33.1 C 273.7 35.1 269.4 39.4 267.5 44.9 C 265.9 49.9 265.9 54.5 265.9 63.9 L 265.9 1035.7 C 265.9 1044.9 265.9 1049.6 267.5 1054.6 C 269.4 1060.0 273.7 1064.3 279.2 1066.3 C 284.2 1067.9 288.9 1067.9 298.3 1067.9 Z M 298.1 1067.9 "></path></clipPath><g clip-path="url(#clip-393)"><path d="M 298.1 1067.9 L 753.6 1067.9 C 762.9 1067.9 767.6 1067.9 772.5 1066.3 C 778.0 1064.3 782.3 1060.0 784.3 1054.6 C 785.9 1049.6 785.9 1044.9 785.9 1035.5 L 785.9 63.8 C 785.9 54.5 785.9 49.9 784.3 44.9 C 782.3 39.4 778.0 35.1 772.5 33.1 C 767.6 31.5 762.9 31.5 753.5 31.5 L 298.1 31.5 C 288.9 31.5 284.2 31.5 279.2 33.1 C 273.7 35.1 269.4 39.4 267.5 44.9 C 265.9 49.9 265.9 54.5 265.9 63.9 L 265.9 1035.7 C 265.9 1044.9 265.9 1049.6 267.5 1054.6 C 269.4 1060.0 273.7 1064.3 279.2 1066.3 C 284.2 1067.9 288.9 1067.9 298.3 1067.9 Z M 298.1 1067.9 " fill="url(#gradSh1.1)"></path></g></g><g><clipPath id="clip-394"><path d="M 972.0 544.0 L 1091.0 544.0 L 1091.0 424.0 L 972.0 424.0 Z M 971.6 544.3 "></path></clipPath><g clip-path="url(#clip-394)"><g><clipPath id="clip-395"><path d="M 1018.4 417.9 C 1019.5 420.7 1020.8 423.2 1021.4 423.4 C 1022.0 423.6 1023.2 421.7 1024.1 419.3 C 1026.1 413.5 1027.7 413.5 1028.1 419.2 C 1028.3 422.3 1028.9 423.7 1030.0 423.7 C 1030.8 423.7 1031.5 423.3 1031.5 422.8 C 1031.5 422.2 1031.8 421.0 1032.1 420.1 C 1032.6 419.0 1032.3 418.5 1031.3 418.7 C 1030.5 418.9 1029.8 417.9 1029.6 416.1 C 1029.2 412.9 1025.8 411.9 1024.7 414.7 C 1023.9 416.9 1021.0 416.8 1018.5 414.5 C 1016.5 412.7 1016.5 412.8 1018.4 417.9 M 1033.2 414.8 C 1032.3 417.2 1032.4 417.6 1033.6 416.9 C 1034.2 416.5 1035.5 417.9 1036.4 420.0 C 1038.5 424.2 1040.0 424.9 1040.0 421.6 C 1040.0 420.3 1039.5 419.7 1038.9 420.0 C 1038.3 420.4 1037.1 419.0 1036.2 416.9 C 1034.4 412.7 1034.1 412.4 1033.2 414.8 M 985.1 433.7 L 982.0 436.3 L 982.0 484.1 L 982.0 532.0 L 984.6 534.0 C 987.0 535.9 989.4 536.0 1031.7 536.0 L 1076.1 536.0 L 1078.8 533.4 L 1081.0 530.8 L 1081.0 484.6 C 1081.0 434.9 1081.2 433.3 1075.8 431.8 C 1074.5 431.5 1054.2 431.0 1030.7 431.0 L 988.1 431.0 L 985.1 433.7 "></path></clipPath><g clip-path="url(#clip-395)"><image xlink:href="11972E64A09F9C77F2F675B4C643479A.png" width="304.00" height="340.00" transform="matrix(1.00, 0.00, -0.00, -1.00, 880.0, 643.0)"></image></g></g></g></g><image xlink:href="C6B4588DB4CBD4324281117709484AFB.png" width="127.00" height="127.00" transform="matrix(1.00, 0.00, -0.00, -1.00, 891.0, 546.0)"></image><image xlink:href="7C3F1F6ACC78AC2F9095F582C9A63C5F.png" width="120.00" height="120.00" transform="matrix(0.99, 0.00, -0.00, -0.99, 1214.0, 542.0)"></image><image xlink:href="954B0BCF4A5857BD766BB72B7EB7D9C0.png" width="218.00" height="114.00" transform="matrix(1.00, 0.00, -0.00, -1.00, 1399.0, 539.0)"></image><image xlink:href="../../634B55AC-2290-4440-BDC7-74632B2ACCE4/assets/954B0BCF4A5857BD766BB72B7EB7D9C0.png" width="218.00" height="114.00" transform="matrix(1.00, 0.00, -0.00, -1.00, 566.0, 539.0)"></image><image xlink:href="6DF6EC27E3DCF7F3D4F5193789AA5A2E.png" width="170.00" height="220.00" transform="matrix(0.99, 0.00, -0.00, -1.00, 321.0, 371.0)"></image><g><clipPath id="clip-396"><path d="M 325.0 768.0 L 489.0 768.0 L 489.0 607.0 L 325.0 607.0 Z M 324.6 767.6 "></path></clipPath><g clip-path="url(#clip-396)"><g><clipPath id="clip-397"><path d="M 370.2 609.0 C 367.1 610.7 328.6 657.3 325.6 663.0 C 323.7 666.4 324.0 668.2 330.2 695.4 C 340.6 740.4 339.1 736.8 349.2 741.5 C 352.7 743.1 363.2 748.1 372.5 752.6 C 399.5 765.6 402.0 766.7 404.9 767.4 C 408.2 768.2 412.5 766.5 439.7 753.4 C 450.4 748.2 462.0 742.7 465.3 741.1 C 474.2 736.9 473.0 740.0 483.6 694.1 C 490.0 666.2 490.1 664.3 485.2 658.6 C 483.7 656.8 474.4 645.3 464.6 633.1 C 454.8 620.9 445.3 610.0 443.5 609.0 C 440.6 607.4 436.7 607.2 406.9 607.2 C 377.1 607.2 373.2 607.4 370.2 609.0 "></path></clipPath><g clip-path="url(#clip-397)"><image xlink:href="037D343BC2DE21666C9DCCAFE89CB570.png" width="181.00" height="181.00" transform="matrix(1.00, 0.00, -0.00, -0.99, 315.0, 777.0)"></image></g></g></g></g><path d="M 0.0 0.0 C 58.3 54.4 116.5 108.9 174.8 163.3 L 175.5 164.0 " fill="none" stroke="#000000" stroke-width="2.00" transform="matrix(1.00, 0.00, 0.00, -1.00, 1080.4, 438.2)"></path><path d="M 1251.9 271.3 L 1262.2 268.3 L 1258.4 278.3 Z M 1251.9 271.3 " fill="#000000"></path><path d="M 0.0 0.0 C 40.1 0.3 80.2 0.7 120.3 1.0 L 121.3 1.0 " fill="none" stroke="#000000" stroke-width="2.00" transform="matrix(1.00, 0.00, 0.00, -1.00, 483.5, 483.8)"></path><path d="M 603.9 478.0 L 613.5 482.7 L 603.9 487.6 Z M 603.9 478.0 " fill="#000000"></path><path d="M 0.0 0.0 C 45.6 34.9 91.2 69.9 136.8 104.8 L 137.6 105.4 " fill="none" stroke="#000000" stroke-width="2.00" transform="matrix(1.00, 0.00, 0.00, -1.00, 469.5, 639.2)"></path><path d="M 603.4 530.6 L 613.9 528.5 L 609.2 538.2 Z M 603.4 530.6 " fill="#000000"></path><path d="M 0.0 131.7 C 50.9 89.9 101.7 48.0 152.6 6.1 L 153.4 5.5 " fill="none" stroke="#000000" stroke-width="2.00" transform="matrix(1.00, 0.00, 0.00, -1.00, 475.3, 450.2)"></path><path d="M 631.0 440.4 L 635.4 450.2 L 624.9 447.8 Z M 631.0 440.4 " fill="#000000"></path><path d="M 0.0 1.3 C 49.7 0.9 99.3 0.5 149.0 0.1 L 150.0 0.1 " fill="none" stroke="#000000" stroke-width="2.00" transform="matrix(1.00, 0.00, 0.00, -1.00, 735.1, 484.1)"></path><path d="M 884.1 479.2 L 893.6 484.1 L 884.0 488.8 Z M 884.1 479.2 " fill="#000000"></path><path d="M 0.0 0.0 C 51.2 0.3 102.3 0.6 153.5 0.8 L 154.5 0.8 " fill="none" stroke="#000000" stroke-width="2.00" transform="matrix(1.00, 0.00, 0.00, -1.00, 1081.4, 483.3)"></path><path d="M 1234.8 477.7 L 1244.5 482.4 L 1234.9 487.3 Z M 1234.8 477.7 " fill="#000000"></path><path d="M 0.0 0.0 C 44.8 0.0 89.7 0.0 134.5 0.0 L 135.5 0.0 " fill="none" stroke="#000000" stroke-width="2.00" transform="matrix(1.00, 0.00, 0.00, -1.00, 1302.8, 482.3)"></path><path d="M 1437.3 477.5 L 1446.9 482.3 L 1437.3 487.1 Z M 1437.3 477.5 " fill="#000000"></path><image xlink:href="../../634B55AC-2290-4440-BDC7-74632B2ACCE4/assets/7C3F1F6ACC78AC2F9095F582C9A63C5F.png" width="120.00" height="120.00" transform="matrix(0.99, 0.00, -0.00, -0.99, 1209.0, 768.0)"></image><image xlink:href="../../634B55AC-2290-4440-BDC7-74632B2ACCE4/assets/954B0BCF4A5857BD766BB72B7EB7D9C0.png" width="218.00" height="114.00" transform="matrix(1.00, 0.00, -0.00, -1.00, 1394.0, 767.0)"></image><path d="M 0.0 0.9 C 44.8 0.6 89.7 0.3 134.5 0.1 L 135.5 0.1 " fill="none" stroke="#000000" stroke-width="2.00" transform="matrix(1.00, 0.00, 0.00, -1.00, 1298.0, 709.2)"></path><path d="M 1432.6 704.4 L 1442.1 709.2 L 1432.5 714.0 Z M 1432.6 704.4 " fill="#000000"></path><image xlink:href="../../634B55AC-2290-4440-BDC7-74632B2ACCE4/assets/7C3F1F6ACC78AC2F9095F582C9A63C5F.png" width="120.00" height="120.00" transform="matrix(0.99, 0.00, -0.00, -0.99, 1218.0, 313.0)"></image><image xlink:href="../../634B55AC-2290-4440-BDC7-74632B2ACCE4/assets/954B0BCF4A5857BD766BB72B7EB7D9C0.png" width="218.00" height="114.00" transform="matrix(1.00, 0.00, -0.00, -1.00, 1403.0, 311.0)"></image><path d="M 0.0 0.0 C 44.8 0.0 89.7 0.0 134.5 0.0 L 135.5 0.0 " fill="none" stroke="#000000" stroke-width="2.00" transform="matrix(1.00, 0.00, 0.00, -1.00, 1307.1, 253.9)"></path><path d="M 1441.6 249.1 L 1451.2 253.9 L 1441.6 258.7 Z M 1441.6 249.1 " fill="#000000"></path><path d="M 0.0 149.6 C 50.2 101.9 100.5 54.3 150.7 6.6 L 151.4 5.9 " fill="none" stroke="#000000" stroke-width="2.00" transform="matrix(1.00, 0.00, 0.00, -1.00, 1081.4, 680.2)"></path><path d="M 1235.4 670.1 L 1239.0 680.2 L 1228.8 677.1 Z M 1235.4 670.1 " fill="#000000"></path><g><clipPath id="clip-398"><path d="M 321.0 570.0 L 489.0 570.0 L 489.0 397.0 L 321.0 397.0 Z M 321.2 570.4 "></path></clipPath><g clip-path="url(#clip-398)"><image xlink:href="EA1BD9C8BFC8A65FB70DFB418CA2768E.png" width="348.00" height="174.00" transform="matrix(1.00, 0.00, -0.00, -0.99, 232.0, 570.0)"></image></g></g><g><clipPath id="clip-399"><path d="M 283.0 813.0 L 427.0 813.0 L 427.0 730.0 L 283.0 730.0 Z M 283.1 813.2 "></path></clipPath><g clip-path="url(#clip-399)"><image xlink:href="9B2D3676644A9A2956695ABA87C57C6F.png" width="145.00" height="122.00" transform="matrix(0.99, 0.00, -0.00, -0.99, 283.0, 813.0)"></image></g></g><image xlink:href="1E8C5ABB0ABA939827D543803FF285EB.png" width="193.00" height="193.00" transform="matrix(1.00, 0.00, -0.00, -0.99, 415.0, 1065.0)"></image><g><clipPath id="clip-400"><path d="M 880.0 1039.0 L 1113.0 1039.0 L 1113.0 899.0 L 880.0 899.0 Z M 880.2 1038.7 "></path></clipPath><g clip-path="url(#clip-400)"><g><clipPath id="clip-401"><path d="M 997.3 1038.7 C 990.1 1038.8 982.9 1036.7 976.7 1032.5 C 975.8 1031.9 975.0 1031.3 974.1 1030.6 C 973.9 1030.4 973.7 1030.2 973.6 1030.0 C 972.0 1028.6 970.3 1026.3 968.8 1023.6 C 967.8 1021.8 966.8 1019.9 966.0 1018.0 C 965.9 1017.7 965.8 1017.3 965.7 1017.0 C 965.4 1016.4 965.1 1015.7 964.9 1015.1 C 964.8 1014.6 964.6 1014.2 964.5 1013.8 C 964.3 1013.3 964.2 1012.7 964.0 1012.2 C 963.8 1011.3 963.6 1010.4 963.5 1009.6 C 963.4 1008.9 963.3 1008.2 963.3 1007.5 C 963.3 1006.7 963.2 1006.0 963.3 1005.3 C 963.4 998.7 965.8 991.7 969.6 986.1 C 970.5 984.8 971.4 983.6 972.4 982.6 C 972.9 982.0 973.4 981.5 973.9 981.0 C 974.4 980.5 975.0 980.0 975.5 979.6 C 976.0 979.2 976.6 978.7 977.2 978.4 C 977.9 977.9 978.7 977.4 979.6 976.9 C 981.3 975.9 983.2 975.0 984.9 974.2 C 985.8 973.9 986.6 973.6 987.2 973.4 C 987.9 973.2 988.6 973.0 989.3 972.8 C 989.6 972.7 990.0 972.7 990.4 972.6 C 990.7 972.6 991.0 972.5 991.3 972.5 C 991.7 972.4 992.1 972.4 992.5 972.3 C 992.9 972.3 993.3 972.3 993.6 972.2 C 993.9 972.2 994.3 972.2 994.6 972.2 C 995.0 972.2 995.5 972.2 995.9 972.2 C 996.4 972.2 996.8 972.2 997.2 972.2 C 997.5 972.2 997.8 972.3 998.1 972.3 C 998.6 972.3 999.0 972.4 999.5 972.4 C 999.9 972.4 1000.2 972.5 1000.6 972.5 C 1001.0 972.6 1001.4 972.7 1001.9 972.7 C 1002.2 972.8 1002.6 972.8 1002.9 972.9 C 1003.3 973.0 1003.8 973.1 1004.2 973.2 C 1004.6 973.3 1004.9 973.3 1005.3 973.4 C 1005.7 973.5 1006.2 973.7 1006.6 973.8 C 1006.9 973.9 1007.2 974.0 1007.5 974.1 C 1008.0 974.2 1008.4 974.3 1008.8 974.5 C 1009.2 974.6 1009.5 974.7 1009.9 974.9 C 1010.3 975.0 1010.7 975.1 1011.0 975.3 C 1011.4 975.4 1011.7 975.6 1012.1 975.8 C 1012.4 975.9 1012.8 976.1 1013.2 976.2 C 1013.7 976.5 1014.1 976.7 1014.6 977.0 C 1014.8 977.1 1014.9 977.1 1015.0 977.2 C 1015.0 977.2 1015.1 977.2 1015.1 977.2 C 1015.6 977.6 1016.2 977.9 1016.7 978.2 C 1016.8 978.3 1016.9 978.3 1017.0 978.4 C 1017.0 978.4 1017.0 978.4 1017.0 978.4 C 1017.5 978.7 1017.8 979.0 1018.2 979.3 C 1018.4 979.4 1018.6 979.6 1018.8 979.7 C 1018.8 979.7 1018.8 979.7 1018.8 979.7 C 1019.0 979.9 1019.2 980.0 1019.4 980.2 C 1019.7 980.5 1020.0 980.7 1020.4 981.0 C 1020.4 981.0 1020.4 981.1 1020.4 981.1 C 1020.4 981.1 1020.4 981.1 1020.4 981.1 C 1020.5 981.2 1020.6 981.3 1020.7 981.4 C 1021.1 981.8 1021.5 982.2 1021.9 982.6 C 1022.6 983.4 1023.2 984.2 1023.8 985.1 C 1024.0 985.4 1024.1 985.6 1024.3 985.9 C 1024.7 986.5 1025.1 987.1 1025.5 987.7 C 1025.6 988.1 1025.8 988.4 1026.0 988.7 C 1026.3 989.3 1026.6 989.8 1026.8 990.3 C 1027.0 990.8 1027.2 991.2 1027.4 991.6 C 1027.6 992.1 1027.8 992.7 1028.0 993.2 C 1028.1 993.6 1028.3 994.0 1028.4 994.4 C 1028.6 995.0 1028.8 995.5 1028.9 996.1 C 1029.0 996.5 1029.2 996.9 1029.3 997.3 C 1029.4 997.7 1029.4 998.1 1029.5 998.6 C 1029.8 999.9 1030.0 1001.2 1030.1 1002.5 C 1030.1 1002.6 1030.1 1002.8 1030.1 1002.9 C 1030.1 1002.9 1030.1 1002.9 1030.1 1002.9 C 1030.1 1002.9 1030.1 1002.9 1030.1 1002.9 C 1030.2 1003.8 1030.2 1004.6 1030.2 1005.5 C 1030.2 1006.3 1030.1 1007.1 1030.1 1007.9 C 1030.1 1008.6 1030.0 1009.2 1030.0 1009.8 C 1030.0 1009.8 1030.0 1009.9 1030.0 1009.9 C 1030.0 1009.9 1030.0 1009.9 1030.0 1009.9 C 1029.8 1010.8 1029.7 1011.7 1029.5 1012.6 C 1029.4 1013.0 1029.3 1013.5 1029.2 1013.9 C 1029.1 1014.4 1029.0 1014.9 1028.8 1015.4 C 1028.7 1015.9 1028.5 1016.3 1028.3 1016.8 C 1028.2 1017.3 1028.0 1017.7 1027.9 1018.2 C 1027.7 1018.6 1027.5 1019.1 1027.3 1019.5 C 1027.1 1020.0 1026.9 1020.4 1026.6 1020.9 C 1026.4 1021.3 1026.2 1021.7 1026.0 1022.1 C 1025.7 1022.6 1025.4 1023.1 1025.1 1023.6 C 1024.9 1023.9 1024.7 1024.2 1024.5 1024.6 C 1024.1 1025.1 1023.7 1025.7 1023.3 1026.2 C 1023.1 1026.5 1022.9 1026.7 1022.7 1027.0 C 1022.1 1027.8 1021.4 1028.5 1020.7 1029.2 C 1019.9 1030.0 1019.1 1030.7 1018.3 1031.4 C 1018.2 1031.4 1018.1 1031.5 1018.1 1031.5 C 1017.3 1032.1 1016.6 1032.7 1015.7 1033.2 C 1015.3 1033.5 1014.9 1033.7 1014.4 1034.0 C 1014.0 1034.3 1013.5 1034.5 1013.1 1034.8 C 1012.5 1035.1 1011.9 1035.4 1011.3 1035.6 C 1010.9 1035.8 1010.6 1036.0 1010.3 1036.1 C 1009.4 1036.5 1008.5 1036.8 1007.6 1037.1 C 1007.5 1037.1 1007.5 1037.1 1007.5 1037.1 C 1006.5 1037.4 1005.5 1037.7 1004.5 1037.9 C 1003.5 1038.1 1002.4 1038.3 1001.4 1038.4 C 1000.5 1038.6 999.5 1038.6 998.6 1038.7 C 998.5 1038.7 998.4 1038.7 998.3 1038.7 C 998.3 1038.7 998.3 1038.7 998.3 1038.7 C 997.9 1038.7 997.7 1038.7 997.3 1038.7 Z M 964.1 957.0 L 964.0 954.4 L 964.0 952.0 L 996.9 952.0 L 997.4 952.0 L 1031.0 952.0 L 1031.0 954.4 L 1031.0 957.0 L 997.4 957.0 L 996.9 957.0 L 964.1 957.0 Z M 1018.7 932.8 C 1018.3 932.8 1017.9 932.7 1017.5 932.7 C 1017.0 932.6 1016.5 932.6 1016.1 932.5 C 1016.0 932.4 1016.0 932.4 1016.0 932.4 C 1016.0 932.4 1015.9 932.4 1015.9 932.4 C 1015.6 932.3 1015.2 932.1 1014.9 931.9 C 1014.9 931.9 1014.8 931.9 1014.8 931.9 C 1014.5 931.7 1014.3 931.5 1014.0 931.2 C 1014.0 931.2 1014.0 931.1 1013.9 931.1 C 1013.7 930.8 1013.5 930.5 1013.4 930.2 C 1013.3 930.1 1013.3 930.1 1013.3 930.1 C 1013.1 929.7 1013.0 929.3 1012.8 928.8 C 1012.8 928.8 1012.8 928.8 1012.8 928.7 C 1012.8 928.5 1012.8 928.2 1012.8 928.0 C 1012.8 927.4 1012.6 926.7 1012.4 926.1 C 1012.3 925.8 1012.1 925.5 1012.0 925.2 C 1011.8 924.9 1011.7 924.7 1011.5 924.5 C 1011.0 924.0 1010.8 923.7 1010.8 923.3 C 1010.8 922.9 1011.0 922.5 1011.5 922.0 C 1012.2 921.3 1012.8 917.7 1012.8 913.6 C 1012.8 911.6 1012.8 910.3 1012.9 909.2 C 1012.9 909.2 1012.9 909.2 1012.9 909.2 C 1012.9 909.2 1012.9 909.2 1012.9 909.2 C 1013.0 908.0 1013.2 907.3 1013.5 906.9 C 1013.6 906.9 1013.6 906.9 1013.6 906.9 C 1013.7 906.7 1013.8 906.6 1014.0 906.6 C 1014.1 906.5 1014.1 906.5 1014.2 906.5 C 1014.4 906.4 1014.6 906.4 1014.9 906.4 C 1014.9 906.4 1014.9 906.4 1014.9 906.4 C 1015.1 906.4 1015.3 906.4 1015.5 906.4 C 1015.7 906.5 1015.9 906.5 1016.0 906.6 C 1016.1 906.7 1016.2 906.8 1016.3 906.9 C 1016.3 906.9 1016.3 906.9 1016.3 906.9 C 1016.3 906.9 1016.4 906.9 1016.4 907.0 C 1016.4 907.0 1016.4 907.0 1016.4 907.0 C 1016.5 907.1 1016.6 907.3 1016.7 907.6 C 1016.7 907.6 1016.7 907.7 1016.7 907.8 C 1016.7 907.8 1016.7 907.8 1016.7 907.9 C 1016.7 907.9 1016.7 907.9 1016.7 907.9 C 1016.7 907.9 1016.7 907.9 1016.7 907.9 C 1016.8 908.4 1016.9 909.0 1016.9 909.8 C 1016.9 909.8 1016.9 909.8 1016.9 909.8 C 1017.0 910.9 1017.0 912.1 1017.0 913.8 C 1017.0 913.8 1017.0 913.9 1017.0 913.9 C 1017.0 915.4 1017.0 916.5 1017.1 917.5 C 1017.1 918.2 1017.1 918.8 1017.2 919.3 C 1017.3 920.0 1017.5 920.5 1017.7 920.9 C 1017.8 921.1 1017.9 921.2 1018.0 921.3 C 1018.1 921.4 1018.2 921.5 1018.2 921.5 C 1018.3 921.7 1018.5 921.8 1018.6 921.9 C 1018.8 922.0 1019.1 922.1 1019.4 922.2 C 1019.8 922.3 1020.2 922.4 1020.6 922.5 C 1021.7 923.2 1021.2 924.1 1019.0 924.6 C 1018.2 924.9 1017.6 925.5 1017.3 926.2 C 1017.0 926.6 1016.9 927.2 1017.1 927.7 C 1017.2 928.4 1017.5 929.1 1018.0 929.5 C 1018.2 929.8 1018.5 929.9 1018.8 930.0 C 1019.1 930.1 1019.3 930.1 1019.6 930.1 C 1019.8 930.1 1020.1 930.2 1020.4 930.2 C 1020.6 930.3 1020.9 930.4 1021.1 930.5 C 1021.3 930.6 1021.5 930.8 1021.7 930.9 C 1021.9 931.1 1022.0 931.3 1022.0 931.4 C 1022.1 931.5 1022.1 931.6 1022.1 931.7 C 1022.0 931.8 1022.0 931.9 1021.9 932.0 C 1021.8 932.2 1021.6 932.3 1021.3 932.4 C 1021.3 932.4 1021.3 932.4 1021.2 932.4 C 1021.1 932.5 1020.8 932.5 1020.6 932.6 C 1020.5 932.6 1020.4 932.6 1020.4 932.6 C 1020.3 932.6 1020.2 932.7 1020.1 932.7 C 1020.1 932.7 1020.1 932.7 1020.1 932.7 C 1019.8 932.7 1019.5 932.7 1019.2 932.7 C 1019.1 932.7 1018.9 932.8 1018.8 932.8 C 1018.7 932.8 1018.7 932.8 1018.7 932.8 Z M 1005.5 932.6 C 1005.0 932.5 1004.5 932.3 1004.1 931.9 C 1003.5 931.3 1003.3 930.0 1003.6 929.1 C 1003.7 928.8 1003.9 928.6 1004.0 928.4 C 1004.0 928.4 1004.1 928.4 1004.1 928.3 C 1004.2 928.3 1004.2 928.2 1004.3 928.2 C 1004.5 928.1 1004.6 927.9 1004.8 927.9 C 1004.9 927.9 1004.9 927.8 1005.0 927.8 C 1005.2 927.8 1005.4 927.7 1005.7 927.7 C 1005.7 927.7 1005.7 927.7 1005.8 927.7 C 1006.1 927.7 1006.3 927.8 1006.6 927.9 C 1006.8 928.0 1007.0 928.1 1007.2 928.3 C 1007.4 928.5 1007.6 928.6 1007.7 928.9 C 1007.9 929.1 1008.0 929.3 1008.1 929.6 C 1008.2 929.7 1008.2 929.9 1008.3 930.1 C 1008.3 930.2 1008.3 930.3 1008.3 930.4 C 1008.3 930.4 1008.3 930.4 1008.3 930.4 C 1008.3 930.4 1008.3 930.4 1008.3 930.4 C 1008.3 931.1 1007.9 931.6 1007.4 932.0 C 1007.4 932.0 1007.4 932.1 1007.4 932.1 C 1007.1 932.2 1006.9 932.3 1006.6 932.4 C 1006.5 932.5 1006.5 932.5 1006.4 932.5 C 1006.1 932.6 1005.8 932.6 1005.5 932.6 Z M 885.8 931.7 C 885.3 931.7 884.9 931.7 884.6 931.4 C 884.4 931.3 884.3 931.1 884.2 930.9 C 884.1 930.7 884.0 930.3 884.0 929.9 C 883.7 928.4 883.6 925.4 883.6 919.7 C 883.6 912.0 883.5 908.9 882.7 906.9 C 882.4 906.2 882.0 905.7 881.6 905.1 C 881.2 904.6 880.9 904.2 880.7 903.9 C 880.3 903.1 880.1 902.5 880.2 902.0 C 880.3 901.9 880.3 901.8 880.4 901.7 C 880.5 901.6 880.6 901.5 880.7 901.4 C 881.3 900.7 882.2 900.6 883.1 901.0 C 883.4 901.2 883.7 901.4 884.0 901.6 C 884.6 902.1 885.1 902.8 885.6 903.6 C 886.1 904.4 886.5 905.3 886.8 906.4 C 887.0 906.8 887.1 907.5 887.2 908.4 C 887.3 909.2 887.4 910.2 887.5 911.2 C 887.6 913.1 887.9 915.1 888.0 917.9 L 888.0 923.9 C 888.0 923.9 887.8 923.9 887.8 923.9 C 887.8 923.9 887.8 923.9 887.8 923.9 C 887.8 930.8 887.5 931.7 885.8 931.7 Z M 968.3 931.6 C 968.1 931.6 967.8 931.5 967.5 931.5 C 967.2 931.5 966.9 931.4 966.6 931.3 C 966.3 931.1 965.9 930.8 965.5 930.4 C 965.3 930.0 965.0 929.6 964.8 929.0 C 964.7 928.9 964.7 928.8 964.6 928.7 C 964.4 928.1 964.1 927.5 963.8 926.7 C 963.8 926.7 963.7 926.6 963.7 926.5 C 963.0 924.7 962.2 922.3 961.1 919.0 L 957.0 907.0 C 957.1 906.9 957.2 906.8 957.3 906.7 C 957.3 906.7 957.3 906.7 957.3 906.7 C 957.4 906.6 957.5 906.6 957.6 906.6 C 957.6 906.6 957.7 906.5 957.7 906.5 C 958.0 906.4 958.5 906.4 959.0 906.4 C 959.4 906.4 959.7 906.5 960.1 906.5 C 960.5 906.7 960.9 906.9 961.3 907.2 C 961.5 907.4 961.7 907.7 961.9 908.0 C 961.9 908.1 962.0 908.2 962.0 908.4 C 962.0 908.8 962.0 909.1 962.1 909.5 C 962.1 909.6 962.2 909.6 962.2 909.7 C 962.3 910.0 962.4 910.2 962.5 910.5 C 962.6 910.5 962.6 910.6 962.6 910.7 C 963.0 911.2 963.6 911.7 964.2 912.0 C 964.2 912.0 964.2 912.0 964.2 912.0 C 964.4 912.2 964.6 912.3 964.8 912.4 C 964.9 912.4 965.1 912.5 965.3 912.5 C 965.4 912.6 965.4 912.6 965.5 912.6 C 966.0 912.7 966.5 912.7 967.3 912.7 C 967.9 912.7 968.3 912.7 968.8 912.6 C 969.9 912.4 970.6 911.9 971.2 910.9 C 971.2 910.9 971.2 910.9 971.2 910.9 C 971.4 910.7 971.6 910.4 971.8 910.2 C 972.0 909.9 972.2 909.6 972.3 909.3 C 973.5 906.9 974.3 906.4 977.9 906.4 C 978.2 906.4 978.4 906.0 978.7 906.0 L 983.0 906.0 L 983.0 912.9 C 983.1 914.2 983.5 915.2 983.6 916.1 C 983.7 916.9 983.8 917.6 984.0 918.2 C 984.0 918.3 984.0 918.4 984.1 918.5 C 984.1 918.7 984.2 918.8 984.2 918.9 C 984.3 919.0 984.4 919.2 984.4 919.3 C 984.5 919.4 984.6 919.5 984.6 919.6 C 984.7 919.7 984.8 919.8 984.9 919.8 C 985.0 919.9 985.1 920.0 985.2 920.1 C 985.3 920.3 985.5 920.4 985.7 920.5 C 985.7 920.5 985.7 920.5 985.7 920.5 C 986.0 920.7 986.4 921.0 986.8 921.2 C 987.4 921.5 987.9 921.8 988.4 922.0 C 988.4 922.0 988.5 922.0 988.5 922.0 C 989.0 922.2 989.3 922.3 989.7 922.3 C 990.5 922.4 991.0 922.5 991.5 922.0 L 992.0 922.0 L 992.0 919.7 C 992.0 919.7 992.3 919.7 992.3 919.7 C 992.4 919.1 992.5 918.4 992.6 917.7 C 992.6 917.7 992.6 917.6 992.6 917.6 C 992.6 917.6 992.6 917.6 992.6 917.6 C 992.6 916.8 992.7 915.9 992.7 914.9 C 992.7 914.7 992.7 914.5 992.7 914.2 C 992.7 914.1 992.7 914.0 992.7 913.9 C 992.8 912.9 992.9 912.0 993.0 911.2 C 993.0 910.6 993.1 910.0 993.2 909.6 C 993.2 909.6 993.2 909.5 993.2 909.5 C 993.2 909.5 993.2 909.5 993.2 909.5 C 993.2 909.5 993.2 909.5 993.2 909.5 C 993.3 909.3 993.4 909.1 993.4 908.9 C 993.5 908.8 993.6 908.6 993.6 908.5 C 993.7 908.3 993.8 908.2 993.9 908.0 C 993.9 908.0 993.9 908.0 993.9 908.0 C 994.0 907.8 994.2 907.6 994.4 907.4 C 994.5 907.4 994.6 907.3 994.7 907.2 C 994.9 907.1 995.1 907.0 995.3 906.9 C 995.4 906.9 995.5 906.8 995.6 906.8 C 995.6 906.8 995.6 906.8 995.6 906.7 C 995.9 906.7 996.2 906.6 996.5 906.5 C 997.0 906.4 997.5 906.4 998.2 906.4 C 999.9 906.4 1000.9 906.8 1001.0 907.3 C 1001.1 907.5 1001.0 907.8 1000.7 908.1 C 1000.5 908.2 1000.3 908.4 1000.0 908.5 C 999.7 908.6 999.4 908.7 999.0 908.8 C 998.3 909.0 997.9 909.2 997.6 909.7 C 997.4 909.9 997.4 910.1 997.3 910.3 C 997.2 910.6 997.1 910.8 997.1 911.1 C 996.9 912.1 996.9 913.4 996.9 915.2 C 996.9 917.7 997.0 919.2 997.3 920.2 C 997.4 920.5 997.5 920.7 997.6 920.9 C 997.7 921.1 997.9 921.3 998.0 921.5 C 998.3 921.8 998.7 922.1 999.2 922.3 L 1001.6 924.0 L 999.2 924.0 C 999.2 924.0 999.2 924.5 999.1 924.5 C 998.7 924.6 998.3 924.7 998.0 924.9 C 998.0 924.9 998.0 924.9 998.0 924.9 C 997.5 925.2 997.2 925.6 997.0 926.2 C 997.0 926.3 997.0 926.3 997.0 926.3 C 996.9 926.6 996.9 926.9 996.9 927.3 C 996.9 927.3 996.9 927.4 996.9 927.4 C 996.9 927.4 996.9 927.4 996.9 927.5 C 996.9 927.8 996.8 928.1 996.7 928.4 C 996.7 928.5 996.6 928.6 996.6 928.7 C 996.5 928.8 996.4 928.9 996.3 929.0 C 996.2 929.2 996.1 929.3 996.0 929.3 C 995.9 929.4 995.9 929.4 995.8 929.4 C 995.6 929.5 995.4 929.6 995.2 929.6 C 995.0 929.6 994.7 929.6 994.4 929.5 C 994.4 929.5 994.4 929.5 994.4 929.5 C 994.1 929.5 993.9 929.3 993.6 929.2 C 993.6 929.2 993.6 929.2 993.6 929.2 C 993.4 929.0 993.2 928.8 993.0 928.5 C 993.0 928.5 993.0 928.5 993.0 928.5 C 992.8 928.2 992.6 927.9 992.6 927.5 C 992.6 927.5 992.5 927.5 992.5 927.5 C 992.5 927.4 992.5 927.3 992.5 927.2 C 992.5 927.2 992.5 927.2 992.5 927.2 C 992.5 927.2 992.5 927.2 992.5 927.2 C 992.5 927.2 992.5 927.2 992.5 927.2 C 992.4 926.9 992.4 926.7 992.3 926.5 C 992.3 926.3 992.2 926.1 992.1 925.9 C 992.0 925.8 991.9 925.6 991.7 925.5 C 991.6 925.4 991.4 925.3 991.2 925.2 C 990.9 925.0 990.5 924.9 990.0 924.7 C 989.9 924.7 989.7 924.7 989.6 924.7 C 989.2 924.6 988.8 924.5 988.4 924.5 C 988.2 924.4 987.9 924.4 987.7 924.4 C 987.4 924.4 987.0 924.3 986.7 924.3 C 985.5 924.3 984.2 924.0 982.6 924.0 L 980.0 924.0 L 980.0 924.0 C 980.0 924.3 980.0 924.3 979.9 924.3 C 979.9 924.2 979.8 924.0 979.7 923.8 C 979.5 923.6 979.1 923.3 979.0 923.0 L 979.0 923.0 L 979.0 916.4 C 979.0 915.3 979.4 914.3 979.3 913.3 C 979.2 911.4 979.0 909.9 978.8 909.0 C 978.7 908.8 978.7 908.6 978.6 908.5 C 978.5 908.4 978.4 908.3 978.4 908.3 C 978.3 908.3 978.2 908.4 978.1 908.5 C 977.7 908.9 977.2 910.0 976.5 911.6 C 975.7 913.7 974.7 916.6 973.6 919.9 C 972.9 922.2 972.4 924.0 971.8 925.5 C 971.4 926.8 971.0 927.8 970.7 928.6 C 970.7 928.6 970.7 928.7 970.7 928.7 C 970.6 928.7 970.6 928.8 970.6 928.8 C 969.9 930.5 969.3 931.2 968.6 931.5 C 968.5 931.5 968.4 931.6 968.3 931.6 Z M 891.1 931.0 L 891.0 919.0 L 891.0 918.8 C 891.0 916.0 891.1 913.8 891.1 912.1 C 891.1 911.2 891.2 910.5 891.2 909.8 C 891.2 909.4 891.3 909.1 891.3 908.7 C 891.3 908.6 891.3 908.4 891.4 908.3 C 891.4 908.3 891.4 908.3 891.4 908.3 C 891.4 908.1 891.4 908.0 891.4 907.9 C 891.5 907.7 891.5 907.4 891.6 907.3 C 891.7 907.0 891.8 906.8 892.0 906.7 C 892.1 906.6 892.3 906.5 892.5 906.5 C 892.7 906.4 892.9 906.4 893.1 906.4 C 893.8 906.4 894.2 906.5 894.6 906.9 C 894.7 907.0 894.8 907.2 894.9 907.4 C 894.9 907.5 895.0 907.7 895.0 907.9 C 895.0 908.0 895.1 908.0 895.1 908.1 C 895.2 908.4 895.2 908.9 895.3 909.3 C 895.4 910.0 895.4 910.9 895.5 911.9 C 895.6 913.2 895.6 914.2 895.7 915.0 C 895.8 915.8 896.0 916.3 896.2 916.7 C 896.6 917.5 897.4 917.6 898.7 917.8 C 899.5 917.9 900.3 918.1 900.8 918.5 C 901.3 918.8 901.6 919.2 901.6 919.6 C 901.6 919.7 901.6 919.8 901.5 920.0 C 901.5 920.0 901.5 920.0 901.5 920.1 C 901.4 920.1 901.4 920.2 901.3 920.3 C 901.2 920.4 901.1 920.5 900.9 920.6 C 900.8 920.6 900.8 920.7 900.7 920.7 C 900.4 920.9 900.2 921.0 899.9 921.1 C 899.5 921.2 899.1 921.3 898.7 921.4 C 898.2 921.4 897.8 921.5 897.4 921.6 C 897.4 921.6 897.4 921.6 897.4 921.6 C 897.2 921.7 897.0 921.8 896.8 921.9 C 896.7 921.9 896.6 922.0 896.5 922.1 C 896.5 922.1 896.4 922.1 896.4 922.2 C 896.4 922.2 896.3 922.3 896.3 922.3 C 896.1 922.6 896.0 922.9 895.9 923.2 C 895.9 923.5 895.8 923.9 895.8 924.3 C 895.8 924.4 895.8 924.5 895.8 924.5 C 895.8 924.7 895.8 924.7 895.8 924.8 C 895.8 927.9 896.0 928.0 899.8 927.7 C 900.5 927.6 901.1 927.6 901.6 927.6 C 901.6 927.6 901.6 927.6 901.7 927.6 C 902.0 927.7 902.3 927.8 902.5 927.9 C 902.9 928.1 903.2 928.2 903.4 928.5 C 903.5 928.6 903.6 928.7 903.6 928.8 C 903.7 928.9 903.7 929.0 903.7 929.2 C 903.6 930.3 902.2 931.0 897.4 931.0 L 891.1 931.0 Z M 1058.3 929.6 C 1058.2 929.6 1058.2 929.6 1058.1 929.6 C 1058.1 929.6 1058.1 929.6 1058.1 929.6 C 1057.4 929.4 1056.6 928.8 1056.2 927.9 C 1056.2 927.8 1056.2 927.7 1056.2 927.5 C 1056.2 927.5 1056.2 927.5 1056.2 927.5 C 1056.1 926.9 1056.0 926.3 1055.8 925.8 C 1055.6 924.3 1055.6 922.1 1055.8 919.6 C 1056.0 918.2 1056.2 916.3 1056.2 914.6 C 1056.2 914.4 1056.2 914.3 1056.2 914.1 C 1056.5 911.0 1057.0 908.3 1057.5 907.7 C 1057.7 907.4 1058.2 907.1 1058.8 906.9 C 1058.9 906.9 1058.9 906.9 1059.0 906.9 C 1059.2 906.8 1059.4 906.8 1059.6 906.7 C 1059.8 906.7 1060.0 906.6 1060.2 906.6 C 1060.3 906.6 1060.5 906.5 1060.6 906.5 C 1060.9 906.5 1061.2 906.5 1061.5 906.4 C 1061.5 906.4 1061.6 906.4 1061.7 906.4 C 1062.0 906.4 1062.3 906.4 1062.6 906.4 C 1062.7 906.4 1062.8 906.5 1062.9 906.5 C 1063.1 906.5 1063.3 906.5 1063.5 906.6 C 1063.6 906.6 1063.7 906.6 1063.8 906.6 C 1064.0 906.7 1064.1 906.7 1064.2 906.8 C 1064.3 906.9 1064.4 906.9 1064.5 907.0 C 1064.5 907.0 1064.5 907.0 1064.5 907.0 C 1064.6 907.1 1064.6 907.3 1064.6 907.4 C 1064.6 907.5 1064.5 907.6 1064.4 907.8 C 1064.3 907.9 1064.2 908.0 1064.0 908.2 C 1063.8 908.3 1063.6 908.4 1063.3 908.5 C 1063.1 908.6 1062.8 908.7 1062.5 908.8 C 1062.1 908.9 1061.9 909.0 1061.6 909.2 C 1061.5 909.2 1061.5 909.3 1061.4 909.3 C 1061.3 909.4 1061.3 909.5 1061.2 909.5 C 1061.2 909.6 1061.1 909.7 1061.1 909.7 C 1060.9 909.9 1060.9 910.1 1060.8 910.3 C 1060.8 910.3 1060.8 910.3 1060.8 910.3 C 1060.8 910.4 1060.7 910.5 1060.7 910.6 C 1060.7 910.6 1060.7 910.7 1060.7 910.8 C 1060.6 910.9 1060.6 911.0 1060.6 911.1 C 1060.6 911.2 1060.6 911.3 1060.6 911.4 C 1060.5 911.7 1060.5 911.9 1060.5 912.2 C 1060.4 913.0 1060.4 914.0 1060.4 915.2 C 1060.4 915.2 1060.4 915.3 1060.4 915.3 C 1060.4 915.3 1060.4 915.3 1060.4 915.4 C 1060.4 916.5 1060.4 917.4 1060.5 918.1 C 1060.5 918.7 1060.5 919.3 1060.6 919.7 C 1060.7 920.1 1060.8 920.5 1061.0 920.7 C 1061.0 920.8 1061.0 920.8 1061.0 920.8 C 1061.0 920.9 1061.1 921.0 1061.2 921.1 C 1061.2 921.2 1061.2 921.2 1061.3 921.2 C 1061.4 921.3 1061.4 921.4 1061.5 921.5 C 1061.8 921.8 1062.2 921.7 1062.7 922.0 L 1064.6 923.0 C 1064.6 923.2 1064.4 923.8 1064.1 924.0 L 1062.7 924.0 C 1062.4 924.1 1062.1 924.7 1061.8 924.9 C 1061.8 924.9 1061.8 924.9 1061.8 924.9 C 1061.6 925.0 1061.5 925.2 1061.3 925.3 C 1061.3 925.4 1061.2 925.4 1061.2 925.5 C 1061.0 925.6 1061.0 925.7 1060.9 925.8 C 1060.8 926.0 1060.7 926.1 1060.7 926.3 C 1060.6 926.3 1060.6 926.4 1060.5 926.5 C 1060.5 926.8 1060.4 927.1 1060.4 927.4 C 1060.4 927.5 1060.4 927.6 1060.3 927.7 C 1060.3 927.8 1060.3 927.8 1060.3 927.8 C 1060.3 928.0 1060.3 928.2 1060.2 928.4 C 1060.2 928.6 1060.1 928.8 1059.9 929.0 C 1059.9 929.0 1059.9 929.0 1059.9 929.1 C 1059.7 929.2 1059.5 929.4 1059.2 929.5 C 1058.9 929.6 1058.6 929.6 1058.3 929.6 Z M 1048.0 924.9 C 1045.2 925.1 1042.5 923.6 1040.9 921.2 C 1040.8 921.0 1040.6 920.7 1040.5 920.5 C 1040.5 920.5 1040.5 920.5 1040.5 920.5 C 1040.3 920.1 1040.2 919.8 1040.1 919.5 C 1040.0 919.3 1040.0 919.2 1040.0 919.1 C 1039.9 918.8 1039.8 918.6 1039.7 918.3 C 1039.3 916.0 1039.4 913.3 1040.1 911.1 C 1040.6 909.6 1041.3 908.2 1042.1 907.7 C 1043.7 906.5 1046.5 906.2 1048.8 906.5 C 1050.0 906.6 1051.0 906.9 1051.6 907.4 C 1052.1 907.7 1052.4 908.1 1052.4 908.6 C 1052.4 908.8 1052.4 908.9 1052.3 909.1 C 1052.2 909.4 1052.1 909.6 1051.9 909.7 C 1051.7 909.8 1051.4 909.9 1051.1 910.0 C 1050.9 910.0 1050.7 909.9 1050.5 909.8 C 1050.2 909.7 1049.9 909.6 1049.6 909.5 C 1049.2 909.2 1048.8 909.1 1048.5 909.0 C 1048.2 908.9 1047.8 908.9 1047.5 909.0 C 1046.9 909.1 1046.3 909.5 1045.5 910.2 C 1045.2 910.4 1044.9 910.7 1044.7 911.1 C 1044.6 911.2 1044.6 911.3 1044.5 911.4 C 1044.4 911.6 1044.2 911.9 1044.1 912.1 C 1044.1 912.2 1044.0 912.3 1044.0 912.4 C 1043.8 912.8 1043.7 913.2 1043.7 913.6 C 1043.6 913.6 1043.6 913.7 1043.6 913.7 C 1043.6 914.1 1043.5 914.4 1043.5 914.8 C 1043.5 914.9 1043.5 915.0 1043.5 915.0 C 1043.5 915.4 1043.6 915.8 1043.6 916.2 C 1043.7 916.7 1043.8 917.1 1043.9 917.5 C 1044.0 917.5 1044.0 917.6 1044.0 917.6 C 1044.1 918.0 1044.3 918.4 1044.5 918.7 C 1044.7 919.1 1044.9 919.5 1045.2 919.8 C 1045.2 919.8 1045.2 919.8 1045.2 919.8 C 1045.8 921.1 1046.7 922.0 1047.6 922.0 C 1047.8 922.0 1047.9 921.9 1048.1 921.9 C 1048.1 921.9 1048.1 921.9 1048.1 921.9 C 1048.1 921.9 1048.1 921.9 1048.1 921.9 C 1048.3 921.8 1048.4 921.8 1048.6 921.7 C 1048.7 921.7 1048.8 921.7 1048.8 921.7 C 1050.9 921.7 1051.8 922.6 1051.5 923.4 C 1051.3 923.8 1051.0 924.1 1050.4 924.4 C 1050.3 924.4 1050.1 924.5 1049.9 924.6 C 1049.7 924.6 1049.6 924.7 1049.4 924.7 C 1049.4 924.7 1049.3 924.7 1049.3 924.7 C 1048.9 924.8 1048.4 924.9 1048.0 924.9 Z M 1030.1 924.6 C 1029.1 924.5 1028.1 924.4 1027.3 924.2 C 1025.1 923.7 1023.4 922.7 1023.4 921.5 C 1023.4 921.4 1023.4 921.3 1023.4 921.2 C 1024.1 921.0 1025.0 920.9 1025.9 920.8 C 1026.1 920.9 1026.2 920.9 1026.4 921.0 C 1026.7 921.0 1026.9 921.1 1027.2 921.2 C 1028.8 921.8 1029.6 922.0 1030.3 921.6 C 1030.9 921.4 1031.3 921.0 1031.7 920.3 C 1031.8 920.1 1031.9 920.0 1031.9 919.8 C 1032.0 919.7 1032.1 919.6 1032.1 919.4 C 1032.2 919.2 1032.3 919.0 1032.3 918.7 C 1032.3 918.6 1032.3 918.4 1032.3 918.3 C 1032.2 917.5 1031.5 917.2 1030.2 917.0 C 1030.2 917.0 1030.2 917.0 1030.2 917.0 C 1030.2 917.0 1030.1 917.0 1030.1 917.0 C 1029.9 917.0 1029.7 917.0 1029.4 917.0 C 1029.3 917.0 1029.2 916.9 1029.0 916.9 C 1028.5 916.9 1027.9 916.9 1027.4 916.9 C 1026.4 916.7 1025.6 916.5 1024.9 916.1 C 1024.5 916.0 1024.2 915.8 1024.0 915.5 C 1023.7 915.3 1023.5 915.1 1023.3 914.8 C 1023.3 914.8 1023.3 914.8 1023.2 914.7 C 1023.1 914.5 1023.0 914.3 1022.9 914.1 C 1022.8 913.9 1022.8 913.9 1022.7 913.7 C 1022.6 913.5 1022.6 913.3 1022.5 913.1 C 1022.5 912.9 1022.4 912.7 1022.4 912.5 C 1022.4 912.3 1022.4 912.0 1022.3 911.7 C 1022.3 911.5 1022.3 911.3 1022.3 911.1 C 1022.3 911.1 1022.3 911.1 1022.3 911.1 C 1022.3 911.1 1022.3 911.1 1022.3 911.1 C 1022.3 911.0 1022.3 911.0 1022.3 911.0 C 1022.3 910.9 1022.3 910.8 1022.3 910.8 C 1022.3 909.9 1022.5 909.1 1022.7 908.5 C 1023.0 907.8 1023.4 907.3 1023.9 906.8 C 1024.2 906.7 1024.4 906.5 1024.7 906.4 C 1025.2 906.2 1025.6 906.1 1026.0 905.9 C 1026.0 905.9 1026.0 905.9 1026.0 905.9 C 1026.0 905.9 1026.0 905.9 1026.0 905.9 C 1026.0 905.9 1026.0 905.9 1026.1 905.9 C 1026.5 905.8 1026.9 905.8 1027.4 905.7 C 1027.5 905.7 1027.5 905.7 1027.6 905.7 C 1028.1 905.7 1028.6 905.7 1029.1 905.7 C 1029.2 905.7 1029.2 905.7 1029.2 905.7 C 1029.7 905.8 1030.2 906.1 1030.9 906.5 C 1031.7 906.9 1032.3 907.1 1032.9 907.1 C 1033.4 907.1 1033.9 906.8 1034.4 906.4 C 1034.6 906.3 1034.6 906.3 1034.7 906.2 C 1034.7 906.2 1034.8 906.2 1034.8 906.2 C 1035.4 906.3 1035.9 906.5 1036.3 906.6 C 1036.3 906.6 1036.3 906.6 1036.3 906.6 C 1036.5 907.5 1036.5 909.3 1036.4 911.8 C 1036.4 911.8 1036.4 911.8 1036.4 911.8 C 1036.4 911.8 1036.4 911.9 1036.4 911.9 C 1036.2 913.0 1036.1 914.5 1036.1 915.9 C 1036.1 916.1 1036.1 916.2 1036.1 916.4 C 1035.5 922.9 1035.2 923.7 1032.9 924.3 C 1032.6 924.4 1032.3 924.4 1031.9 924.5 C 1031.4 924.5 1030.7 924.6 1030.1 924.6 Z M 945.9 924.5 C 944.9 924.5 944.0 924.4 943.0 924.4 C 943.0 924.4 943.0 924.4 943.0 924.4 C 942.0 924.3 941.1 924.3 940.2 924.2 C 940.2 924.2 940.2 924.2 940.1 924.2 C 940.0 924.2 939.9 924.2 939.8 924.1 C 939.0 924.1 938.3 924.0 937.7 923.9 C 937.5 923.9 937.4 923.9 937.3 923.8 C 936.7 923.7 936.1 923.6 935.7 923.5 C 935.4 923.3 935.1 923.1 934.8 922.8 C 934.7 922.7 934.7 922.6 934.6 922.6 C 934.4 922.3 934.2 922.1 934.0 921.9 C 934.0 921.8 933.9 921.7 933.9 921.6 C 933.7 921.3 933.5 920.9 933.3 920.5 C 933.3 920.5 933.3 920.5 933.3 920.5 C 933.3 920.4 933.3 920.3 933.3 920.3 C 933.2 919.9 933.2 919.5 933.1 919.2 C 933.1 919.0 933.1 918.9 933.1 918.8 C 933.1 918.5 933.2 918.2 933.2 917.9 C 933.2 917.7 933.3 917.6 933.3 917.5 C 933.3 917.2 933.4 916.9 933.6 916.6 C 933.6 916.5 933.6 916.4 933.6 916.4 C 933.7 916.3 933.7 916.2 933.8 916.1 C 933.9 915.9 934.0 915.7 934.2 915.6 C 934.2 915.5 934.3 915.5 934.3 915.4 C 934.6 915.1 934.9 914.8 935.0 914.6 C 935.0 914.6 935.1 914.5 935.1 914.5 C 935.2 914.3 935.2 914.2 935.3 914.1 C 935.4 913.6 935.2 913.2 934.8 912.7 C 934.7 912.5 934.6 912.4 934.4 912.1 C 933.3 910.8 933.4 910.2 934.8 909.0 C 935.2 908.9 935.6 908.7 936.1 908.5 C 939.3 907.2 938.6 905.3 934.8 905.3 C 933.9 905.3 933.2 905.1 932.9 904.7 C 932.8 904.7 932.8 904.6 932.8 904.6 C 932.7 904.5 932.6 904.4 932.6 904.3 C 932.6 904.3 932.6 904.2 932.6 904.2 C 932.5 904.1 932.5 904.0 932.5 903.9 C 932.5 903.3 932.9 902.6 933.5 901.8 C 933.7 901.6 934.0 901.4 934.3 901.1 C 934.7 900.9 935.0 900.6 935.5 900.4 C 936.3 900.0 937.1 899.7 937.9 899.4 C 938.7 899.2 939.5 899.1 940.3 899.1 C 940.8 899.1 941.2 899.1 941.6 899.1 C 942.0 899.2 942.4 899.2 942.9 899.3 C 943.7 899.5 944.6 899.7 945.5 900.1 C 945.8 900.2 946.1 900.3 946.4 900.5 C 946.6 900.6 946.9 900.7 947.1 900.9 C 947.1 900.9 947.1 900.9 947.1 900.9 C 947.1 900.9 947.1 900.9 947.2 900.9 C 947.2 900.9 947.2 901.0 947.2 901.0 C 947.5 901.2 947.8 901.5 948.0 901.8 C 948.1 901.8 948.1 901.8 948.1 901.9 C 948.3 902.2 948.5 902.5 948.7 902.9 C 948.8 903.0 948.8 903.1 948.8 903.2 C 948.9 903.5 949.1 903.8 949.1 904.1 C 949.2 904.5 949.3 905.0 949.3 905.5 C 949.3 905.7 949.2 905.8 949.2 906.0 C 949.2 906.3 949.1 906.5 949.0 906.7 C 948.9 906.9 948.8 907.1 948.7 907.3 C 948.7 907.3 948.6 907.4 948.6 907.5 C 948.5 907.6 948.4 907.7 948.3 907.9 C 948.2 908.0 948.2 908.1 948.1 908.1 C 948.0 908.3 947.9 908.4 947.8 908.5 C 947.7 908.6 947.6 908.7 947.4 908.8 C 947.4 908.9 947.3 908.9 947.1 909.0 C 947.0 909.1 946.8 909.3 946.6 909.4 C 946.5 909.4 946.5 909.5 946.4 909.5 C 946.1 909.6 945.9 909.7 945.6 909.9 C 945.6 909.9 945.5 909.9 945.5 909.9 C 945.5 909.9 945.5 909.9 945.5 909.9 C 945.2 910.0 944.8 910.2 944.4 910.2 C 943.9 910.4 943.4 910.5 942.9 910.7 C 942.1 911.0 941.4 911.3 941.0 911.6 C 940.4 912.1 940.4 912.6 940.9 913.0 C 941.3 913.3 942.0 913.5 942.9 913.6 C 943.3 913.7 943.7 913.7 944.1 913.8 C 944.5 913.9 944.8 914.0 945.1 914.1 C 945.1 914.1 945.1 914.2 945.1 914.2 C 945.2 914.2 945.2 914.2 945.3 914.2 C 945.6 914.4 946.0 914.6 946.3 914.9 C 947.2 915.8 947.9 917.0 948.0 918.4 C 948.1 918.8 948.2 919.2 948.3 919.5 C 948.4 919.9 948.5 920.2 948.7 920.4 C 948.7 920.4 948.7 920.5 948.7 920.5 C 948.7 920.6 948.8 920.6 948.8 920.7 C 948.8 920.7 948.8 920.8 948.8 920.8 C 949.0 921.1 949.2 921.3 949.4 921.5 C 949.6 921.8 949.8 922.0 950.0 922.1 C 951.1 922.6 951.5 923.5 951.1 923.9 C 951.0 924.0 950.8 924.1 950.5 924.1 C 950.5 924.1 950.4 924.2 950.4 924.2 C 950.2 924.2 950.0 924.2 949.8 924.3 C 949.5 924.3 949.2 924.3 948.9 924.3 C 948.1 924.4 947.0 924.5 945.9 924.5 Z M 1094.4 924.5 C 1093.6 924.4 1093.0 924.4 1092.7 924.3 C 1092.5 924.2 1091.9 924.2 1091.5 924.2 C 1091.4 924.2 1091.4 924.2 1091.4 924.2 C 1091.1 923.9 1090.7 923.7 1090.4 923.7 C 1090.2 923.7 1090.1 923.8 1089.9 923.8 C 1089.8 923.9 1089.7 924.0 1089.6 924.2 C 1089.6 924.2 1089.6 924.2 1089.6 924.2 C 1089.1 924.2 1088.6 924.2 1088.1 924.2 C 1086.8 924.3 1086.1 924.2 1085.6 924.1 C 1085.3 923.9 1085.1 923.6 1085.0 923.2 C 1085.1 923.0 1085.1 922.9 1085.1 922.7 C 1085.3 922.2 1085.5 921.0 1085.6 919.3 C 1085.7 917.7 1085.8 915.7 1085.8 913.7 C 1085.8 912.3 1085.8 911.4 1085.8 910.5 C 1085.9 908.3 1086.1 907.3 1086.6 906.8 C 1086.7 906.7 1086.7 906.7 1086.8 906.6 C 1086.8 906.6 1086.8 906.6 1086.9 906.6 C 1086.9 906.6 1086.9 906.6 1086.9 906.6 C 1087.2 906.5 1087.4 906.4 1087.8 906.4 C 1089.2 906.5 1089.5 907.5 1089.5 912.9 C 1089.5 917.6 1089.6 918.9 1091.0 920.1 C 1091.0 920.1 1091.1 920.1 1091.1 920.1 C 1091.1 920.1 1091.1 920.2 1091.1 920.2 C 1091.4 920.4 1091.6 920.6 1091.9 920.8 C 1091.9 920.8 1091.9 920.8 1091.9 920.8 C 1092.3 921.1 1092.7 921.3 1093.2 921.5 C 1094.1 922.0 1094.9 922.3 1095.6 922.4 C 1096.0 922.5 1096.4 922.6 1096.6 922.5 C 1096.7 922.5 1096.7 922.4 1096.8 922.4 C 1096.8 922.4 1096.8 922.4 1096.8 922.4 C 1096.8 922.4 1096.8 922.3 1096.9 922.3 C 1097.2 921.8 1098.8 917.6 1100.5 912.8 L 1103.5 904.2 L 1100.9 902.2 C 1100.6 901.9 1100.3 901.7 1100.1 901.4 C 1099.9 901.2 1099.7 901.0 1099.5 900.7 C 1099.4 900.6 1099.3 900.5 1099.2 900.4 C 1099.2 900.4 1099.2 900.4 1099.2 900.3 C 1099.1 900.1 1099.0 899.9 1098.9 899.6 C 1098.9 899.4 1098.9 899.3 1099.0 899.1 C 1099.1 899.0 1099.2 898.9 1099.3 898.8 C 1099.4 898.8 1099.5 898.8 1099.5 898.7 C 1099.6 898.7 1099.7 898.7 1099.8 898.7 C 1100.1 898.6 1100.4 898.6 1100.8 898.6 C 1101.1 898.6 1101.5 898.7 1101.9 898.8 C 1102.0 898.8 1102.1 898.9 1102.2 898.9 C 1102.5 899.0 1102.9 899.2 1103.3 899.4 C 1103.4 899.4 1103.4 899.4 1103.5 899.5 C 1103.5 899.5 1103.5 899.5 1103.6 899.5 C 1103.6 899.5 1103.6 899.6 1103.7 899.6 C 1103.7 899.6 1103.7 899.6 1103.7 899.6 C 1104.1 899.9 1104.6 900.3 1105.0 900.9 C 1105.2 901.2 1105.4 901.8 1105.8 902.6 C 1106.1 903.3 1106.5 904.2 1106.9 905.2 C 1106.9 905.2 1106.9 905.3 1106.9 905.3 C 1107.1 905.8 1107.3 906.4 1107.5 906.9 C 1108.2 908.6 1108.9 910.4 1109.6 912.3 C 1110.2 913.9 1110.7 915.2 1111.2 916.6 C 1111.5 917.6 1111.9 918.7 1112.2 919.4 C 1112.4 920.0 1112.5 920.4 1112.6 920.8 C 1112.7 921.3 1112.9 921.7 1113.0 922.1 C 1113.0 922.1 1113.0 922.1 1113.0 922.1 C 1113.2 922.8 1113.3 923.2 1113.3 923.4 C 1113.3 923.5 1113.3 923.6 1113.2 923.7 C 1113.1 923.8 1113.1 923.8 1113.0 923.9 C 1112.9 923.9 1112.9 924.0 1112.8 924.0 C 1112.7 924.1 1112.5 924.2 1112.3 924.2 C 1112.1 924.3 1111.9 924.3 1111.6 924.3 C 1111.3 924.3 1111.0 924.2 1110.8 924.2 C 1110.3 924.0 1109.9 923.5 1109.5 922.8 C 1109.4 922.5 1109.2 922.1 1109.0 921.7 C 1108.9 921.5 1108.8 921.4 1108.8 921.2 C 1108.5 920.5 1108.3 919.7 1108.0 918.8 C 1107.3 916.5 1106.5 914.5 1105.9 913.7 C 1105.7 913.4 1105.5 913.3 1105.4 913.3 C 1105.3 913.3 1105.2 913.3 1105.1 913.4 C 1104.5 913.9 1103.3 916.1 1102.4 918.8 C 1101.9 920.0 1101.6 920.9 1101.2 921.6 C 1101.1 922.0 1100.9 922.3 1100.8 922.5 C 1100.6 922.8 1100.5 923.0 1100.3 923.2 C 1100.3 923.2 1100.3 923.2 1100.3 923.3 C 1099.6 923.8 1098.7 924.1 1097.5 924.4 C 1097.5 924.4 1097.5 924.4 1097.5 924.4 C 1097.5 924.4 1097.5 924.4 1097.5 924.4 C 1097.4 924.4 1097.2 924.4 1097.0 924.4 C 1096.1 924.5 1095.2 924.5 1094.4 924.5 Z M 1005.9 924.3 C 1004.6 924.3 1004.3 922.6 1004.3 915.4 C 1004.3 909.0 1004.5 906.9 1005.5 906.5 C 1005.6 906.4 1005.7 906.4 1005.9 906.4 C 1006.1 906.4 1006.2 906.4 1006.3 906.5 C 1006.5 906.5 1006.6 906.6 1006.7 906.8 C 1006.9 907.0 1007.0 907.5 1007.2 908.2 C 1007.4 909.5 1007.5 911.7 1007.5 915.4 C 1007.5 919.0 1007.4 921.2 1007.2 922.6 C 1007.0 923.2 1006.9 923.7 1006.7 923.9 C 1006.6 924.1 1006.5 924.2 1006.3 924.2 C 1006.2 924.3 1006.1 924.3 1005.9 924.3 Z M 924.0 924.3 C 923.4 924.3 922.8 924.3 922.2 924.2 C 922.1 924.2 921.9 924.2 921.8 924.2 C 921.3 924.1 920.8 924.0 920.4 923.9 C 920.3 923.9 920.2 923.9 920.1 923.8 C 919.5 923.7 919.0 923.5 918.6 923.3 C 918.4 923.2 918.2 923.2 918.0 923.1 C 917.9 923.0 917.8 922.9 917.6 922.8 C 917.5 922.7 917.4 922.7 917.4 922.6 C 915.8 921.2 915.4 921.1 914.9 922.3 C 914.8 922.5 914.7 922.7 914.5 922.9 C 913.9 923.7 912.5 924.0 910.2 924.1 C 909.8 924.0 909.6 924.0 909.3 924.0 C 909.3 924.0 909.3 924.0 909.2 924.0 C 909.0 924.0 908.9 924.0 908.8 924.1 C 908.3 924.1 907.9 924.0 907.5 924.0 L 906.8 924.0 L 905.0 924.0 C 904.9 923.9 904.7 924.0 904.6 923.8 C 904.5 923.7 904.1 923.5 904.0 923.4 L 904.0 921.6 C 904.1 920.9 904.6 920.0 904.7 918.8 C 904.8 917.3 904.8 915.5 904.8 913.7 C 904.8 912.5 904.8 911.6 904.9 910.8 C 904.9 909.9 905.0 909.2 905.1 908.6 C 905.1 908.6 905.1 908.5 905.1 908.5 C 905.3 907.7 905.5 907.2 905.7 906.9 C 905.7 906.9 905.8 906.8 905.8 906.8 C 905.9 906.7 906.0 906.7 906.0 906.6 C 906.1 906.6 906.1 906.6 906.2 906.5 C 906.3 906.5 906.4 906.5 906.5 906.4 C 906.6 906.4 906.8 906.4 906.9 906.4 C 907.1 906.4 907.3 906.4 907.5 906.4 C 907.6 906.5 907.8 906.5 907.9 906.6 C 907.9 906.6 908.0 906.6 908.0 906.6 C 908.0 906.6 908.0 906.6 908.0 906.6 C 908.0 906.7 908.1 906.7 908.1 906.8 C 908.2 906.8 908.2 906.8 908.2 906.8 C 908.2 906.8 908.2 906.9 908.2 906.9 C 908.3 906.9 908.3 907.0 908.4 907.0 C 908.4 907.0 908.4 907.0 908.4 907.1 C 908.4 907.1 908.4 907.1 908.4 907.1 C 908.5 907.3 908.6 907.4 908.7 907.6 C 908.8 908.2 908.9 908.9 909.0 909.8 C 909.1 910.8 909.2 912.0 909.3 913.5 C 909.3 915.0 909.4 916.1 909.5 917.0 C 909.5 917.7 909.6 918.3 909.7 918.8 C 909.7 918.8 909.7 918.8 909.7 918.8 C 909.8 919.2 909.8 919.5 909.9 919.7 C 910.0 919.9 910.1 920.0 910.2 920.1 C 910.3 920.2 910.3 920.2 910.3 920.2 C 910.4 920.3 910.5 920.3 910.6 920.4 C 910.7 920.5 910.9 920.5 911.1 920.5 C 911.1 920.6 911.2 920.6 911.3 920.6 C 911.6 920.6 911.8 920.6 912.2 920.6 C 912.2 920.6 912.2 920.6 912.2 920.6 C 912.2 920.6 912.2 920.6 912.2 920.6 C 912.2 920.6 912.2 920.6 912.2 920.6 C 912.2 920.6 912.2 920.6 912.2 920.6 C 912.7 920.6 913.1 920.6 913.4 920.5 C 913.6 920.5 913.8 920.4 914.0 920.4 C 914.0 920.3 914.0 920.3 914.1 920.3 C 914.2 920.2 914.3 920.1 914.4 919.9 C 914.4 919.9 914.4 919.9 914.5 919.9 C 914.5 919.9 914.5 919.9 914.5 919.9 C 914.5 919.8 914.5 919.8 914.5 919.8 C 914.5 919.8 914.5 919.7 914.5 919.6 C 914.5 919.6 914.5 919.6 914.6 919.6 C 914.6 919.4 914.7 919.2 914.7 919.0 C 914.8 918.7 914.8 918.5 914.9 918.1 C 914.9 917.5 915.0 916.7 915.0 915.6 C 915.0 914.0 915.2 912.6 915.5 911.4 C 916.4 908.5 918.1 907.0 921.0 906.5 C 921.5 906.4 922.1 906.4 922.8 906.4 C 925.0 906.4 926.6 906.9 927.9 907.9 C 928.9 908.8 929.6 909.9 930.3 911.5 C 930.5 912.0 930.7 912.6 930.9 913.2 C 931.1 913.6 931.2 914.0 931.2 914.5 C 931.3 915.4 931.2 916.4 931.0 917.4 C 930.8 918.4 930.5 919.4 930.1 920.3 C 929.7 921.2 929.2 922.0 928.6 922.7 C 928.3 923.0 928.0 923.3 927.6 923.5 C 927.4 923.7 927.1 923.8 926.8 923.9 C 926.7 923.9 926.6 924.0 926.6 924.0 C 926.3 924.0 926.1 924.1 925.8 924.1 C 925.2 924.2 924.6 924.3 924.0 924.3 C 924.0 924.3 924.0 924.3 924.0 924.3 C 924.0 924.3 924.0 924.3 924.0 924.3 Z M 1074.0 924.3 C 1073.3 924.3 1072.8 924.3 1072.2 924.2 C 1070.7 923.9 1069.4 923.2 1068.5 922.1 C 1067.6 921.0 1067.1 919.5 1066.9 917.5 C 1066.8 916.8 1066.7 916.1 1066.7 915.4 C 1066.7 913.0 1067.5 910.0 1068.4 908.7 C 1068.7 908.3 1069.0 908.0 1069.4 907.7 C 1069.5 907.5 1069.7 907.4 1069.9 907.2 C 1069.9 907.2 1070.0 907.2 1070.0 907.2 C 1070.0 907.2 1070.0 907.2 1070.1 907.2 C 1070.2 907.1 1070.4 907.0 1070.6 906.9 C 1071.0 906.8 1071.5 906.6 1071.9 906.6 C 1072.0 906.5 1072.1 906.5 1072.2 906.5 C 1072.8 906.4 1073.3 906.4 1074.0 906.4 C 1074.6 906.4 1075.3 906.5 1075.9 906.5 C 1075.9 906.5 1076.0 906.5 1076.0 906.5 C 1076.6 906.6 1077.1 906.7 1077.6 906.8 C 1077.6 906.8 1077.6 906.8 1077.6 906.8 C 1077.6 906.8 1077.6 906.8 1077.6 906.8 C 1078.0 906.9 1078.4 907.1 1078.8 907.3 C 1079.1 907.4 1079.5 907.6 1079.8 907.8 C 1079.8 907.8 1079.8 907.8 1079.8 907.8 C 1080.1 908.1 1080.3 908.4 1080.5 908.7 C 1080.6 908.9 1080.8 909.1 1080.9 909.3 C 1081.0 909.5 1081.2 909.8 1081.4 910.1 C 1081.5 910.3 1081.5 910.6 1081.6 910.8 C 1081.7 911.1 1081.8 911.4 1081.9 911.7 C 1082.0 912.0 1082.1 912.2 1082.2 912.5 C 1082.2 912.8 1082.3 913.1 1082.3 913.4 C 1082.4 913.7 1082.4 914.1 1082.4 914.4 C 1082.5 914.7 1082.5 914.9 1082.5 915.2 C 1082.5 915.6 1082.5 915.9 1082.5 916.3 C 1082.5 916.5 1082.4 916.8 1082.4 917.1 C 1082.4 917.4 1082.3 917.8 1082.2 918.1 C 1082.1 918.4 1082.1 918.6 1082.0 918.8 C 1081.9 919.4 1081.7 919.9 1081.4 920.4 C 1081.1 921.1 1080.8 921.6 1080.4 922.0 C 1080.3 922.1 1080.3 922.3 1080.2 922.4 C 1080.0 922.6 1079.7 922.9 1079.5 923.1 C 1079.3 923.3 1079.0 923.4 1078.7 923.6 C 1078.6 923.6 1078.5 923.7 1078.4 923.7 C 1078.2 923.8 1078.0 923.9 1077.8 923.9 C 1077.5 924.0 1077.2 924.1 1076.8 924.1 C 1076.0 924.3 1075.1 924.3 1074.0 924.3 Z M 1074.0 924.3 "></path></clipPath><g clip-path="url(#clip-401)"><image xlink:href="31FC516B1E10715FFD92273D53A4C3DF.png" width="248.00" height="153.00" transform="matrix(1.00, 0.00, -0.00, -1.01, 873.0, 1046.0)"></image></g></g></g></g></g></svg>