<?xml version="1.0" encoding="UTF-8" standalone="no"?><svg xmlns="http://www.w3.org/2000/svg" xmlns:xlink="http://www.w3.org/1999/xlink" clip-rule="evenodd" stroke-miterlimit="4.00" viewBox="0 0 274 35"><desc>SVG generated by Keynote</desc><defs></defs><g transform="matrix(1.00, 0.00, -0.00, -1.00, 0.0, 35.0)"><text xml:space="preserve" font-family="Helvetica-Bold" font-weight="bold" font-size="42.0" fill="#000000" transform="matrix(1.00, 0.00, -0.00, -1.00, 0.0, 2.0)">I</text><text xml:space="preserve" font-family="Helvetica-Bold" font-weight="bold" font-size="42.0" fill="#000000" transform="matrix(1.00, 0.00, -0.00, -1.00, 11.7, 2.0)">n</text><text xml:space="preserve" font-family="Helvetica-Bold" font-weight="bold" font-size="42.0" fill="#000000" transform="matrix(1.00, 0.00, -0.00, -1.00, 37.3, 2.0)">f</text><text xml:space="preserve" font-family="Helvetica-Bold" font-weight="bold" font-size="42.0" fill="#000000" transform="matrix(1.00, 0.00, -0.00, -1.00, 51.3, 2.0)">r</text><text xml:space="preserve" font-family="Helvetica-Bold" font-weight="bold" font-size="42.0" fill="#000000" transform="matrix(1.00, 0.00, -0.00, -1.00, 67.6, 2.0)">a</text><text xml:space="preserve" font-family="Helvetica-Bold" font-weight="bold" font-size="42.0" fill="#000000" transform="matrix(1.00, 0.00, -0.00, -1.00, 91.0, 2.0)">s</text><text xml:space="preserve" font-family="Helvetica-Bold" font-weight="bold" font-size="42.0" fill="#000000" transform="matrix(1.00, 0.00, -0.00, -1.00, 114.4, 2.0)">t</text><text xml:space="preserve" font-family="Helvetica-Bold" font-weight="bold" font-size="42.0" fill="#000000" transform="matrix(1.00, 0.00, -0.00, -1.00, 128.4, 2.0)">r</text><text xml:space="preserve" font-family="Helvetica-Bold" font-weight="bold" font-size="42.0" fill="#000000" transform="matrix(1.00, 0.00, -0.00, -1.00, 144.7, 2.0)">u</text><text xml:space="preserve" font-family="Helvetica-Bold" font-weight="bold" font-size="42.0" fill="#000000" transform="matrix(1.00, 0.00, -0.00, -1.00, 170.4, 2.0)">c</text><text xml:space="preserve" font-family="Helvetica-Bold" font-weight="bold" font-size="42.0" fill="#000000" transform="matrix(1.00, 0.00, -0.00, -1.00, 193.7, 2.0)">t</text><text xml:space="preserve" font-family="Helvetica-Bold" font-weight="bold" font-size="42.0" fill="#000000" transform="matrix(1.00, 0.00, -0.00, -1.00, 207.7, 2.0)">u</text><text xml:space="preserve" font-family="Helvetica-Bold" font-weight="bold" font-size="42.0" fill="#000000" transform="matrix(1.00, 0.00, -0.00, -1.00, 233.4, 2.0)">r</text><text xml:space="preserve" font-family="Helvetica-Bold" font-weight="bold" font-size="42.0" fill="#000000" transform="matrix(1.00, 0.00, -0.00, -1.00, 249.7, 2.0)">e</text></g></svg>