<?xml version="1.0" encoding="UTF-8" standalone="no"?><svg xmlns="http://www.w3.org/2000/svg" xmlns:xlink="http://www.w3.org/1999/xlink" clip-rule="evenodd" stroke-miterlimit="4.00" viewBox="0 0 824 69"><desc>SVG generated by Keynote</desc><defs></defs><g transform="matrix(1.00, 0.00, -0.00, -1.00, 0.0, 69.0)"><text xml:space="preserve" font-family="Helvetica-Light" font-size="70.0" fill="#000000" transform="matrix(1.00, 0.00, -0.00, -1.00, -4.0, 17.0)">H</text><text xml:space="preserve" font-family="Helvetica-Light" font-size="70.0" fill="#000000" transform="matrix(1.00, 0.00, -0.00, -1.00, 46.5, 17.0)">a</text><text xml:space="preserve" font-family="Helvetica-Light" font-size="70.0" fill="#000000" transform="matrix(1.00, 0.00, -0.00, -1.00, 85.5, 17.0)">v</text><text xml:space="preserve" font-family="Helvetica-Light" font-size="70.0" fill="#000000" transform="matrix(1.00, 0.00, -0.00, -1.00, 120.5, 17.0)">e</text><text xml:space="preserve" font-family="Helvetica-Light" font-size="70.0" fill="#000000" transform="matrix(1.00, 0.00, -0.00, -1.00, 159.4, 17.0)"> </text><text xml:space="preserve" font-family="Helvetica-Light" font-size="70.0" fill="#000000" transform="matrix(1.00, 0.00, -0.00, -1.00, 178.8, 17.0)">g</text><text xml:space="preserve" font-family="Helvetica-Light" font-size="70.0" fill="#000000" transform="matrix(1.00, 0.00, -0.00, -1.00, 221.6, 17.0)">o</text><text xml:space="preserve" font-family="Helvetica-Light" font-size="70.0" fill="#000000" transform="matrix(1.00, 0.00, -0.00, -1.00, 260.5, 17.0)">o</text><text xml:space="preserve" font-family="Helvetica-Light" font-size="70.0" fill="#000000" transform="matrix(1.00, 0.00, -0.00, -1.00, 299.5, 17.0)">d</text><text xml:space="preserve" font-family="Helvetica-Light" font-size="70.0" fill="#000000" transform="matrix(1.00, 0.00, -0.00, -1.00, 342.2, 17.0)"> </text><text xml:space="preserve" font-family="Helvetica-Light" font-size="70.0" fill="#000000" transform="matrix(1.00, 0.00, -0.00, -1.00, 361.7, 17.0)">i</text><text xml:space="preserve" font-family="Helvetica-Light" font-size="70.0" fill="#000000" transform="matrix(1.00, 0.00, -0.00, -1.00, 377.2, 17.0)">m</text><text xml:space="preserve" font-family="Helvetica-Light" font-size="70.0" fill="#000000" transform="matrix(1.00, 0.00, -0.00, -1.00, 435.5, 17.0)">a</text><text xml:space="preserve" font-family="Helvetica-Light" font-size="70.0" fill="#000000" transform="matrix(1.00, 0.00, -0.00, -1.00, 474.5, 17.0)">g</text><text xml:space="preserve" font-family="Helvetica-Light" font-size="70.0" fill="#000000" transform="matrix(1.00, 0.00, -0.00, -1.00, 517.2, 17.0)">e</text><text xml:space="preserve" font-family="Helvetica-Light" font-size="70.0" fill="#000000" transform="matrix(1.00, 0.00, -0.00, -1.00, 556.1, 17.0)"> </text><text xml:space="preserve" font-family="Helvetica-Light" font-size="70.0" fill="#000000" transform="matrix(1.00, 0.00, -0.00, -1.00, 575.6, 17.0)">h</text><text xml:space="preserve" font-family="Helvetica-Light" font-size="70.0" fill="#000000" transform="matrix(1.00, 0.00, -0.00, -1.00, 614.5, 17.0)">y</text><text xml:space="preserve" font-family="Helvetica-Light" font-size="70.0" fill="#000000" transform="matrix(1.00, 0.00, -0.00, -1.00, 649.5, 17.0)">g</text><text xml:space="preserve" font-family="Helvetica-Light" font-size="70.0" fill="#000000" transform="matrix(1.00, 0.00, -0.00, -1.00, 692.3, 17.0)">i</text><text xml:space="preserve" font-family="Helvetica-Light" font-size="70.0" fill="#000000" transform="matrix(1.00, 0.00, -0.00, -1.00, 707.8, 17.0)">e</text><text xml:space="preserve" font-family="Helvetica-Light" font-size="70.0" fill="#000000" transform="matrix(1.00, 0.00, -0.00, -1.00, 746.7, 17.0)">n</text><text xml:space="preserve" font-family="Helvetica-Light" font-size="70.0" fill="#000000" transform="matrix(1.00, 0.00, -0.00, -1.00, 785.7, 17.0)">e</text></g></svg>