<?xml version="1.0" encoding="UTF-8" standalone="no"?><svg xmlns="http://www.w3.org/2000/svg" xmlns:xlink="http://www.w3.org/1999/xlink" clip-rule="evenodd" stroke-miterlimit="4.00" viewBox="0 0 108 139"><desc>SVG generated by Keynote</desc><defs></defs><g transform="matrix(1.00, 0.00, -0.00, -1.00, 0.0, 139.0)"><g><clipPath id="clip-347"><path d="M 4.8 23.6 L 103.2 23.6 L 103.2 122.0 L 4.8 122.0 Z M 4.8 23.6 "></path></clipPath><g clip-path="url(#clip-347)"><path d="M 5.8 121.0 L 102.2 121.0 L 102.2 24.6 L 5.8 24.6 Z M 5.8 121.0 " fill="#51A7F9"></path></g></g><g><clipPath id="clip-348"><path d="M 0.8 96.3 L 107.2 96.3 L 107.2 138.7 L 0.8 138.7 Z M 0.8 96.3 "></path></clipPath><g clip-path="url(#clip-348)"><image xlink:href="../../06EDFFF8-22B7-4C35-8C87-1C6D4D87C4D8/assets/01A5284ACC15E701D59E964B12AC8551.png" width="104.00" height="40.00" transform="matrix(1.00, 0.00, -0.00, -1.01, 1.8, 137.7)" opacity="0.50"></image><path d="M 88.1 130.9 C 106.9 124.6 106.9 114.3 88.1 108.0 C 69.2 101.7 38.8 101.7 19.9 108.0 C 1.1 114.3 1.1 124.6 19.9 130.9 C 38.8 137.3 69.2 137.3 88.1 130.9 Z M 88.1 130.9 " fill="#51A7F9"></path></g></g><g><clipPath id="clip-349"><path d="M 0.8 0.1 L 107.2 0.1 L 107.2 43.6 L 0.8 43.6 Z M 0.8 0.1 "></path></clipPath><g clip-path="url(#clip-349)"><image xlink:href="../../06EDFFF8-22B7-4C35-8C87-1C6D4D87C4D8/assets/01A5284ACC15E701D59E964B12AC8551.png" width="104.00" height="40.00" transform="matrix(1.00, 0.00, -0.00, -1.01, 1.8, 41.6)" opacity="0.50"></image><path d="M 88.1 37.8 C 106.9 31.5 106.9 21.2 88.1 14.9 C 69.2 8.6 38.8 8.6 19.9 14.9 C 1.1 21.2 1.1 31.5 19.9 37.8 C 38.8 44.1 69.2 44.1 88.1 37.8 Z M 88.1 37.8 " fill="#51A7F9"></path></g></g><g><clipPath id="clip-350"><path d="M 13.2 41.5 L 165.3 41.5 L 165.3 90.8 L 13.2 90.8 Z M 13.2 41.5 "></path></clipPath><g clip-path="url(#clip-350)"><text xml:space="preserve" font-family="Helvetica-Bold" font-weight="bold" font-size="16.0" fill="#FEFFFF" transform="matrix(1.00, 0.00, -0.00, -1.00, 22.0, 70.0)">P</text><text xml:space="preserve" font-family="Helvetica-Bold" font-weight="bold" font-size="16.0" fill="#FEFFFF" transform="matrix(1.00, 0.00, -0.00, -1.00, 32.7, 70.0)">a</text><text xml:space="preserve" font-family="Helvetica-Bold" font-weight="bold" font-size="16.0" fill="#FEFFFF" transform="matrix(1.00, 0.00, -0.00, -1.00, 41.6, 70.0)">c</text><text xml:space="preserve" font-family="Helvetica-Bold" font-weight="bold" font-size="16.0" fill="#FEFFFF" transform="matrix(1.00, 0.00, -0.00, -1.00, 50.5, 70.0)">k</text><text xml:space="preserve" font-family="Helvetica-Bold" font-weight="bold" font-size="16.0" fill="#FEFFFF" transform="matrix(1.00, 0.00, -0.00, -1.00, 59.4, 70.0)">a</text><text xml:space="preserve" font-family="Helvetica-Bold" font-weight="bold" font-size="16.0" fill="#FEFFFF" transform="matrix(1.00, 0.00, -0.00, -1.00, 68.3, 70.0)">g</text><text xml:space="preserve" font-family="Helvetica-Bold" font-weight="bold" font-size="16.0" fill="#FEFFFF" transform="matrix(1.00, 0.00, -0.00, -1.00, 78.0, 70.0)">e</text><text xml:space="preserve" font-family="Helvetica-Bold" font-weight="bold" font-size="16.0" fill="#FEFFFF" transform="matrix(1.00, 0.00, -0.00, -1.00, 34.0, 51.0)">R</text><text xml:space="preserve" font-family="Helvetica-Bold" font-weight="bold" font-size="16.0" fill="#FEFFFF" transform="matrix(1.00, 0.00, -0.00, -1.00, 45.6, 51.0)">e</text><text xml:space="preserve" font-family="Helvetica-Bold" font-weight="bold" font-size="16.0" fill="#FEFFFF" transform="matrix(1.00, 0.00, -0.00, -1.00, 54.5, 51.0)">p</text><text xml:space="preserve" font-family="Helvetica-Bold" font-weight="bold" font-size="16.0" fill="#FEFFFF" transform="matrix(1.00, 0.00, -0.00, -1.00, 64.2, 51.0)">o</text></g></g></g></svg>