<?xml version="1.0" encoding="UTF-8" standalone="no"?><svg xmlns="http://www.w3.org/2000/svg" xmlns:xlink="http://www.w3.org/1999/xlink" clip-rule="evenodd" stroke-miterlimit="4.00" viewBox="0 0 43 230"><desc>SVG generated by Keynote</desc><defs></defs><g transform="matrix(1.00, 0.00, -0.00, -1.00, 0.0, 230.0)"><text xml:space="preserve" font-family="Helvetica-Bold" font-weight="bold" font-size="42.0" fill="#000000" transform="matrix(0.00, 1.00, 1.00, -0.00, 33.0, 0.0)">A</text><text xml:space="preserve" font-family="Helvetica-Bold" font-weight="bold" font-size="42.0" fill="#000000" transform="matrix(0.00, 1.00, 1.00, -0.00, 33.0, 30.3)">p</text><text xml:space="preserve" font-family="Helvetica-Bold" font-weight="bold" font-size="42.0" fill="#000000" transform="matrix(0.00, 1.00, 1.00, -0.00, 33.0, 56.0)">p</text><text xml:space="preserve" font-family="Helvetica-Bold" font-weight="bold" font-size="42.0" fill="#000000" transform="matrix(0.00, 1.00, 1.00, -0.00, 33.0, 81.6)">l</text><text xml:space="preserve" font-family="Helvetica-Bold" font-weight="bold" font-size="42.0" fill="#000000" transform="matrix(0.00, 1.00, 1.00, -0.00, 33.0, 93.3)">i</text><text xml:space="preserve" font-family="Helvetica-Bold" font-weight="bold" font-size="42.0" fill="#000000" transform="matrix(0.00, 1.00, 1.00, -0.00, 33.0, 105.0)">c</text><text xml:space="preserve" font-family="Helvetica-Bold" font-weight="bold" font-size="42.0" fill="#000000" transform="matrix(0.00, 1.00, 1.00, -0.00, 33.0, 128.3)">a</text><text xml:space="preserve" font-family="Helvetica-Bold" font-weight="bold" font-size="42.0" fill="#000000" transform="matrix(0.00, 1.00, 1.00, -0.00, 33.0, 151.7)">t</text><text xml:space="preserve" font-family="Helvetica-Bold" font-weight="bold" font-size="42.0" fill="#000000" transform="matrix(0.00, 1.00, 1.00, -0.00, 33.0, 165.7)">i</text><text xml:space="preserve" font-family="Helvetica-Bold" font-weight="bold" font-size="42.0" fill="#000000" transform="matrix(0.00, 1.00, 1.00, -0.00, 33.0, 177.3)">o</text><text xml:space="preserve" font-family="Helvetica-Bold" font-weight="bold" font-size="42.0" fill="#000000" transform="matrix(0.00, 1.00, 1.00, -0.00, 33.0, 203.0)">n</text></g></svg>