<?xml version="1.0" encoding="UTF-8" standalone="no"?><svg xmlns="http://www.w3.org/2000/svg" xmlns:xlink="http://www.w3.org/1999/xlink" clip-rule="evenodd" stroke-miterlimit="4.00" viewBox="0 0 1920 1080"><desc>SVG generated by Keynote</desc><defs></defs><g transform="matrix(1.00, 0.00, -0.00, -1.00, 0.0, 1080.0)"><path d="M 0.0 1080.0 L 1920.0 1080.0 L 1920.0 0.0 L 0.0 0.0 Z M 0.0 1080.0 " fill="#FEFFFF"></path><text xml:space="preserve" font-family="Helvetica-Light" font-size="70.0" fill="#000000" transform="matrix(1.00, 0.00, -0.00, -1.00, 419.0, 556.0)">T</text><text xml:space="preserve" font-family="Helvetica-Light" font-size="70.0" fill="#000000" transform="matrix(1.00, 0.00, -0.00, -1.00, 457.9, 556.0)">h</text><text xml:space="preserve" font-family="Helvetica-Light" font-size="70.0" fill="#000000" transform="matrix(1.00, 0.00, -0.00, -1.00, 496.8, 556.0)">e</text><text xml:space="preserve" font-family="Helvetica-Light" font-size="70.0" fill="#000000" transform="matrix(1.00, 0.00, -0.00, -1.00, 535.8, 556.0)"> </text><text xml:space="preserve" font-family="Helvetica-Light" font-size="70.0" fill="#000000" transform="matrix(1.00, 0.00, -0.00, -1.00, 555.2, 556.0)">b</text><text xml:space="preserve" font-family="Helvetica-Light" font-size="70.0" fill="#000000" transform="matrix(1.00, 0.00, -0.00, -1.00, 598.0, 556.0)">a</text><text xml:space="preserve" font-family="Helvetica-Light" font-size="70.0" fill="#000000" transform="matrix(1.00, 0.00, -0.00, -1.00, 636.9, 556.0)">k</text><text xml:space="preserve" font-family="Helvetica-Light" font-size="70.0" fill="#000000" transform="matrix(1.00, 0.00, -0.00, -1.00, 671.9, 556.0)">e</text><text xml:space="preserve" font-family="Helvetica-Light" font-size="70.0" fill="#000000" transform="matrix(1.00, 0.00, -0.00, -1.00, 710.8, 556.0)"> </text><text xml:space="preserve" font-family="Helvetica-Light" font-size="70.0" fill="#000000" transform="matrix(1.00, 0.00, -0.00, -1.00, 730.3, 556.0)">a</text><text xml:space="preserve" font-family="Helvetica-Light" font-size="70.0" fill="#000000" transform="matrix(1.00, 0.00, -0.00, -1.00, 769.2, 556.0)">r</text><text xml:space="preserve" font-family="Helvetica-Light" font-size="70.0" fill="#000000" transform="matrix(1.00, 0.00, -0.00, -1.00, 792.5, 556.0)">g</text><text xml:space="preserve" font-family="Helvetica-Light" font-size="70.0" fill="#000000" transform="matrix(1.00, 0.00, -0.00, -1.00, 835.3, 556.0)">u</text><text xml:space="preserve" font-family="Helvetica-Light" font-size="70.0" fill="#000000" transform="matrix(1.00, 0.00, -0.00, -1.00, 874.2, 556.0)">m</text><text xml:space="preserve" font-family="Helvetica-Light" font-size="70.0" fill="#000000" transform="matrix(1.00, 0.00, -0.00, -1.00, 932.5, 556.0)">e</text><text xml:space="preserve" font-family="Helvetica-Light" font-size="70.0" fill="#000000" transform="matrix(1.00, 0.00, -0.00, -1.00, 971.4, 556.0)">n</text><text xml:space="preserve" font-family="Helvetica-Light" font-size="70.0" fill="#000000" transform="matrix(1.00, 0.00, -0.00, -1.00, 1010.4, 556.0)">t</text><text xml:space="preserve" font-family="Helvetica-Light" font-size="70.0" fill="#000000" transform="matrix(1.00, 0.00, -0.00, -1.00, 1029.8, 556.0)"> </text><text xml:space="preserve" font-family="Helvetica-Light" font-size="70.0" fill="#000000" transform="matrix(1.00, 0.00, -0.00, -1.00, 1049.3, 556.0)">i</text><text xml:space="preserve" font-family="Helvetica-Light" font-size="70.0" fill="#000000" transform="matrix(1.00, 0.00, -0.00, -1.00, 1064.8, 556.0)">s</text><text xml:space="preserve" font-family="Helvetica-Light" font-size="70.0" fill="#000000" transform="matrix(1.00, 0.00, -0.00, -1.00, 1099.8, 556.0)"> </text><text xml:space="preserve" font-family="Helvetica-Light" font-size="70.0" fill="#000000" transform="matrix(1.00, 0.00, -0.00, -1.00, 1119.3, 556.0)">r</text><text xml:space="preserve" font-family="Helvetica-Light" font-size="70.0" fill="#000000" transform="matrix(1.00, 0.00, -0.00, -1.00, 1141.3, 556.0)">e</text><text xml:space="preserve" font-family="Helvetica-Light" font-size="70.0" fill="#000000" transform="matrix(1.00, 0.00, -0.00, -1.00, 1180.2, 556.0)">a</text><text xml:space="preserve" font-family="Helvetica-Light" font-size="70.0" fill="#000000" transform="matrix(1.00, 0.00, -0.00, -1.00, 1219.2, 556.0)">l</text><text xml:space="preserve" font-family="Helvetica-Light" font-size="70.0" fill="#000000" transform="matrix(1.00, 0.00, -0.00, -1.00, 1234.7, 556.0)">l</text><text xml:space="preserve" font-family="Helvetica-Light" font-size="70.0" fill="#000000" transform="matrix(1.00, 0.00, -0.00, -1.00, 1250.2, 556.0)">y</text><text xml:space="preserve" font-family="Helvetica-Light" font-size="70.0" fill="#000000" transform="matrix(1.00, 0.00, -0.00, -1.00, 1285.2, 556.0)"> </text><text xml:space="preserve" font-family="Helvetica-Light" font-size="70.0" fill="#000000" transform="matrix(1.00, 0.00, -0.00, -1.00, 1304.7, 556.0)">s</text><text xml:space="preserve" font-family="Helvetica-Light" font-size="70.0" fill="#000000" transform="matrix(1.00, 0.00, -0.00, -1.00, 1339.7, 556.0)">t</text><text xml:space="preserve" font-family="Helvetica-Light" font-size="70.0" fill="#000000" transform="matrix(1.00, 0.00, -0.00, -1.00, 1359.2, 556.0)">r</text><text xml:space="preserve" font-family="Helvetica-Light" font-size="70.0" fill="#000000" transform="matrix(1.00, 0.00, -0.00, -1.00, 1381.2, 556.0)">o</text><text xml:space="preserve" font-family="Helvetica-Light" font-size="70.0" fill="#000000" transform="matrix(1.00, 0.00, -0.00, -1.00, 1420.1, 556.0)">n</text><text xml:space="preserve" font-family="Helvetica-Light" font-size="70.0" fill="#000000" transform="matrix(1.00, 0.00, -0.00, -1.00, 1459.1, 556.0)">g</text><text xml:space="preserve" font-family="Helvetica-Light" font-size="70.0" fill="#000000" transform="matrix(1.00, 0.00, -0.00, -1.00, 1501.8, 556.0)"> </text><text xml:space="preserve" font-family="Helvetica-Light" font-size="70.0" fill="#000000" transform="matrix(1.00, 0.00, -0.00, -1.00, 314.0, 472.0)">a</text><text xml:space="preserve" font-family="Helvetica-Light" font-size="70.0" fill="#000000" transform="matrix(1.00, 0.00, -0.00, -1.00, 352.9, 472.0)">s</text><text xml:space="preserve" font-family="Helvetica-Light" font-size="70.0" fill="#000000" transform="matrix(1.00, 0.00, -0.00, -1.00, 387.9, 472.0)"> </text><text xml:space="preserve" font-family="Helvetica-Light" font-size="70.0" fill="#000000" transform="matrix(1.00, 0.00, -0.00, -1.00, 407.4, 472.0)">l</text><text xml:space="preserve" font-family="Helvetica-Light" font-size="70.0" fill="#000000" transform="matrix(1.00, 0.00, -0.00, -1.00, 422.9, 472.0)">o</text><text xml:space="preserve" font-family="Helvetica-Light" font-size="70.0" fill="#000000" transform="matrix(1.00, 0.00, -0.00, -1.00, 461.8, 472.0)">n</text><text xml:space="preserve" font-family="Helvetica-Light" font-size="70.0" fill="#000000" transform="matrix(1.00, 0.00, -0.00, -1.00, 500.8, 472.0)">g</text><text xml:space="preserve" font-family="Helvetica-Light" font-size="70.0" fill="#000000" transform="matrix(1.00, 0.00, -0.00, -1.00, 543.5, 472.0)"> </text><text xml:space="preserve" font-family="Helvetica-Light" font-size="70.0" fill="#000000" transform="matrix(1.00, 0.00, -0.00, -1.00, 563.0, 472.0)">a</text><text xml:space="preserve" font-family="Helvetica-Light" font-size="70.0" fill="#000000" transform="matrix(1.00, 0.00, -0.00, -1.00, 601.9, 472.0)">s</text><text xml:space="preserve" font-family="Helvetica-Light" font-size="70.0" fill="#000000" transform="matrix(1.00, 0.00, -0.00, -1.00, 636.9, 472.0)"> </text><text xml:space="preserve" font-family="Helvetica-Light" font-size="70.0" fill="#000000" transform="matrix(1.00, 0.00, -0.00, -1.00, 656.4, 472.0)">y</text><text xml:space="preserve" font-family="Helvetica-Light" font-size="70.0" fill="#000000" transform="matrix(1.00, 0.00, -0.00, -1.00, 691.4, 472.0)">o</text><text xml:space="preserve" font-family="Helvetica-Light" font-size="70.0" fill="#000000" transform="matrix(1.00, 0.00, -0.00, -1.00, 730.3, 472.0)">u</text><text xml:space="preserve" font-family="Helvetica-Light" font-size="70.0" fill="#000000" transform="matrix(1.00, 0.00, -0.00, -1.00, 769.2, 472.0)"> </text><text xml:space="preserve" font-family="Helvetica-Light" font-size="70.0" fill="#000000" transform="matrix(1.00, 0.00, -0.00, -1.00, 788.7, 472.0)">h</text><text xml:space="preserve" font-family="Helvetica-Light" font-size="70.0" fill="#000000" transform="matrix(1.00, 0.00, -0.00, -1.00, 827.6, 472.0)">a</text><text xml:space="preserve" font-family="Helvetica-Light" font-size="70.0" fill="#000000" transform="matrix(1.00, 0.00, -0.00, -1.00, 866.5, 472.0)">v</text><text xml:space="preserve" font-family="Helvetica-Light" font-size="70.0" fill="#000000" transform="matrix(1.00, 0.00, -0.00, -1.00, 901.5, 472.0)">e</text><text xml:space="preserve" font-family="Helvetica-Light" font-size="70.0" fill="#000000" transform="matrix(1.00, 0.00, -0.00, -1.00, 940.4, 472.0)"> </text><text xml:space="preserve" font-family="Helvetica-Light" font-size="70.0" fill="#000000" transform="matrix(1.00, 0.00, -0.00, -1.00, 959.9, 472.0)">g</text><text xml:space="preserve" font-family="Helvetica-Light" font-size="70.0" fill="#000000" transform="matrix(1.00, 0.00, -0.00, -1.00, 1002.7, 472.0)">o</text><text xml:space="preserve" font-family="Helvetica-Light" font-size="70.0" fill="#000000" transform="matrix(1.00, 0.00, -0.00, -1.00, 1041.6, 472.0)">o</text><text xml:space="preserve" font-family="Helvetica-Light" font-size="70.0" fill="#000000" transform="matrix(1.00, 0.00, -0.00, -1.00, 1080.5, 472.0)">d</text><text xml:space="preserve" font-family="Helvetica-Light" font-size="70.0" fill="#000000" transform="matrix(1.00, 0.00, -0.00, -1.00, 1123.3, 472.0)"> </text><text xml:space="preserve" font-family="Helvetica-Light" font-size="70.0" fill="#000000" transform="matrix(1.00, 0.00, -0.00, -1.00, 1142.7, 472.0)">i</text><text xml:space="preserve" font-family="Helvetica-Light" font-size="70.0" fill="#000000" transform="matrix(1.00, 0.00, -0.00, -1.00, 1158.3, 472.0)">m</text><text xml:space="preserve" font-family="Helvetica-Light" font-size="70.0" fill="#000000" transform="matrix(1.00, 0.00, -0.00, -1.00, 1216.6, 472.0)">a</text><text xml:space="preserve" font-family="Helvetica-Light" font-size="70.0" fill="#000000" transform="matrix(1.00, 0.00, -0.00, -1.00, 1255.5, 472.0)">g</text><text xml:space="preserve" font-family="Helvetica-Light" font-size="70.0" fill="#000000" transform="matrix(1.00, 0.00, -0.00, -1.00, 1298.3, 472.0)">e</text><text xml:space="preserve" font-family="Helvetica-Light" font-size="70.0" fill="#000000" transform="matrix(1.00, 0.00, -0.00, -1.00, 1337.2, 472.0)"> </text><text xml:space="preserve" font-family="Helvetica-Light" font-size="70.0" fill="#000000" transform="matrix(1.00, 0.00, -0.00, -1.00, 1356.6, 472.0)">h</text><text xml:space="preserve" font-family="Helvetica-Light" font-size="70.0" fill="#000000" transform="matrix(1.00, 0.00, -0.00, -1.00, 1395.6, 472.0)">y</text><text xml:space="preserve" font-family="Helvetica-Light" font-size="70.0" fill="#000000" transform="matrix(1.00, 0.00, -0.00, -1.00, 1430.6, 472.0)">g</text><text xml:space="preserve" font-family="Helvetica-Light" font-size="70.0" fill="#000000" transform="matrix(1.00, 0.00, -0.00, -1.00, 1473.3, 472.0)">i</text><text xml:space="preserve" font-family="Helvetica-Light" font-size="70.0" fill="#000000" transform="matrix(1.00, 0.00, -0.00, -1.00, 1488.9, 472.0)">e</text><text xml:space="preserve" font-family="Helvetica-Light" font-size="70.0" fill="#000000" transform="matrix(1.00, 0.00, -0.00, -1.00, 1527.8, 472.0)">n</text><text xml:space="preserve" font-family="Helvetica-Light" font-size="70.0" fill="#000000" transform="matrix(1.00, 0.00, -0.00, -1.00, 1566.7, 472.0)">e</text></g></svg>