<?xml version="1.0" encoding="UTF-8" standalone="no"?><svg xmlns="http://www.w3.org/2000/svg" xmlns:xlink="http://www.w3.org/1999/xlink" clip-rule="evenodd" stroke-miterlimit="4.00" viewBox="0 0 1920 1080"><desc>SVG generated by Keynote</desc><defs></defs><g transform="matrix(1.00, 0.00, -0.00, -1.00, 0.0, 1080.0)"><path d="M 0.0 1080.0 L 1920.0 1080.0 L 1920.0 0.0 L 0.0 0.0 Z M 0.0 1080.0 " fill="#FEFFFF"></path><text xml:space="preserve" font-family="Helvetica-Bold" font-weight="bold" font-size="42.0" fill="#000000" transform="matrix(0.00, 1.00, 1.00, -0.00, 291.0, 78.0)">I</text><text xml:space="preserve" font-family="Helvetica-Bold" font-weight="bold" font-size="42.0" fill="#000000" transform="matrix(0.00, 1.00, 1.00, -0.00, 291.0, 89.7)">n</text><text xml:space="preserve" font-family="Helvetica-Bold" font-weight="bold" font-size="42.0" fill="#000000" transform="matrix(0.00, 1.00, 1.00, -0.00, 291.0, 115.3)">f</text><text xml:space="preserve" font-family="Helvetica-Bold" font-weight="bold" font-size="42.0" fill="#000000" transform="matrix(0.00, 1.00, 1.00, -0.00, 291.0, 129.3)">r</text><text xml:space="preserve" font-family="Helvetica-Bold" font-weight="bold" font-size="42.0" fill="#000000" transform="matrix(0.00, 1.00, 1.00, -0.00, 291.0, 145.6)">a</text><text xml:space="preserve" font-family="Helvetica-Bold" font-weight="bold" font-size="42.0" fill="#000000" transform="matrix(0.00, 1.00, 1.00, -0.00, 291.0, 169.0)">s</text><text xml:space="preserve" font-family="Helvetica-Bold" font-weight="bold" font-size="42.0" fill="#000000" transform="matrix(0.00, 1.00, 1.00, -0.00, 291.0, 192.4)">t</text><text xml:space="preserve" font-family="Helvetica-Bold" font-weight="bold" font-size="42.0" fill="#000000" transform="matrix(0.00, 1.00, 1.00, -0.00, 291.0, 206.4)">r</text><text xml:space="preserve" font-family="Helvetica-Bold" font-weight="bold" font-size="42.0" fill="#000000" transform="matrix(0.00, 1.00, 1.00, -0.00, 291.0, 222.7)">u</text><text xml:space="preserve" font-family="Helvetica-Bold" font-weight="bold" font-size="42.0" fill="#000000" transform="matrix(0.00, 1.00, 1.00, -0.00, 291.0, 248.4)">c</text><text xml:space="preserve" font-family="Helvetica-Bold" font-weight="bold" font-size="42.0" fill="#000000" transform="matrix(0.00, 1.00, 1.00, -0.00, 291.0, 271.7)">t</text><text xml:space="preserve" font-family="Helvetica-Bold" font-weight="bold" font-size="42.0" fill="#000000" transform="matrix(0.00, 1.00, 1.00, -0.00, 291.0, 285.7)">u</text><text xml:space="preserve" font-family="Helvetica-Bold" font-weight="bold" font-size="42.0" fill="#000000" transform="matrix(0.00, 1.00, 1.00, -0.00, 291.0, 311.4)">r</text><text xml:space="preserve" font-family="Helvetica-Bold" font-weight="bold" font-size="42.0" fill="#000000" transform="matrix(0.00, 1.00, 1.00, -0.00, 291.0, 327.7)">e</text><text xml:space="preserve" font-family="Helvetica-Bold" font-weight="bold" font-size="42.0" fill="#000000" transform="matrix(0.00, 1.00, 1.00, -0.00, 291.0, 595.0)">A</text><text xml:space="preserve" font-family="Helvetica-Bold" font-weight="bold" font-size="42.0" fill="#000000" transform="matrix(0.00, 1.00, 1.00, -0.00, 291.0, 625.3)">p</text><text xml:space="preserve" font-family="Helvetica-Bold" font-weight="bold" font-size="42.0" fill="#000000" transform="matrix(0.00, 1.00, 1.00, -0.00, 291.0, 651.0)">p</text><text xml:space="preserve" font-family="Helvetica-Bold" font-weight="bold" font-size="42.0" fill="#000000" transform="matrix(0.00, 1.00, 1.00, -0.00, 291.0, 676.6)">l</text><text xml:space="preserve" font-family="Helvetica-Bold" font-weight="bold" font-size="42.0" fill="#000000" transform="matrix(0.00, 1.00, 1.00, -0.00, 291.0, 688.3)">i</text><text xml:space="preserve" font-family="Helvetica-Bold" font-weight="bold" font-size="42.0" fill="#000000" transform="matrix(0.00, 1.00, 1.00, -0.00, 291.0, 700.0)">c</text><text xml:space="preserve" font-family="Helvetica-Bold" font-weight="bold" font-size="42.0" fill="#000000" transform="matrix(0.00, 1.00, 1.00, -0.00, 291.0, 723.3)">a</text><text xml:space="preserve" font-family="Helvetica-Bold" font-weight="bold" font-size="42.0" fill="#000000" transform="matrix(0.00, 1.00, 1.00, -0.00, 291.0, 746.7)">t</text><text xml:space="preserve" font-family="Helvetica-Bold" font-weight="bold" font-size="42.0" fill="#000000" transform="matrix(0.00, 1.00, 1.00, -0.00, 291.0, 760.7)">i</text><text xml:space="preserve" font-family="Helvetica-Bold" font-weight="bold" font-size="42.0" fill="#000000" transform="matrix(0.00, 1.00, 1.00, -0.00, 291.0, 772.3)">o</text><text xml:space="preserve" font-family="Helvetica-Bold" font-weight="bold" font-size="42.0" fill="#000000" transform="matrix(0.00, 1.00, 1.00, -0.00, 291.0, 798.0)">n</text><text xml:space="preserve" font-family="Helvetica-Bold" font-weight="bold" font-size="50.0" fill="#000000" transform="matrix(1.00, 0.00, -0.00, -1.00, 536.0, 909.0)">B</text><text xml:space="preserve" font-family="Helvetica-Bold" font-weight="bold" font-size="50.0" fill="#000000" transform="matrix(1.00, 0.00, -0.00, -1.00, 572.1, 909.0)">u</text><text xml:space="preserve" font-family="Helvetica-Bold" font-weight="bold" font-size="50.0" fill="#000000" transform="matrix(1.00, 0.00, -0.00, -1.00, 602.7, 909.0)">i</text><text xml:space="preserve" font-family="Helvetica-Bold" font-weight="bold" font-size="50.0" fill="#000000" transform="matrix(1.00, 0.00, -0.00, -1.00, 616.6, 909.0)">l</text><text xml:space="preserve" font-family="Helvetica-Bold" font-weight="bold" font-size="50.0" fill="#000000" transform="matrix(1.00, 0.00, -0.00, -1.00, 630.5, 909.0)">d</text><text xml:space="preserve" font-family="Helvetica-Bold" font-weight="bold" font-size="50.0" fill="#000000" transform="matrix(1.00, 0.00, -0.00, -1.00, 661.0, 909.0)"> </text><text xml:space="preserve" font-family="Helvetica-Bold" font-weight="bold" font-size="50.0" fill="#000000" transform="matrix(1.00, 0.00, -0.00, -1.00, 674.9, 909.0)">T</text><text xml:space="preserve" font-family="Helvetica-Bold" font-weight="bold" font-size="50.0" fill="#000000" transform="matrix(1.00, 0.00, -0.00, -1.00, 704.6, 909.0)">i</text><text xml:space="preserve" font-family="Helvetica-Bold" font-weight="bold" font-size="50.0" fill="#000000" transform="matrix(1.00, 0.00, -0.00, -1.00, 718.5, 909.0)">m</text><text xml:space="preserve" font-family="Helvetica-Bold" font-weight="bold" font-size="50.0" fill="#000000" transform="matrix(1.00, 0.00, -0.00, -1.00, 762.9, 909.0)">e</text><text xml:space="preserve" font-family="Helvetica-Bold" font-weight="bold" font-size="50.0" fill="#000000" transform="matrix(1.00, 0.00, -0.00, -1.00, 1181.0, 909.0)">D</text><text xml:space="preserve" font-family="Helvetica-Bold" font-weight="bold" font-size="50.0" fill="#000000" transform="matrix(1.00, 0.00, -0.00, -1.00, 1217.1, 909.0)">e</text><text xml:space="preserve" font-family="Helvetica-Bold" font-weight="bold" font-size="50.0" fill="#000000" transform="matrix(1.00, 0.00, -0.00, -1.00, 1244.9, 909.0)">p</text><text xml:space="preserve" font-family="Helvetica-Bold" font-weight="bold" font-size="50.0" fill="#000000" transform="matrix(1.00, 0.00, -0.00, -1.00, 1275.5, 909.0)">l</text><text xml:space="preserve" font-family="Helvetica-Bold" font-weight="bold" font-size="50.0" fill="#000000" transform="matrix(1.00, 0.00, -0.00, -1.00, 1289.4, 909.0)">o</text><text xml:space="preserve" font-family="Helvetica-Bold" font-weight="bold" font-size="50.0" fill="#000000" transform="matrix(1.00, 0.00, -0.00, -1.00, 1319.9, 909.0)">y</text><text xml:space="preserve" font-family="Helvetica-Bold" font-weight="bold" font-size="50.0" fill="#000000" transform="matrix(1.00, 0.00, -0.00, -1.00, 1347.8, 909.0)"> </text><text xml:space="preserve" font-family="Helvetica-Bold" font-weight="bold" font-size="50.0" fill="#000000" transform="matrix(1.00, 0.00, -0.00, -1.00, 1361.7, 909.0)">T</text><text xml:space="preserve" font-family="Helvetica-Bold" font-weight="bold" font-size="50.0" fill="#000000" transform="matrix(1.00, 0.00, -0.00, -1.00, 1391.3, 909.0)">i</text><text xml:space="preserve" font-family="Helvetica-Bold" font-weight="bold" font-size="50.0" fill="#000000" transform="matrix(1.00, 0.00, -0.00, -1.00, 1405.2, 909.0)">m</text><text xml:space="preserve" font-family="Helvetica-Bold" font-weight="bold" font-size="50.0" fill="#000000" transform="matrix(1.00, 0.00, -0.00, -1.00, 1449.7, 909.0)">e</text><path d="M 0.0 0.0 L 958.9 0.0 " fill="none" stroke="#000000" stroke-width="4.00" stroke-linecap="round" stroke-dasharray="0.0, 12.0" transform="matrix(0.00, 1.00, 1.00, 0.00, 960.0, 11.4)"></path><path d="M 0.0 0.0 L 1185.4 0.0 L 1190.9 0.0 " fill="none" stroke="#000000" stroke-width="11.00" transform="matrix(1.00, 0.00, 0.00, -1.00, 359.0, 490.9)"></path><path d="M 1544.3 469.9 L 1586.3 490.9 L 1544.3 511.9 Z M 1544.3 469.9 " fill="#000000"></path><image xlink:href="../../06EDFFF8-22B7-4C35-8C87-1C6D4D87C4D8/assets/ED07000B2351BAFFD4F06C3A081ED8F4.png" width="127.00" height="101.00" transform="matrix(1.00, 0.00, -0.00, -1.00, 605.5, 538.8)" opacity="0.50"></image><path d="M 609.5 538.8 L 728.1 538.8 L 728.1 445.6 L 609.5 445.6 Z M 609.5 538.8 " fill="#51A7F9"></path><g><clipPath id="clip-492"><path d="M 609.5 445.6 L 728.1 445.6 L 728.1 538.8 L 609.5 538.8 Z M 609.5 445.6 "></path></clipPath><g clip-path="url(#clip-492)"><text xml:space="preserve" font-family="Helvetica-Bold" font-weight="bold" font-size="16.0" fill="#FEFFFE" transform="matrix(1.00, 0.00, -0.00, -1.00, 649.0, 496.0)">B</text><text xml:space="preserve" font-family="Helvetica-Bold" font-weight="bold" font-size="16.0" fill="#FEFFFE" transform="matrix(1.00, 0.00, -0.00, -1.00, 660.6, 496.0)">u</text><text xml:space="preserve" font-family="Helvetica-Bold" font-weight="bold" font-size="16.0" fill="#FEFFFE" transform="matrix(1.00, 0.00, -0.00, -1.00, 670.3, 496.0)">i</text><text xml:space="preserve" font-family="Helvetica-Bold" font-weight="bold" font-size="16.0" fill="#FEFFFE" transform="matrix(1.00, 0.00, -0.00, -1.00, 674.8, 496.0)">l</text><text xml:space="preserve" font-family="Helvetica-Bold" font-weight="bold" font-size="16.0" fill="#FEFFFE" transform="matrix(1.00, 0.00, -0.00, -1.00, 679.2, 496.0)">d</text><text xml:space="preserve" font-family="Helvetica-Bold" font-weight="bold" font-size="16.0" fill="#FEFFFE" transform="matrix(1.00, 0.00, -0.00, -1.00, 637.0, 477.0)">C</text><text xml:space="preserve" font-family="Helvetica-Bold" font-weight="bold" font-size="16.0" fill="#FEFFFE" transform="matrix(1.00, 0.00, -0.00, -1.00, 648.6, 477.0)">o</text><text xml:space="preserve" font-family="Helvetica-Bold" font-weight="bold" font-size="16.0" fill="#FEFFFE" transform="matrix(1.00, 0.00, -0.00, -1.00, 658.3, 477.0)">n</text><text xml:space="preserve" font-family="Helvetica-Bold" font-weight="bold" font-size="16.0" fill="#FEFFFE" transform="matrix(1.00, 0.00, -0.00, -1.00, 668.1, 477.0)">s</text><text xml:space="preserve" font-family="Helvetica-Bold" font-weight="bold" font-size="16.0" fill="#FEFFFE" transform="matrix(1.00, 0.00, -0.00, -1.00, 677.0, 477.0)">o</text><text xml:space="preserve" font-family="Helvetica-Bold" font-weight="bold" font-size="16.0" fill="#FEFFFE" transform="matrix(1.00, 0.00, -0.00, -1.00, 686.8, 477.0)">l</text><text xml:space="preserve" font-family="Helvetica-Bold" font-weight="bold" font-size="16.0" fill="#FEFFFE" transform="matrix(1.00, 0.00, -0.00, -1.00, 691.2, 477.0)">e</text></g></g><g><clipPath id="clip-493"><path d="M 342.5 442.9 L 440.8 442.9 L 440.8 541.2 L 342.5 541.2 Z M 342.5 442.9 "></path></clipPath><g clip-path="url(#clip-493)"><path d="M 343.5 540.2 L 439.8 540.2 L 439.8 443.9 L 343.5 443.9 Z M 343.5 540.2 " fill="#51A7F9"></path></g></g><g><clipPath id="clip-494"><path d="M 338.5 515.5 L 444.8 515.5 L 444.8 558.0 L 338.5 558.0 Z M 338.5 515.5 "></path></clipPath><g clip-path="url(#clip-494)"><image xlink:href="../../06EDFFF8-22B7-4C35-8C87-1C6D4D87C4D8/assets/01A5284ACC15E701D59E964B12AC8551.png" width="104.00" height="40.00" transform="matrix(1.00, 0.00, -0.00, -1.01, 339.5, 557.0)" opacity="0.50"></image><path d="M 425.7 550.2 C 444.5 543.9 444.5 533.6 425.7 527.3 C 406.9 521.0 376.4 521.0 357.6 527.3 C 338.8 533.6 338.8 543.9 357.6 550.2 C 376.4 556.5 406.9 556.5 425.7 550.2 Z M 425.7 550.2 " fill="#51A7F9"></path></g></g><g><clipPath id="clip-495"><path d="M 338.5 419.4 L 444.8 419.4 L 444.8 462.8 L 338.5 462.8 Z M 338.5 419.4 "></path></clipPath><g clip-path="url(#clip-495)"><image xlink:href="../../06EDFFF8-22B7-4C35-8C87-1C6D4D87C4D8/assets/01A5284ACC15E701D59E964B12AC8551.png" width="104.00" height="40.00" transform="matrix(1.00, 0.00, -0.00, -1.01, 339.5, 460.8)" opacity="0.50"></image><path d="M 425.7 457.1 C 444.5 450.8 444.5 440.5 425.7 434.2 C 406.9 427.8 376.4 427.8 357.6 434.2 C 338.8 440.5 338.8 450.8 357.6 457.1 C 376.4 463.4 406.9 463.4 425.7 457.1 Z M 425.7 457.1 " fill="#51A7F9"></path></g></g><g><clipPath id="clip-496"><path d="M 356.2 460.8 L 486.9 460.8 L 486.9 510.1 L 356.2 510.1 Z M 356.2 460.8 "></path></clipPath><g clip-path="url(#clip-496)"><text xml:space="preserve" font-family="Helvetica-Bold" font-weight="bold" font-size="16.0" fill="#FEFFFF" transform="matrix(1.00, 0.00, -0.00, -1.00, 365.0, 489.0)">S</text><text xml:space="preserve" font-family="Helvetica-Bold" font-weight="bold" font-size="16.0" fill="#FEFFFF" transform="matrix(1.00, 0.00, -0.00, -1.00, 375.7, 489.0)">o</text><text xml:space="preserve" font-family="Helvetica-Bold" font-weight="bold" font-size="16.0" fill="#FEFFFF" transform="matrix(1.00, 0.00, -0.00, -1.00, 385.4, 489.0)">u</text><text xml:space="preserve" font-family="Helvetica-Bold" font-weight="bold" font-size="16.0" fill="#FEFFFF" transform="matrix(1.00, 0.00, -0.00, -1.00, 395.2, 489.0)">r</text><text xml:space="preserve" font-family="Helvetica-Bold" font-weight="bold" font-size="16.0" fill="#FEFFFF" transform="matrix(1.00, 0.00, -0.00, -1.00, 401.4, 489.0)">c</text><text xml:space="preserve" font-family="Helvetica-Bold" font-weight="bold" font-size="16.0" fill="#FEFFFF" transform="matrix(1.00, 0.00, -0.00, -1.00, 410.3, 489.0)">e</text><text xml:space="preserve" font-family="Helvetica-Bold" font-weight="bold" font-size="16.0" fill="#FEFFFF" transform="matrix(1.00, 0.00, -0.00, -1.00, 372.0, 470.0)">R</text><text xml:space="preserve" font-family="Helvetica-Bold" font-weight="bold" font-size="16.0" fill="#FEFFFF" transform="matrix(1.00, 0.00, -0.00, -1.00, 383.6, 470.0)">e</text><text xml:space="preserve" font-family="Helvetica-Bold" font-weight="bold" font-size="16.0" fill="#FEFFFF" transform="matrix(1.00, 0.00, -0.00, -1.00, 392.5, 470.0)">p</text><text xml:space="preserve" font-family="Helvetica-Bold" font-weight="bold" font-size="16.0" fill="#FEFFFF" transform="matrix(1.00, 0.00, -0.00, -1.00, 402.2, 470.0)">o</text></g></g><g><clipPath id="clip-497"><path d="M 910.8 442.9 L 1009.2 442.9 L 1009.2 541.2 L 910.8 541.2 Z M 910.8 442.9 "></path></clipPath><g clip-path="url(#clip-497)"><path d="M 911.8 540.2 L 1008.2 540.2 L 1008.2 443.9 L 911.8 443.9 Z M 911.8 540.2 " fill="#51A7F9"></path></g></g><g><clipPath id="clip-498"><path d="M 906.8 515.5 L 1013.2 515.5 L 1013.2 558.0 L 906.8 558.0 Z M 906.8 515.5 "></path></clipPath><g clip-path="url(#clip-498)"><image xlink:href="../../06EDFFF8-22B7-4C35-8C87-1C6D4D87C4D8/assets/01A5284ACC15E701D59E964B12AC8551.png" width="104.00" height="40.00" transform="matrix(1.00, 0.00, -0.00, -1.01, 907.8, 557.0)" opacity="0.50"></image><path d="M 994.1 550.2 C 1012.9 543.9 1012.9 533.6 994.1 527.3 C 975.2 521.0 944.8 521.0 925.9 527.3 C 907.1 533.6 907.1 543.9 925.9 550.2 C 944.8 556.5 975.2 556.5 994.1 550.2 Z M 994.1 550.2 " fill="#51A7F9"></path></g></g><g><clipPath id="clip-499"><path d="M 906.8 419.4 L 1013.2 419.4 L 1013.2 462.8 L 906.8 462.8 Z M 906.8 419.4 "></path></clipPath><g clip-path="url(#clip-499)"><image xlink:href="../../06EDFFF8-22B7-4C35-8C87-1C6D4D87C4D8/assets/01A5284ACC15E701D59E964B12AC8551.png" width="104.00" height="40.00" transform="matrix(1.00, 0.00, -0.00, -1.01, 907.8, 460.8)" opacity="0.50"></image><path d="M 994.1 457.1 C 1012.9 450.8 1012.9 440.5 994.1 434.2 C 975.2 427.8 944.8 427.8 925.9 434.2 C 907.1 440.5 907.1 450.8 925.9 457.1 C 944.8 463.4 975.2 463.4 994.1 457.1 Z M 994.1 457.1 " fill="#51A7F9"></path></g></g><g><clipPath id="clip-500"><path d="M 919.2 460.8 L 1071.3 460.8 L 1071.3 510.1 L 919.2 510.1 Z M 919.2 460.8 "></path></clipPath><g clip-path="url(#clip-500)"><text xml:space="preserve" font-family="Helvetica-Bold" font-weight="bold" font-size="16.0" fill="#FEFFFF" transform="matrix(1.00, 0.00, -0.00, -1.00, 928.0, 489.0)">P</text><text xml:space="preserve" font-family="Helvetica-Bold" font-weight="bold" font-size="16.0" fill="#FEFFFF" transform="matrix(1.00, 0.00, -0.00, -1.00, 938.7, 489.0)">a</text><text xml:space="preserve" font-family="Helvetica-Bold" font-weight="bold" font-size="16.0" fill="#FEFFFF" transform="matrix(1.00, 0.00, -0.00, -1.00, 947.6, 489.0)">c</text><text xml:space="preserve" font-family="Helvetica-Bold" font-weight="bold" font-size="16.0" fill="#FEFFFF" transform="matrix(1.00, 0.00, -0.00, -1.00, 956.5, 489.0)">k</text><text xml:space="preserve" font-family="Helvetica-Bold" font-weight="bold" font-size="16.0" fill="#FEFFFF" transform="matrix(1.00, 0.00, -0.00, -1.00, 965.4, 489.0)">a</text><text xml:space="preserve" font-family="Helvetica-Bold" font-weight="bold" font-size="16.0" fill="#FEFFFF" transform="matrix(1.00, 0.00, -0.00, -1.00, 974.3, 489.0)">g</text><text xml:space="preserve" font-family="Helvetica-Bold" font-weight="bold" font-size="16.0" fill="#FEFFFF" transform="matrix(1.00, 0.00, -0.00, -1.00, 984.0, 489.0)">e</text><text xml:space="preserve" font-family="Helvetica-Bold" font-weight="bold" font-size="16.0" fill="#FEFFFF" transform="matrix(1.00, 0.00, -0.00, -1.00, 940.0, 470.0)">R</text><text xml:space="preserve" font-family="Helvetica-Bold" font-weight="bold" font-size="16.0" fill="#FEFFFF" transform="matrix(1.00, 0.00, -0.00, -1.00, 951.6, 470.0)">e</text><text xml:space="preserve" font-family="Helvetica-Bold" font-weight="bold" font-size="16.0" fill="#FEFFFF" transform="matrix(1.00, 0.00, -0.00, -1.00, 960.5, 470.0)">p</text><text xml:space="preserve" font-family="Helvetica-Bold" font-weight="bold" font-size="16.0" fill="#FEFFFF" transform="matrix(1.00, 0.00, -0.00, -1.00, 970.2, 470.0)">o</text></g></g><image xlink:href="../../06EDFFF8-22B7-4C35-8C87-1C6D4D87C4D8/assets/ED07000B2351BAFFD4F06C3A081ED8F4.png" width="127.00" height="101.00" transform="matrix(1.00, 0.00, -0.00, -1.00, 1087.1, 538.8)" opacity="0.50"></image><path d="M 1091.1 538.8 L 1209.7 538.8 L 1209.7 445.6 L 1091.1 445.6 Z M 1091.1 538.8 " fill="#51A7F9"></path><g><clipPath id="clip-501"><path d="M 1091.1 445.6 L 1209.7 445.6 L 1209.7 538.8 L 1091.1 538.8 Z M 1091.1 445.6 "></path></clipPath><g clip-path="url(#clip-501)"><text xml:space="preserve" font-family="Helvetica-Bold" font-weight="bold" font-size="16.0" fill="#FEFFFE" transform="matrix(1.00, 0.00, -0.00, -1.00, 1105.0, 496.0)">D</text><text xml:space="preserve" font-family="Helvetica-Bold" font-weight="bold" font-size="16.0" fill="#FEFFFE" transform="matrix(1.00, 0.00, -0.00, -1.00, 1116.6, 496.0)">e</text><text xml:space="preserve" font-family="Helvetica-Bold" font-weight="bold" font-size="16.0" fill="#FEFFFE" transform="matrix(1.00, 0.00, -0.00, -1.00, 1125.5, 496.0)">p</text><text xml:space="preserve" font-family="Helvetica-Bold" font-weight="bold" font-size="16.0" fill="#FEFFFE" transform="matrix(1.00, 0.00, -0.00, -1.00, 1135.2, 496.0)">l</text><text xml:space="preserve" font-family="Helvetica-Bold" font-weight="bold" font-size="16.0" fill="#FEFFFE" transform="matrix(1.00, 0.00, -0.00, -1.00, 1139.7, 496.0)">o</text><text xml:space="preserve" font-family="Helvetica-Bold" font-weight="bold" font-size="16.0" fill="#FEFFFE" transform="matrix(1.00, 0.00, -0.00, -1.00, 1149.5, 496.0)">y</text><text xml:space="preserve" font-family="Helvetica-Bold" font-weight="bold" font-size="16.0" fill="#FEFFFE" transform="matrix(1.00, 0.00, -0.00, -1.00, 1158.4, 496.0)">m</text><text xml:space="preserve" font-family="Helvetica-Bold" font-weight="bold" font-size="16.0" fill="#FEFFFE" transform="matrix(1.00, 0.00, -0.00, -1.00, 1172.6, 496.0)">e</text><text xml:space="preserve" font-family="Helvetica-Bold" font-weight="bold" font-size="16.0" fill="#FEFFFE" transform="matrix(1.00, 0.00, -0.00, -1.00, 1181.5, 496.0)">n</text><text xml:space="preserve" font-family="Helvetica-Bold" font-weight="bold" font-size="16.0" fill="#FEFFFE" transform="matrix(1.00, 0.00, -0.00, -1.00, 1191.3, 496.0)">t</text><text xml:space="preserve" font-family="Helvetica-Bold" font-weight="bold" font-size="16.0" fill="#FEFFFE" transform="matrix(1.00, 0.00, -0.00, -1.00, 1119.0, 477.0)">C</text><text xml:space="preserve" font-family="Helvetica-Bold" font-weight="bold" font-size="16.0" fill="#FEFFFE" transform="matrix(1.00, 0.00, -0.00, -1.00, 1130.6, 477.0)">o</text><text xml:space="preserve" font-family="Helvetica-Bold" font-weight="bold" font-size="16.0" fill="#FEFFFE" transform="matrix(1.00, 0.00, -0.00, -1.00, 1140.3, 477.0)">n</text><text xml:space="preserve" font-family="Helvetica-Bold" font-weight="bold" font-size="16.0" fill="#FEFFFE" transform="matrix(1.00, 0.00, -0.00, -1.00, 1150.1, 477.0)">s</text><text xml:space="preserve" font-family="Helvetica-Bold" font-weight="bold" font-size="16.0" fill="#FEFFFE" transform="matrix(1.00, 0.00, -0.00, -1.00, 1159.0, 477.0)">o</text><text xml:space="preserve" font-family="Helvetica-Bold" font-weight="bold" font-size="16.0" fill="#FEFFFE" transform="matrix(1.00, 0.00, -0.00, -1.00, 1168.8, 477.0)">l</text><text xml:space="preserve" font-family="Helvetica-Bold" font-weight="bold" font-size="16.0" fill="#FEFFFE" transform="matrix(1.00, 0.00, -0.00, -1.00, 1173.2, 477.0)">e</text></g></g><image xlink:href="../../06EDFFF8-22B7-4C35-8C87-1C6D4D87C4D8/assets/ED07000B2351BAFFD4F06C3A081ED8F4.png" width="127.00" height="101.00" transform="matrix(1.00, 0.00, -0.00, -1.00, 1277.5, 538.8)" opacity="0.50"></image><path d="M 1281.5 538.8 L 1400.2 538.8 L 1400.2 445.6 L 1281.5 445.6 Z M 1281.5 538.8 " fill="#51A7F9"></path><g><clipPath id="clip-502"><path d="M 1281.5 445.6 L 1400.1 445.6 L 1400.1 538.8 L 1281.5 538.8 Z M 1281.5 445.6 "></path></clipPath><g clip-path="url(#clip-502)"><text xml:space="preserve" font-family="Helvetica-Bold" font-weight="bold" font-size="16.0" fill="#FEFFFE" transform="matrix(1.00, 0.00, -0.00, -1.00, 1304.0, 496.0)">R</text><text xml:space="preserve" font-family="Helvetica-Bold" font-weight="bold" font-size="16.0" fill="#FEFFFE" transform="matrix(1.00, 0.00, -0.00, -1.00, 1315.6, 496.0)">e</text><text xml:space="preserve" font-family="Helvetica-Bold" font-weight="bold" font-size="16.0" fill="#FEFFFE" transform="matrix(1.00, 0.00, -0.00, -1.00, 1324.5, 496.0)">s</text><text xml:space="preserve" font-family="Helvetica-Bold" font-weight="bold" font-size="16.0" fill="#FEFFFE" transform="matrix(1.00, 0.00, -0.00, -1.00, 1333.4, 496.0)">o</text><text xml:space="preserve" font-family="Helvetica-Bold" font-weight="bold" font-size="16.0" fill="#FEFFFE" transform="matrix(1.00, 0.00, -0.00, -1.00, 1343.1, 496.0)">u</text><text xml:space="preserve" font-family="Helvetica-Bold" font-weight="bold" font-size="16.0" fill="#FEFFFE" transform="matrix(1.00, 0.00, -0.00, -1.00, 1352.9, 496.0)">r</text><text xml:space="preserve" font-family="Helvetica-Bold" font-weight="bold" font-size="16.0" fill="#FEFFFE" transform="matrix(1.00, 0.00, -0.00, -1.00, 1359.1, 496.0)">c</text><text xml:space="preserve" font-family="Helvetica-Bold" font-weight="bold" font-size="16.0" fill="#FEFFFE" transform="matrix(1.00, 0.00, -0.00, -1.00, 1368.0, 496.0)">e</text><text xml:space="preserve" font-family="Helvetica-Bold" font-weight="bold" font-size="16.0" fill="#FEFFFE" transform="matrix(1.00, 0.00, -0.00, -1.00, 1318.0, 477.0)">M</text><text xml:space="preserve" font-family="Helvetica-Bold" font-weight="bold" font-size="16.0" fill="#FEFFFE" transform="matrix(1.00, 0.00, -0.00, -1.00, 1331.3, 477.0)">o</text><text xml:space="preserve" font-family="Helvetica-Bold" font-weight="bold" font-size="16.0" fill="#FEFFFE" transform="matrix(1.00, 0.00, -0.00, -1.00, 1341.1, 477.0)">d</text><text xml:space="preserve" font-family="Helvetica-Bold" font-weight="bold" font-size="16.0" fill="#FEFFFE" transform="matrix(1.00, 0.00, -0.00, -1.00, 1350.9, 477.0)">e</text><text xml:space="preserve" font-family="Helvetica-Bold" font-weight="bold" font-size="16.0" fill="#FEFFFE" transform="matrix(1.00, 0.00, -0.00, -1.00, 1359.8, 477.0)">l</text></g></g><image xlink:href="../../06EDFFF8-22B7-4C35-8C87-1C6D4D87C4D8/assets/ED07000B2351BAFFD4F06C3A081ED8F4.png" width="127.00" height="101.00" transform="matrix(1.00, 0.00, -0.00, -1.00, 1468.0, 538.8)" opacity="0.50"></image><path d="M 1472.0 538.8 L 1590.6 538.8 L 1590.6 445.6 L 1472.0 445.6 Z M 1472.0 538.8 " fill="#51A7F9"></path><g><clipPath id="clip-503"><path d="M 1472.0 445.6 L 1590.6 445.6 L 1590.6 538.8 L 1472.0 538.8 Z M 1472.0 445.6 "></path></clipPath><g clip-path="url(#clip-503)"><text xml:space="preserve" font-family="Helvetica-Bold" font-weight="bold" font-size="16.0" fill="#FEFFFE" transform="matrix(1.00, 0.00, -0.00, -1.00, 1495.0, 496.0)">R</text><text xml:space="preserve" font-family="Helvetica-Bold" font-weight="bold" font-size="16.0" fill="#FEFFFE" transform="matrix(1.00, 0.00, -0.00, -1.00, 1506.6, 496.0)">e</text><text xml:space="preserve" font-family="Helvetica-Bold" font-weight="bold" font-size="16.0" fill="#FEFFFE" transform="matrix(1.00, 0.00, -0.00, -1.00, 1515.5, 496.0)">s</text><text xml:space="preserve" font-family="Helvetica-Bold" font-weight="bold" font-size="16.0" fill="#FEFFFE" transform="matrix(1.00, 0.00, -0.00, -1.00, 1524.4, 496.0)">o</text><text xml:space="preserve" font-family="Helvetica-Bold" font-weight="bold" font-size="16.0" fill="#FEFFFE" transform="matrix(1.00, 0.00, -0.00, -1.00, 1534.1, 496.0)">u</text><text xml:space="preserve" font-family="Helvetica-Bold" font-weight="bold" font-size="16.0" fill="#FEFFFE" transform="matrix(1.00, 0.00, -0.00, -1.00, 1543.9, 496.0)">r</text><text xml:space="preserve" font-family="Helvetica-Bold" font-weight="bold" font-size="16.0" fill="#FEFFFE" transform="matrix(1.00, 0.00, -0.00, -1.00, 1550.1, 496.0)">c</text><text xml:space="preserve" font-family="Helvetica-Bold" font-weight="bold" font-size="16.0" fill="#FEFFFE" transform="matrix(1.00, 0.00, -0.00, -1.00, 1559.0, 496.0)">e</text><text xml:space="preserve" font-family="Helvetica-Bold" font-weight="bold" font-size="16.0" fill="#FEFFFE" transform="matrix(1.00, 0.00, -0.00, -1.00, 1498.0, 477.0)">M</text><text xml:space="preserve" font-family="Helvetica-Bold" font-weight="bold" font-size="16.0" fill="#FEFFFE" transform="matrix(1.00, 0.00, -0.00, -1.00, 1511.3, 477.0)">a</text><text xml:space="preserve" font-family="Helvetica-Bold" font-weight="bold" font-size="16.0" fill="#FEFFFE" transform="matrix(1.00, 0.00, -0.00, -1.00, 1520.2, 477.0)">n</text><text xml:space="preserve" font-family="Helvetica-Bold" font-weight="bold" font-size="16.0" fill="#FEFFFE" transform="matrix(1.00, 0.00, -0.00, -1.00, 1530.0, 477.0)">a</text><text xml:space="preserve" font-family="Helvetica-Bold" font-weight="bold" font-size="16.0" fill="#FEFFFE" transform="matrix(1.00, 0.00, -0.00, -1.00, 1538.9, 477.0)">g</text><text xml:space="preserve" font-family="Helvetica-Bold" font-weight="bold" font-size="16.0" fill="#FEFFFE" transform="matrix(1.00, 0.00, -0.00, -1.00, 1548.7, 477.0)">e</text><text xml:space="preserve" font-family="Helvetica-Bold" font-weight="bold" font-size="16.0" fill="#FEFFFE" transform="matrix(1.00, 0.00, -0.00, -1.00, 1557.6, 477.0)">r</text></g></g><image xlink:href="../../06EDFFF8-22B7-4C35-8C87-1C6D4D87C4D8/assets/E3D486098B10EFEDDCFEA3262992C199.png" width="97.00" height="40.00" transform="matrix(0.99, 0.00, -0.00, -1.00, 344.0, 757.0)"></image><image xlink:href="../../06EDFFF8-22B7-4C35-8C87-1C6D4D87C4D8/assets/E3D486098B10EFEDDCFEA3262992C199.png" width="97.00" height="40.00" transform="matrix(1.00, 0.00, -0.00, -1.00, 343.0, 262.0)"></image><image xlink:href="../../634B55AC-2290-4440-BDC7-74632B2ACCE4/assets/31FC516B1E10715FFD92273D53A4C3DF.png" width="248.00" height="153.00" transform="matrix(0.66, 0.00, -0.00, -0.66, 878.0, 292.0)"></image><image xlink:href="../../634B55AC-2290-4440-BDC7-74632B2ACCE4/assets/31FC516B1E10715FFD92273D53A4C3DF.png" width="248.00" height="153.00" transform="matrix(0.66, 0.00, -0.00, -0.66, 878.0, 797.0)"></image><g><clipPath id="clip-504"><path d="M 1114.6 649.5 L 1186.3 649.5 L 1186.3 721.2 L 1114.6 721.2 Z M 1114.6 649.5 "></path></clipPath><g clip-path="url(#clip-504)"><image xlink:href="../../06EDFFF8-22B7-4C35-8C87-1C6D4D87C4D8/assets/03A35A087B4FF845FDD1F19A95816900.png" width="72.00" height="72.00" transform="matrix(0.99, 0.00, -0.00, -1.00, 1115.0, 721.0)"></image></g></g><g><clipPath id="clip-505"><path d="M 1058.6 742.1 L 1242.4 742.1 L 1242.4 786.0 L 1058.6 786.0 Z M 1058.6 742.1 "></path></clipPath><g clip-path="url(#clip-505)"><image xlink:href="../../06EDFFF8-22B7-4C35-8C87-1C6D4D87C4D8/assets/962A2FD86E60121960E74A01ADFF61F6.png" width="184.00" height="44.00" transform="matrix(0.99, 0.00, -0.00, -1.00, 1059.0, 786.0)"></image></g></g><g><clipPath id="clip-506"><path d="M 1114.6 166.6 L 1186.3 166.6 L 1186.3 238.3 L 1114.6 238.3 Z M 1114.6 166.6 "></path></clipPath><g clip-path="url(#clip-506)"><image xlink:href="../../06EDFFF8-22B7-4C35-8C87-1C6D4D87C4D8/assets/03A35A087B4FF845FDD1F19A95816900.png" width="72.00" height="72.00" transform="matrix(0.99, 0.00, -0.00, -0.99, 1115.0, 238.0)"></image></g></g><g><clipPath id="clip-507"><path d="M 1058.5 259.2 L 1242.3 259.2 L 1242.3 303.1 L 1058.5 303.1 Z M 1058.5 259.2 "></path></clipPath><g clip-path="url(#clip-507)"><image xlink:href="../../06EDFFF8-22B7-4C35-8C87-1C6D4D87C4D8/assets/962A2FD86E60121960E74A01ADFF61F6.png" width="184.00" height="44.00" transform="matrix(0.99, 0.00, -0.00, -1.00, 1059.0, 303.0)"></image></g></g><image xlink:href="../../06EDFFF8-22B7-4C35-8C87-1C6D4D87C4D8/assets/48612AA372454E7CF7AA2257CD722800.png" width="102.00" height="102.00" transform="matrix(1.00, 0.00, -0.00, -1.00, 1290.0, 776.0)"></image><image xlink:href="../../06EDFFF8-22B7-4C35-8C87-1C6D4D87C4D8/assets/48612AA372454E7CF7AA2257CD722800.png" width="102.00" height="102.00" transform="matrix(0.99, 0.00, -0.00, -0.99, 1481.0, 777.0)"></image><g><clipPath id="clip-508"><path d="M 1480.3 234.0 L 1608.5 234.0 L 1608.5 282.0 L 1480.3 282.0 Z M 1480.3 234.0 "></path></clipPath><g clip-path="url(#clip-508)"><image xlink:href="../../06EDFFF8-22B7-4C35-8C87-1C6D4D87C4D8/assets/4B43AD6AC6CB16F268652EDFF46056B4.png" width="129.00" height="48.00" transform="matrix(1.00, 0.00, -0.00, -1.00, 1480.0, 282.0)"></image></g></g><g><clipPath id="clip-509"><path d="M 1489.9 137.0 L 1572.7 137.0 L 1572.7 219.9 L 1489.9 219.9 Z M 1489.9 137.0 "></path></clipPath><g clip-path="url(#clip-509)"><image xlink:href="../../06EDFFF8-22B7-4C35-8C87-1C6D4D87C4D8/assets/684FF8B89364D86D1FD3A7FA02F8116C.png" width="83.00" height="83.00" transform="matrix(1.00, 0.00, -0.00, -1.00, 1490.0, 220.0)"></image></g></g><g><clipPath id="clip-510"><path d="M 1305.0 238.5 L 1376.7 238.5 L 1376.7 310.2 L 1305.0 310.2 Z M 1305.0 238.5 "></path></clipPath><g clip-path="url(#clip-510)"><image xlink:href="../../9E1278D0-C03A-4F94-BE6D-21F79C517797/assets/5379528CE27934E22AC04F6D22D03AE5.png" width="169.00" height="169.00" transform="matrix(0.43, 0.00, -0.00, -0.42, 1305.0, 310.0)"></image></g></g><g><clipPath id="clip-511"><path d="M 1299.4 135.4 L 1382.2 135.4 L 1382.2 218.3 L 1299.4 218.3 Z M 1299.4 135.4 "></path></clipPath><g clip-path="url(#clip-511)"><image xlink:href="../../06EDFFF8-22B7-4C35-8C87-1C6D4D87C4D8/assets/259275F28BB2E091B5CE0E384003E90B.png" width="83.00" height="83.00" transform="matrix(1.00, 0.00, -0.00, -1.00, 1299.0, 218.0)"></image></g></g><g><clipPath id="clip-512"><path d="M 635.2 673.9 L 702.5 673.9 L 702.5 767.1 L 635.2 767.1 Z M 635.2 673.9 "></path></clipPath><g clip-path="url(#clip-512)"><image xlink:href="../../06EDFFF8-22B7-4C35-8C87-1C6D4D87C4D8/assets/4863415EB94DF3467532737728CEBDFF.png" width="67.00" height="94.00" transform="matrix(1.01, 0.00, -0.00, -0.99, 635.0, 767.0)"></image></g></g><g><clipPath id="clip-513"><path d="M 664.0 690.0 L 758.0 690.0 L 758.0 636.0 L 664.0 636.0 Z M 663.9 689.6 "></path></clipPath><g clip-path="url(#clip-513)"><g><clipPath id="clip-514"><path d="M 663.9 635.5 L 757.6 635.5 L 757.6 689.6 L 663.9 689.6 Z M 663.9 635.5 "></path></clipPath><g clip-path="url(#clip-514)"><image xlink:href="../../634B55AC-2290-4440-BDC7-74632B2ACCE4/assets/9B2D3676644A9A2956695ABA87C57C6F.png" width="145.00" height="122.00" transform="matrix(0.65, 0.00, -0.00, -0.65, 664.0, 690.0)"></image></g></g></g></g><g><clipPath id="clip-515"><path d="M 635.1 195.1 L 702.5 195.1 L 702.5 288.3 L 635.1 288.3 Z M 635.1 195.1 "></path></clipPath><g clip-path="url(#clip-515)"><image xlink:href="../../06EDFFF8-22B7-4C35-8C87-1C6D4D87C4D8/assets/4863415EB94DF3467532737728CEBDFF.png" width="67.00" height="94.00" transform="matrix(1.00, 0.00, -0.00, -0.99, 635.0, 288.0)"></image></g></g><g><clipPath id="clip-516"><path d="M 660.0 109.0 L 761.5 109.0 L 761.5 210.5 L 660.0 210.5 Z M 660.0 109.0 "></path></clipPath><g clip-path="url(#clip-516)"><image xlink:href="../../634B55AC-2290-4440-BDC7-74632B2ACCE4/assets/1E8C5ABB0ABA939827D543803FF285EB.png" width="193.00" height="193.00" transform="matrix(0.53, 0.00, -0.00, -0.52, 660.0, 210.0)"></image></g></g><text xml:space="preserve" font-family="Helvetica-Bold" font-weight="bold" font-size="56.0" fill="#000000" transform="matrix(1.00, 0.00, -0.00, -1.00, 512.0, 1006.0)">S</text><text xml:space="preserve" font-family="Helvetica-Bold" font-weight="bold" font-size="56.0" fill="#000000" transform="matrix(1.00, 0.00, -0.00, -1.00, 549.4, 1006.0)">e</text><text xml:space="preserve" font-family="Helvetica-Bold" font-weight="bold" font-size="56.0" fill="#000000" transform="matrix(1.00, 0.00, -0.00, -1.00, 580.5, 1006.0)">r</text><text xml:space="preserve" font-family="Helvetica-Bold" font-weight="bold" font-size="56.0" fill="#000000" transform="matrix(1.00, 0.00, -0.00, -1.00, 602.3, 1006.0)">v</text><text xml:space="preserve" font-family="Helvetica-Bold" font-weight="bold" font-size="56.0" fill="#000000" transform="matrix(1.00, 0.00, -0.00, -1.00, 633.5, 1006.0)">i</text><text xml:space="preserve" font-family="Helvetica-Bold" font-weight="bold" font-size="56.0" fill="#000000" transform="matrix(1.00, 0.00, -0.00, -1.00, 649.0, 1006.0)">c</text><text xml:space="preserve" font-family="Helvetica-Bold" font-weight="bold" font-size="56.0" fill="#000000" transform="matrix(1.00, 0.00, -0.00, -1.00, 680.2, 1006.0)">e</text><text xml:space="preserve" font-family="Helvetica-Bold" font-weight="bold" font-size="56.0" fill="#000000" transform="matrix(1.00, 0.00, -0.00, -1.00, 711.3, 1006.0)"> </text><text xml:space="preserve" font-family="Helvetica-Bold" font-weight="bold" font-size="56.0" fill="#000000" transform="matrix(1.00, 0.00, -0.00, -1.00, 726.9, 1006.0)">D</text><text xml:space="preserve" font-family="Helvetica-Bold" font-weight="bold" font-size="56.0" fill="#000000" transform="matrix(1.00, 0.00, -0.00, -1.00, 767.3, 1006.0)">e</text><text xml:space="preserve" font-family="Helvetica-Bold" font-weight="bold" font-size="56.0" fill="#000000" transform="matrix(1.00, 0.00, -0.00, -1.00, 798.5, 1006.0)">l</text><text xml:space="preserve" font-family="Helvetica-Bold" font-weight="bold" font-size="56.0" fill="#000000" transform="matrix(1.00, 0.00, -0.00, -1.00, 814.0, 1006.0)">i</text><text xml:space="preserve" font-family="Helvetica-Bold" font-weight="bold" font-size="56.0" fill="#000000" transform="matrix(1.00, 0.00, -0.00, -1.00, 829.6, 1006.0)">v</text><text xml:space="preserve" font-family="Helvetica-Bold" font-weight="bold" font-size="56.0" fill="#000000" transform="matrix(1.00, 0.00, -0.00, -1.00, 860.7, 1006.0)">e</text><text xml:space="preserve" font-family="Helvetica-Bold" font-weight="bold" font-size="56.0" fill="#000000" transform="matrix(1.00, 0.00, -0.00, -1.00, 891.9, 1006.0)">r</text><text xml:space="preserve" font-family="Helvetica-Bold" font-weight="bold" font-size="56.0" fill="#000000" transform="matrix(1.00, 0.00, -0.00, -1.00, 913.7, 1006.0)">y</text><text xml:space="preserve" font-family="Helvetica-Bold" font-weight="bold" font-size="56.0" fill="#000000" transform="matrix(1.00, 0.00, -0.00, -1.00, 944.8, 1006.0)"> </text><text xml:space="preserve" font-family="Helvetica-Bold" font-weight="bold" font-size="56.0" fill="#000000" transform="matrix(1.00, 0.00, -0.00, -1.00, 960.4, 1006.0)">P</text><text xml:space="preserve" font-family="Helvetica-Bold" font-weight="bold" font-size="56.0" fill="#000000" transform="matrix(1.00, 0.00, -0.00, -1.00, 997.7, 1006.0)">i</text><text xml:space="preserve" font-family="Helvetica-Bold" font-weight="bold" font-size="56.0" fill="#000000" transform="matrix(1.00, 0.00, -0.00, -1.00, 1013.3, 1006.0)">p</text><text xml:space="preserve" font-family="Helvetica-Bold" font-weight="bold" font-size="56.0" fill="#000000" transform="matrix(1.00, 0.00, -0.00, -1.00, 1047.5, 1006.0)">e</text><text xml:space="preserve" font-family="Helvetica-Bold" font-weight="bold" font-size="56.0" fill="#000000" transform="matrix(1.00, 0.00, -0.00, -1.00, 1078.6, 1006.0)">l</text><text xml:space="preserve" font-family="Helvetica-Bold" font-weight="bold" font-size="56.0" fill="#000000" transform="matrix(1.00, 0.00, -0.00, -1.00, 1094.2, 1006.0)">i</text><text xml:space="preserve" font-family="Helvetica-Bold" font-weight="bold" font-size="56.0" fill="#000000" transform="matrix(1.00, 0.00, -0.00, -1.00, 1109.7, 1006.0)">n</text><text xml:space="preserve" font-family="Helvetica-Bold" font-weight="bold" font-size="56.0" fill="#000000" transform="matrix(1.00, 0.00, -0.00, -1.00, 1143.9, 1006.0)">e</text><text xml:space="preserve" font-family="Helvetica-Bold" font-weight="bold" font-size="56.0" fill="#000000" transform="matrix(1.00, 0.00, -0.00, -1.00, 1175.1, 1006.0)"> </text><text xml:space="preserve" font-family="Helvetica-Bold" font-weight="bold" font-size="56.0" fill="#000000" transform="matrix(1.00, 0.00, -0.00, -1.00, 1190.6, 1006.0)">a</text><text xml:space="preserve" font-family="Helvetica-Bold" font-weight="bold" font-size="56.0" fill="#000000" transform="matrix(1.00, 0.00, -0.00, -1.00, 1221.8, 1006.0)">s</text><text xml:space="preserve" font-family="Helvetica-Bold" font-weight="bold" font-size="56.0" fill="#000000" transform="matrix(1.00, 0.00, -0.00, -1.00, 1253.0, 1006.0)"> </text><text xml:space="preserve" font-family="Helvetica-Bold" font-weight="bold" font-size="56.0" fill="#000000" transform="matrix(1.00, 0.00, -0.00, -1.00, 1268.5, 1006.0)">C</text><text xml:space="preserve" font-family="Helvetica-Bold" font-weight="bold" font-size="56.0" fill="#000000" transform="matrix(1.00, 0.00, -0.00, -1.00, 1309.0, 1006.0)">o</text><text xml:space="preserve" font-family="Helvetica-Bold" font-weight="bold" font-size="56.0" fill="#000000" transform="matrix(1.00, 0.00, -0.00, -1.00, 1343.1, 1006.0)">d</text><text xml:space="preserve" font-family="Helvetica-Bold" font-weight="bold" font-size="56.0" fill="#000000" transform="matrix(1.00, 0.00, -0.00, -1.00, 1377.3, 1006.0)">e</text><image xlink:href="../../06EDFFF8-22B7-4C35-8C87-1C6D4D87C4D8/assets/A59E8A35B213D25A5F6ABCE9277392D5.png" width="67.00" height="83.00" transform="matrix(1.01, 0.00, -0.00, -1.00, 598.0, 196.0)"></image></g></svg>