<?xml version="1.0" encoding="UTF-8" standalone="no"?><svg xmlns="http://www.w3.org/2000/svg" xmlns:xlink="http://www.w3.org/1999/xlink" clip-rule="evenodd" stroke-miterlimit="4.00" viewBox="0 0 1920 1080"><desc>SVG generated by Keynote</desc><defs></defs><g transform="matrix(1.00, 0.00, -0.00, -1.00, 0.0, 1080.0)"><path d="M 0.0 1080.0 L 1920.0 1080.0 L 1920.0 0.0 L 0.0 0.0 Z M 0.0 1080.0 " fill="#FEFFFF"></path><text xml:space="preserve" font-family="Helvetica-Light" font-size="70.0" fill="#000000" transform="matrix(1.00, 0.00, -0.00, -1.00, 586.0, 598.0)">I</text><text xml:space="preserve" font-family="Helvetica-Light" font-size="70.0" fill="#000000" transform="matrix(1.00, 0.00, -0.00, -1.00, 605.5, 598.0)">t</text><text xml:space="preserve" font-family="Helvetica-Light" font-size="70.0" fill="#000000" transform="matrix(1.00, 0.00, -0.00, -1.00, 624.9, 598.0)">’</text><text xml:space="preserve" font-family="Helvetica-Light" font-size="70.0" fill="#000000" transform="matrix(1.00, 0.00, -0.00, -1.00, 635.3, 598.0)">s</text><text xml:space="preserve" font-family="Helvetica-Light" font-size="70.0" fill="#000000" transform="matrix(1.00, 0.00, -0.00, -1.00, 670.3, 598.0)"> </text><text xml:space="preserve" font-family="Helvetica-Light" font-size="70.0" fill="#000000" transform="matrix(1.00, 0.00, -0.00, -1.00, 689.7, 598.0)">n</text><text xml:space="preserve" font-family="Helvetica-Light" font-size="70.0" fill="#000000" transform="matrix(1.00, 0.00, -0.00, -1.00, 728.7, 598.0)">o</text><text xml:space="preserve" font-family="Helvetica-Light" font-size="70.0" fill="#000000" transform="matrix(1.00, 0.00, -0.00, -1.00, 767.6, 598.0)">t</text><text xml:space="preserve" font-family="Helvetica-Light" font-size="70.0" fill="#000000" transform="matrix(1.00, 0.00, -0.00, -1.00, 787.0, 598.0)"> </text><text xml:space="preserve" font-family="Helvetica-Light" font-size="70.0" fill="#000000" transform="matrix(1.00, 0.00, -0.00, -1.00, 806.5, 598.0)">t</text><text xml:space="preserve" font-family="Helvetica-Light" font-size="70.0" fill="#000000" transform="matrix(1.00, 0.00, -0.00, -1.00, 826.0, 598.0)">h</text><text xml:space="preserve" font-family="Helvetica-Light" font-size="70.0" fill="#000000" transform="matrix(1.00, 0.00, -0.00, -1.00, 864.9, 598.0)">e</text><text xml:space="preserve" font-family="Helvetica-Light" font-size="70.0" fill="#000000" transform="matrix(1.00, 0.00, -0.00, -1.00, 903.8, 598.0)"> </text><text xml:space="preserve" font-family="Helvetica-Light" font-size="70.0" fill="#000000" transform="matrix(1.00, 0.00, -0.00, -1.00, 923.3, 598.0)">i</text><text xml:space="preserve" font-family="Helvetica-Light" font-size="70.0" fill="#000000" transform="matrix(1.00, 0.00, -0.00, -1.00, 938.8, 598.0)">m</text><text xml:space="preserve" font-family="Helvetica-Light" font-size="70.0" fill="#000000" transform="matrix(1.00, 0.00, -0.00, -1.00, 997.1, 598.0)">a</text><text xml:space="preserve" font-family="Helvetica-Light" font-size="70.0" fill="#000000" transform="matrix(1.00, 0.00, -0.00, -1.00, 1036.0, 598.0)">g</text><text xml:space="preserve" font-family="Helvetica-Light" font-size="70.0" fill="#000000" transform="matrix(1.00, 0.00, -0.00, -1.00, 1078.8, 598.0)">e</text><text xml:space="preserve" font-family="Helvetica-Light" font-size="70.0" fill="#000000" transform="matrix(1.00, 0.00, -0.00, -1.00, 1117.7, 598.0)">’</text><text xml:space="preserve" font-family="Helvetica-Light" font-size="70.0" fill="#000000" transform="matrix(1.00, 0.00, -0.00, -1.00, 1128.1, 598.0)">s</text><text xml:space="preserve" font-family="Helvetica-Light" font-size="70.0" fill="#000000" transform="matrix(1.00, 0.00, -0.00, -1.00, 1163.1, 598.0)"> </text><text xml:space="preserve" font-family="Helvetica-Light" font-size="70.0" fill="#000000" transform="matrix(1.00, 0.00, -0.00, -1.00, 1182.5, 598.0)">f</text><text xml:space="preserve" font-family="Helvetica-Light" font-size="70.0" fill="#000000" transform="matrix(1.00, 0.00, -0.00, -1.00, 1202.0, 598.0)">a</text><text xml:space="preserve" font-family="Helvetica-Light" font-size="70.0" fill="#000000" transform="matrix(1.00, 0.00, -0.00, -1.00, 1240.9, 598.0)">u</text><text xml:space="preserve" font-family="Helvetica-Light" font-size="70.0" fill="#000000" transform="matrix(1.00, 0.00, -0.00, -1.00, 1279.8, 598.0)">l</text><text xml:space="preserve" font-family="Helvetica-Light" font-size="70.0" fill="#000000" transform="matrix(1.00, 0.00, -0.00, -1.00, 1295.4, 598.0)">t</text><text xml:space="preserve" font-family="Helvetica-Light" font-size="70.0" fill="#000000" transform="matrix(1.00, 0.00, -0.00, -1.00, 1314.8, 598.0)">.</text><text xml:space="preserve" font-family="Helvetica-Light" font-size="70.0" fill="#000000" transform="matrix(1.00, 0.00, -0.00, -1.00, 1334.3, 598.0)"> </text><text xml:space="preserve" font-family="Helvetica-Light" font-size="70.0" fill="#000000" transform="matrix(1.00, 0.00, -0.00, -1.00, 282.0, 430.0)">I</text><text xml:space="preserve" font-family="Helvetica-Light" font-size="70.0" fill="#000000" transform="matrix(1.00, 0.00, -0.00, -1.00, 301.5, 430.0)">t</text><text xml:space="preserve" font-family="Helvetica-Light" font-size="70.0" fill="#000000" transform="matrix(1.00, 0.00, -0.00, -1.00, 320.9, 430.0)">’</text><text xml:space="preserve" font-family="Helvetica-Light" font-size="70.0" fill="#000000" transform="matrix(1.00, 0.00, -0.00, -1.00, 331.3, 430.0)">s</text><text xml:space="preserve" font-family="Helvetica-Light" font-size="70.0" fill="#000000" transform="matrix(1.00, 0.00, -0.00, -1.00, 366.3, 430.0)"> </text><text xml:space="preserve" font-family="Helvetica-Light" font-size="70.0" fill="#000000" transform="matrix(1.00, 0.00, -0.00, -1.00, 385.7, 430.0)">h</text><text xml:space="preserve" font-family="Helvetica-Light" font-size="70.0" fill="#000000" transform="matrix(1.00, 0.00, -0.00, -1.00, 424.7, 430.0)">o</text><text xml:space="preserve" font-family="Helvetica-Light" font-size="70.0" fill="#000000" transform="matrix(1.00, 0.00, -0.00, -1.00, 463.6, 430.0)">w</text><text xml:space="preserve" font-family="Helvetica-Light" font-size="70.0" fill="#000000" transform="matrix(1.00, 0.00, -0.00, -1.00, 514.1, 430.0)"> </text><text xml:space="preserve" font-family="Helvetica-Light" font-size="70.0" fill="#000000" transform="matrix(1.00, 0.00, -0.00, -1.00, 533.6, 430.0)">y</text><text xml:space="preserve" font-family="Helvetica-Light" font-size="70.0" fill="#000000" transform="matrix(1.00, 0.00, -0.00, -1.00, 568.6, 430.0)">o</text><text xml:space="preserve" font-family="Helvetica-Light" font-size="70.0" fill="#000000" transform="matrix(1.00, 0.00, -0.00, -1.00, 607.5, 430.0)">u</text><text xml:space="preserve" font-family="Helvetica-Light" font-size="70.0" fill="#000000" transform="matrix(1.00, 0.00, -0.00, -1.00, 646.4, 430.0)">’</text><text xml:space="preserve" font-family="Helvetica-Light" font-size="70.0" fill="#000000" transform="matrix(1.00, 0.00, -0.00, -1.00, 662.0, 430.0)">v</text><text xml:space="preserve" font-family="Helvetica-Light" font-size="70.0" fill="#000000" transform="matrix(1.00, 0.00, -0.00, -1.00, 697.0, 430.0)">e</text><text xml:space="preserve" font-family="Helvetica-Light" font-size="70.0" fill="#000000" transform="matrix(1.00, 0.00, -0.00, -1.00, 735.9, 430.0)"> </text><text xml:space="preserve" font-family="Helvetica-Light" font-size="70.0" fill="#000000" transform="matrix(1.00, 0.00, -0.00, -1.00, 755.3, 430.0)">b</text><text xml:space="preserve" font-family="Helvetica-Light" font-size="70.0" fill="#000000" transform="matrix(1.00, 0.00, -0.00, -1.00, 798.1, 430.0)">e</text><text xml:space="preserve" font-family="Helvetica-Light" font-size="70.0" fill="#000000" transform="matrix(1.00, 0.00, -0.00, -1.00, 837.0, 430.0)">e</text><text xml:space="preserve" font-family="Helvetica-Light" font-size="70.0" fill="#000000" transform="matrix(1.00, 0.00, -0.00, -1.00, 876.0, 430.0)">n</text><text xml:space="preserve" font-family="Helvetica-Light" font-size="70.0" fill="#000000" transform="matrix(1.00, 0.00, -0.00, -1.00, 914.9, 430.0)"> </text><text xml:space="preserve" font-family="Helvetica-Light" font-size="70.0" fill="#000000" transform="matrix(1.00, 0.00, -0.00, -1.00, 934.3, 430.0)">m</text><text xml:space="preserve" font-family="Helvetica-Light" font-size="70.0" fill="#000000" transform="matrix(1.00, 0.00, -0.00, -1.00, 992.6, 430.0)">a</text><text xml:space="preserve" font-family="Helvetica-Light" font-size="70.0" fill="#000000" transform="matrix(1.00, 0.00, -0.00, -1.00, 1031.6, 430.0)">n</text><text xml:space="preserve" font-family="Helvetica-Light" font-size="70.0" fill="#000000" transform="matrix(1.00, 0.00, -0.00, -1.00, 1070.5, 430.0)">a</text><text xml:space="preserve" font-family="Helvetica-Light" font-size="70.0" fill="#000000" transform="matrix(1.00, 0.00, -0.00, -1.00, 1109.4, 430.0)">g</text><text xml:space="preserve" font-family="Helvetica-Light" font-size="70.0" fill="#000000" transform="matrix(1.00, 0.00, -0.00, -1.00, 1152.2, 430.0)">i</text><text xml:space="preserve" font-family="Helvetica-Light" font-size="70.0" fill="#000000" transform="matrix(1.00, 0.00, -0.00, -1.00, 1167.7, 430.0)">n</text><text xml:space="preserve" font-family="Helvetica-Light" font-size="70.0" fill="#000000" transform="matrix(1.00, 0.00, -0.00, -1.00, 1206.6, 430.0)">g</text><text xml:space="preserve" font-family="Helvetica-Light" font-size="70.0" fill="#000000" transform="matrix(1.00, 0.00, -0.00, -1.00, 1249.4, 430.0)"> </text><text xml:space="preserve" font-family="Helvetica-Light" font-size="70.0" fill="#000000" transform="matrix(1.00, 0.00, -0.00, -1.00, 1268.9, 430.0)">t</text><text xml:space="preserve" font-family="Helvetica-Light" font-size="70.0" fill="#000000" transform="matrix(1.00, 0.00, -0.00, -1.00, 1288.3, 430.0)">h</text><text xml:space="preserve" font-family="Helvetica-Light" font-size="70.0" fill="#000000" transform="matrix(1.00, 0.00, -0.00, -1.00, 1327.2, 430.0)">e</text><text xml:space="preserve" font-family="Helvetica-Light" font-size="70.0" fill="#000000" transform="matrix(1.00, 0.00, -0.00, -1.00, 1366.2, 430.0)"> </text><text xml:space="preserve" font-family="Helvetica-Light" font-size="70.0" fill="#000000" transform="matrix(1.00, 0.00, -0.00, -1.00, 1385.6, 430.0)">i</text><text xml:space="preserve" font-family="Helvetica-Light" font-size="70.0" fill="#000000" transform="matrix(1.00, 0.00, -0.00, -1.00, 1401.2, 430.0)">m</text><text xml:space="preserve" font-family="Helvetica-Light" font-size="70.0" fill="#000000" transform="matrix(1.00, 0.00, -0.00, -1.00, 1459.5, 430.0)">a</text><text xml:space="preserve" font-family="Helvetica-Light" font-size="70.0" fill="#000000" transform="matrix(1.00, 0.00, -0.00, -1.00, 1498.4, 430.0)">g</text><text xml:space="preserve" font-family="Helvetica-Light" font-size="70.0" fill="#000000" transform="matrix(1.00, 0.00, -0.00, -1.00, 1541.2, 430.0)">e</text><text xml:space="preserve" font-family="Helvetica-Light" font-size="70.0" fill="#000000" transform="matrix(1.00, 0.00, -0.00, -1.00, 1580.1, 430.0)">s</text><text xml:space="preserve" font-family="Helvetica-Light" font-size="70.0" fill="#000000" transform="matrix(1.00, 0.00, -0.00, -1.00, 1615.1, 430.0)">!</text></g></svg>