<?xml version="1.0" encoding="UTF-8" standalone="no"?><svg xmlns="http://www.w3.org/2000/svg" xmlns:xlink="http://www.w3.org/1999/xlink" clip-rule="evenodd" stroke-miterlimit="4.00" viewBox="0 0 1920 1080"><desc>SVG generated by Keynote</desc><defs></defs><g transform="matrix(1.00, 0.00, -0.00, -1.00, 0.0, 1080.0)"><path d="M 0.0 1080.0 L 1920.0 1080.0 L 1920.0 0.0 L 0.0 0.0 Z M 0.0 1080.0 " fill="#FEFFFF"></path><text xml:space="preserve" font-family="Helvetica-Light" font-size="70.0" fill="#000000" transform="matrix(1.00, 0.00, -0.00, -1.00, 115.7, 682.1)">•</text><text xml:space="preserve" font-family="Helvetica-Light" font-size="70.0" fill="#000000" transform="matrix(1.00, 0.00, -0.00, -1.00, 156.0, 682.0)">D</text><text xml:space="preserve" font-family="Helvetica-Light" font-size="70.0" fill="#000000" transform="matrix(1.00, 0.00, -0.00, -1.00, 206.5, 682.0)">e</text><text xml:space="preserve" font-family="Helvetica-Light" font-size="70.0" fill="#000000" transform="matrix(1.00, 0.00, -0.00, -1.00, 245.5, 682.0)">p</text><text xml:space="preserve" font-family="Helvetica-Light" font-size="70.0" fill="#000000" transform="matrix(1.00, 0.00, -0.00, -1.00, 288.2, 682.0)">e</text><text xml:space="preserve" font-family="Helvetica-Light" font-size="70.0" fill="#000000" transform="matrix(1.00, 0.00, -0.00, -1.00, 327.2, 682.0)">n</text><text xml:space="preserve" font-family="Helvetica-Light" font-size="70.0" fill="#000000" transform="matrix(1.00, 0.00, -0.00, -1.00, 366.1, 682.0)">d</text><text xml:space="preserve" font-family="Helvetica-Light" font-size="70.0" fill="#000000" transform="matrix(1.00, 0.00, -0.00, -1.00, 408.8, 682.0)">e</text><text xml:space="preserve" font-family="Helvetica-Light" font-size="70.0" fill="#000000" transform="matrix(1.00, 0.00, -0.00, -1.00, 447.8, 682.0)">n</text><text xml:space="preserve" font-family="Helvetica-Light" font-size="70.0" fill="#000000" transform="matrix(1.00, 0.00, -0.00, -1.00, 486.7, 682.0)">c</text><text xml:space="preserve" font-family="Helvetica-Light" font-size="70.0" fill="#000000" transform="matrix(1.00, 0.00, -0.00, -1.00, 525.6, 682.0)">i</text><text xml:space="preserve" font-family="Helvetica-Light" font-size="70.0" fill="#000000" transform="matrix(1.00, 0.00, -0.00, -1.00, 541.1, 682.0)">e</text><text xml:space="preserve" font-family="Helvetica-Light" font-size="70.0" fill="#000000" transform="matrix(1.00, 0.00, -0.00, -1.00, 580.1, 682.0)">s</text><text xml:space="preserve" font-family="Helvetica-Light" font-size="70.0" fill="#000000" transform="matrix(1.00, 0.00, -0.00, -1.00, 615.1, 682.0)"> </text><text xml:space="preserve" font-family="Helvetica-Light" font-size="70.0" fill="#000000" transform="matrix(1.00, 0.00, -0.00, -1.00, 634.5, 682.0)">m</text><text xml:space="preserve" font-family="Helvetica-Light" font-size="70.0" fill="#000000" transform="matrix(1.00, 0.00, -0.00, -1.00, 692.8, 682.0)">i</text><text xml:space="preserve" font-family="Helvetica-Light" font-size="70.0" fill="#000000" transform="matrix(1.00, 0.00, -0.00, -1.00, 708.4, 682.0)">g</text><text xml:space="preserve" font-family="Helvetica-Light" font-size="70.0" fill="#000000" transform="matrix(1.00, 0.00, -0.00, -1.00, 751.1, 682.0)">h</text><text xml:space="preserve" font-family="Helvetica-Light" font-size="70.0" fill="#000000" transform="matrix(1.00, 0.00, -0.00, -1.00, 790.1, 682.0)">t</text><text xml:space="preserve" font-family="Helvetica-Light" font-size="70.0" fill="#000000" transform="matrix(1.00, 0.00, -0.00, -1.00, 809.5, 682.0)"> </text><text xml:space="preserve" font-family="Helvetica-Light" font-size="70.0" fill="#000000" transform="matrix(1.00, 0.00, -0.00, -1.00, 829.0, 682.0)">b</text><text xml:space="preserve" font-family="Helvetica-Light" font-size="70.0" fill="#000000" transform="matrix(1.00, 0.00, -0.00, -1.00, 871.8, 682.0)">e</text><text xml:space="preserve" font-family="Helvetica-Light" font-size="70.0" fill="#000000" transform="matrix(1.00, 0.00, -0.00, -1.00, 910.7, 682.0)"> </text><text xml:space="preserve" font-family="Helvetica-Light" font-size="70.0" fill="#000000" transform="matrix(1.00, 0.00, -0.00, -1.00, 930.1, 682.0)">m</text><text xml:space="preserve" font-family="Helvetica-Light" font-size="70.0" fill="#000000" transform="matrix(1.00, 0.00, -0.00, -1.00, 988.4, 682.0)">i</text><text xml:space="preserve" font-family="Helvetica-Light" font-size="70.0" fill="#000000" transform="matrix(1.00, 0.00, -0.00, -1.00, 1004.0, 682.0)">s</text><text xml:space="preserve" font-family="Helvetica-Light" font-size="70.0" fill="#000000" transform="matrix(1.00, 0.00, -0.00, -1.00, 1039.0, 682.0)">s</text><text xml:space="preserve" font-family="Helvetica-Light" font-size="70.0" fill="#000000" transform="matrix(1.00, 0.00, -0.00, -1.00, 1074.0, 682.0)">i</text><text xml:space="preserve" font-family="Helvetica-Light" font-size="70.0" fill="#000000" transform="matrix(1.00, 0.00, -0.00, -1.00, 1089.5, 682.0)">n</text><text xml:space="preserve" font-family="Helvetica-Light" font-size="70.0" fill="#000000" transform="matrix(1.00, 0.00, -0.00, -1.00, 1128.4, 682.0)">g</text><text xml:space="preserve" font-family="Helvetica-Light" font-size="70.0" fill="#000000" transform="matrix(1.00, 0.00, -0.00, -1.00, 1171.2, 682.0)"> </text><text xml:space="preserve" font-family="Helvetica-Light" font-size="70.0" fill="#000000" transform="matrix(1.00, 0.00, -0.00, -1.00, 115.7, 514.1)">•</text><text xml:space="preserve" font-family="Helvetica-Light" font-size="70.0" fill="#000000" transform="matrix(1.00, 0.00, -0.00, -1.00, 156.0, 514.0)">O</text><text xml:space="preserve" font-family="Helvetica-Light" font-size="70.0" fill="#000000" transform="matrix(1.00, 0.00, -0.00, -1.00, 210.5, 514.0)">u</text><text xml:space="preserve" font-family="Helvetica-Light" font-size="70.0" fill="#000000" transform="matrix(1.00, 0.00, -0.00, -1.00, 249.4, 514.0)">t</text><text xml:space="preserve" font-family="Helvetica-Light" font-size="70.0" fill="#000000" transform="matrix(1.00, 0.00, -0.00, -1.00, 268.8, 514.0)">b</text><text xml:space="preserve" font-family="Helvetica-Light" font-size="70.0" fill="#000000" transform="matrix(1.00, 0.00, -0.00, -1.00, 311.6, 514.0)">o</text><text xml:space="preserve" font-family="Helvetica-Light" font-size="70.0" fill="#000000" transform="matrix(1.00, 0.00, -0.00, -1.00, 350.5, 514.0)">u</text><text xml:space="preserve" font-family="Helvetica-Light" font-size="70.0" fill="#000000" transform="matrix(1.00, 0.00, -0.00, -1.00, 389.5, 514.0)">n</text><text xml:space="preserve" font-family="Helvetica-Light" font-size="70.0" fill="#000000" transform="matrix(1.00, 0.00, -0.00, -1.00, 428.4, 514.0)">d</text><text xml:space="preserve" font-family="Helvetica-Light" font-size="70.0" fill="#000000" transform="matrix(1.00, 0.00, -0.00, -1.00, 471.1, 514.0)"> </text><text xml:space="preserve" font-family="Helvetica-Light" font-size="70.0" fill="#000000" transform="matrix(1.00, 0.00, -0.00, -1.00, 490.6, 514.0)">c</text><text xml:space="preserve" font-family="Helvetica-Light" font-size="70.0" fill="#000000" transform="matrix(1.00, 0.00, -0.00, -1.00, 529.5, 514.0)">o</text><text xml:space="preserve" font-family="Helvetica-Light" font-size="70.0" fill="#000000" transform="matrix(1.00, 0.00, -0.00, -1.00, 568.4, 514.0)">n</text><text xml:space="preserve" font-family="Helvetica-Light" font-size="70.0" fill="#000000" transform="matrix(1.00, 0.00, -0.00, -1.00, 607.4, 514.0)">n</text><text xml:space="preserve" font-family="Helvetica-Light" font-size="70.0" fill="#000000" transform="matrix(1.00, 0.00, -0.00, -1.00, 646.3, 514.0)">e</text><text xml:space="preserve" font-family="Helvetica-Light" font-size="70.0" fill="#000000" transform="matrix(1.00, 0.00, -0.00, -1.00, 685.2, 514.0)">c</text><text xml:space="preserve" font-family="Helvetica-Light" font-size="70.0" fill="#000000" transform="matrix(1.00, 0.00, -0.00, -1.00, 724.1, 514.0)">t</text><text xml:space="preserve" font-family="Helvetica-Light" font-size="70.0" fill="#000000" transform="matrix(1.00, 0.00, -0.00, -1.00, 743.6, 514.0)">i</text><text xml:space="preserve" font-family="Helvetica-Light" font-size="70.0" fill="#000000" transform="matrix(1.00, 0.00, -0.00, -1.00, 759.1, 514.0)">o</text><text xml:space="preserve" font-family="Helvetica-Light" font-size="70.0" fill="#000000" transform="matrix(1.00, 0.00, -0.00, -1.00, 798.0, 514.0)">n</text><text xml:space="preserve" font-family="Helvetica-Light" font-size="70.0" fill="#000000" transform="matrix(1.00, 0.00, -0.00, -1.00, 837.0, 514.0)"> </text><text xml:space="preserve" font-family="Helvetica-Light" font-size="70.0" fill="#000000" transform="matrix(1.00, 0.00, -0.00, -1.00, 856.4, 514.0)">t</text><text xml:space="preserve" font-family="Helvetica-Light" font-size="70.0" fill="#000000" transform="matrix(1.00, 0.00, -0.00, -1.00, 875.9, 514.0)">o</text><text xml:space="preserve" font-family="Helvetica-Light" font-size="70.0" fill="#000000" transform="matrix(1.00, 0.00, -0.00, -1.00, 914.8, 514.0)"> </text><text xml:space="preserve" font-family="Helvetica-Light" font-size="70.0" fill="#000000" transform="matrix(1.00, 0.00, -0.00, -1.00, 934.3, 514.0)">p</text><text xml:space="preserve" font-family="Helvetica-Light" font-size="70.0" fill="#000000" transform="matrix(1.00, 0.00, -0.00, -1.00, 977.0, 514.0)">a</text><text xml:space="preserve" font-family="Helvetica-Light" font-size="70.0" fill="#000000" transform="matrix(1.00, 0.00, -0.00, -1.00, 1015.9, 514.0)">c</text><text xml:space="preserve" font-family="Helvetica-Light" font-size="70.0" fill="#000000" transform="matrix(1.00, 0.00, -0.00, -1.00, 1054.9, 514.0)">k</text><text xml:space="preserve" font-family="Helvetica-Light" font-size="70.0" fill="#000000" transform="matrix(1.00, 0.00, -0.00, -1.00, 1089.9, 514.0)">a</text><text xml:space="preserve" font-family="Helvetica-Light" font-size="70.0" fill="#000000" transform="matrix(1.00, 0.00, -0.00, -1.00, 1128.8, 514.0)">g</text><text xml:space="preserve" font-family="Helvetica-Light" font-size="70.0" fill="#000000" transform="matrix(1.00, 0.00, -0.00, -1.00, 1171.6, 514.0)">e</text><text xml:space="preserve" font-family="Helvetica-Light" font-size="70.0" fill="#000000" transform="matrix(1.00, 0.00, -0.00, -1.00, 1210.5, 514.0)"> </text><text xml:space="preserve" font-family="Helvetica-Light" font-size="70.0" fill="#000000" transform="matrix(1.00, 0.00, -0.00, -1.00, 1229.9, 514.0)">r</text><text xml:space="preserve" font-family="Helvetica-Light" font-size="70.0" fill="#000000" transform="matrix(1.00, 0.00, -0.00, -1.00, 1252.0, 514.0)">e</text><text xml:space="preserve" font-family="Helvetica-Light" font-size="70.0" fill="#000000" transform="matrix(1.00, 0.00, -0.00, -1.00, 1290.9, 514.0)">p</text><text xml:space="preserve" font-family="Helvetica-Light" font-size="70.0" fill="#000000" transform="matrix(1.00, 0.00, -0.00, -1.00, 1333.7, 514.0)">o</text><text xml:space="preserve" font-family="Helvetica-Light" font-size="70.0" fill="#000000" transform="matrix(1.00, 0.00, -0.00, -1.00, 1372.6, 514.0)"> </text><text xml:space="preserve" font-family="Helvetica-Light" font-size="70.0" fill="#000000" transform="matrix(1.00, 0.00, -0.00, -1.00, 1392.1, 514.0)">n</text><text xml:space="preserve" font-family="Helvetica-Light" font-size="70.0" fill="#000000" transform="matrix(1.00, 0.00, -0.00, -1.00, 1431.0, 514.0)">o</text><text xml:space="preserve" font-family="Helvetica-Light" font-size="70.0" fill="#000000" transform="matrix(1.00, 0.00, -0.00, -1.00, 1469.9, 514.0)">t</text><text xml:space="preserve" font-family="Helvetica-Light" font-size="70.0" fill="#000000" transform="matrix(1.00, 0.00, -0.00, -1.00, 1489.4, 514.0)"> </text><text xml:space="preserve" font-family="Helvetica-Light" font-size="70.0" fill="#000000" transform="matrix(1.00, 0.00, -0.00, -1.00, 1508.8, 514.0)">a</text><text xml:space="preserve" font-family="Helvetica-Light" font-size="70.0" fill="#000000" transform="matrix(1.00, 0.00, -0.00, -1.00, 1547.7, 514.0)">v</text><text xml:space="preserve" font-family="Helvetica-Light" font-size="70.0" fill="#000000" transform="matrix(1.00, 0.00, -0.00, -1.00, 1582.7, 514.0)">a</text><text xml:space="preserve" font-family="Helvetica-Light" font-size="70.0" fill="#000000" transform="matrix(1.00, 0.00, -0.00, -1.00, 1621.7, 514.0)">i</text><text xml:space="preserve" font-family="Helvetica-Light" font-size="70.0" fill="#000000" transform="matrix(1.00, 0.00, -0.00, -1.00, 1637.2, 514.0)">l</text><text xml:space="preserve" font-family="Helvetica-Light" font-size="70.0" fill="#000000" transform="matrix(1.00, 0.00, -0.00, -1.00, 1652.7, 514.0)">a</text><text xml:space="preserve" font-family="Helvetica-Light" font-size="70.0" fill="#000000" transform="matrix(1.00, 0.00, -0.00, -1.00, 1691.7, 514.0)">b</text><text xml:space="preserve" font-family="Helvetica-Light" font-size="70.0" fill="#000000" transform="matrix(1.00, 0.00, -0.00, -1.00, 1734.4, 514.0)">l</text><text xml:space="preserve" font-family="Helvetica-Light" font-size="70.0" fill="#000000" transform="matrix(1.00, 0.00, -0.00, -1.00, 1750.0, 514.0)">e</text><text xml:space="preserve" font-family="Helvetica-Light" font-size="70.0" fill="#000000" transform="matrix(1.00, 0.00, -0.00, -1.00, 1788.9, 514.0)"> </text><text xml:space="preserve" font-family="Helvetica-Light" font-size="70.0" fill="#000000" transform="matrix(1.00, 0.00, -0.00, -1.00, 115.7, 346.1)">•</text><text xml:space="preserve" font-family="Helvetica-Light" font-size="70.0" fill="#000000" transform="matrix(1.00, 0.00, -0.00, -1.00, 156.0, 346.0)">E</text><text xml:space="preserve" font-family="Helvetica-Light" font-size="70.0" fill="#000000" transform="matrix(1.00, 0.00, -0.00, -1.00, 198.8, 346.0)">v</text><text xml:space="preserve" font-family="Helvetica-Light" font-size="70.0" fill="#000000" transform="matrix(1.00, 0.00, -0.00, -1.00, 233.8, 346.0)">e</text><text xml:space="preserve" font-family="Helvetica-Light" font-size="70.0" fill="#000000" transform="matrix(1.00, 0.00, -0.00, -1.00, 272.7, 346.0)">r</text><text xml:space="preserve" font-family="Helvetica-Light" font-size="70.0" fill="#000000" transform="matrix(1.00, 0.00, -0.00, -1.00, 297.3, 346.0)">y</text><text xml:space="preserve" font-family="Helvetica-Light" font-size="70.0" fill="#000000" transform="matrix(1.00, 0.00, -0.00, -1.00, 332.3, 346.0)"> </text><text xml:space="preserve" font-family="Helvetica-Light" font-size="70.0" fill="#000000" transform="matrix(1.00, 0.00, -0.00, -1.00, 351.7, 346.0)">s</text><text xml:space="preserve" font-family="Helvetica-Light" font-size="70.0" fill="#000000" transform="matrix(1.00, 0.00, -0.00, -1.00, 386.7, 346.0)">e</text><text xml:space="preserve" font-family="Helvetica-Light" font-size="70.0" fill="#000000" transform="matrix(1.00, 0.00, -0.00, -1.00, 425.6, 346.0)">r</text><text xml:space="preserve" font-family="Helvetica-Light" font-size="70.0" fill="#000000" transform="matrix(1.00, 0.00, -0.00, -1.00, 448.9, 346.0)">v</text><text xml:space="preserve" font-family="Helvetica-Light" font-size="70.0" fill="#000000" transform="matrix(1.00, 0.00, -0.00, -1.00, 483.9, 346.0)">e</text><text xml:space="preserve" font-family="Helvetica-Light" font-size="70.0" fill="#000000" transform="matrix(1.00, 0.00, -0.00, -1.00, 522.9, 346.0)">r</text><text xml:space="preserve" font-family="Helvetica-Light" font-size="70.0" fill="#000000" transform="matrix(1.00, 0.00, -0.00, -1.00, 546.2, 346.0)"> </text><text xml:space="preserve" font-family="Helvetica-Light" font-size="70.0" fill="#000000" transform="matrix(1.00, 0.00, -0.00, -1.00, 565.6, 346.0)">i</text><text xml:space="preserve" font-family="Helvetica-Light" font-size="70.0" fill="#000000" transform="matrix(1.00, 0.00, -0.00, -1.00, 581.2, 346.0)">s</text><text xml:space="preserve" font-family="Helvetica-Light" font-size="70.0" fill="#000000" transform="matrix(1.00, 0.00, -0.00, -1.00, 616.2, 346.0)"> </text><text xml:space="preserve" font-family="Helvetica-Light" font-size="70.0" fill="#000000" transform="matrix(1.00, 0.00, -0.00, -1.00, 635.6, 346.0)">a</text><text xml:space="preserve" font-family="Helvetica-Light" font-size="70.0" fill="#000000" transform="matrix(1.00, 0.00, -0.00, -1.00, 674.6, 346.0)"> </text><text xml:space="preserve" font-family="Helvetica-Light" font-size="70.0" fill="#000000" transform="matrix(1.00, 0.00, -0.00, -1.00, 694.0, 346.0)">s</text><text xml:space="preserve" font-family="Helvetica-Light" font-size="70.0" fill="#000000" transform="matrix(1.00, 0.00, -0.00, -1.00, 729.0, 346.0)">n</text><text xml:space="preserve" font-family="Helvetica-Light" font-size="70.0" fill="#000000" transform="matrix(1.00, 0.00, -0.00, -1.00, 767.9, 346.0)">o</text><text xml:space="preserve" font-family="Helvetica-Light" font-size="70.0" fill="#000000" transform="matrix(1.00, 0.00, -0.00, -1.00, 806.9, 346.0)">w</text><text xml:space="preserve" font-family="Helvetica-Light" font-size="70.0" fill="#000000" transform="matrix(1.00, 0.00, -0.00, -1.00, 857.4, 346.0)">ﬂ</text><text xml:space="preserve" font-family="Helvetica-Light" font-size="70.0" fill="#000000" transform="matrix(1.00, 0.00, -0.00, -1.00, 892.4, 346.0)">a</text><text xml:space="preserve" font-family="Helvetica-Light" font-size="70.0" fill="#000000" transform="matrix(1.00, 0.00, -0.00, -1.00, 931.3, 346.0)">k</text><text xml:space="preserve" font-family="Helvetica-Light" font-size="70.0" fill="#000000" transform="matrix(1.00, 0.00, -0.00, -1.00, 966.3, 346.0)">e</text><g><clipPath id="clip-338"><path d="M 350.7 361.6 L 546.1 361.6 L 546.1 367.3 L 350.7 367.3 Z M 350.7 361.6 "></path></clipPath><g clip-path="url(#clip-338)"><path d="M 246.6 391.2 L 441.1 391.2 " fill="none" stroke="#000000" stroke-width="3.70" stroke-miterlimit="0.00" transform="matrix(1.00, 0.00, 0.00, -1.00, 105.1, 755.6)"></path></g></g><image xlink:href="B3EB1613448FB72692180BACF9BB6874.png" width="225.00" height="137.00" transform="matrix(1.00, 0.00, -0.00, -1.00, 339.0, 432.0)"></image><text xml:space="preserve" font-family="MarkerFelt-Wide" font-weight="bold" font-size="65.0" fill="#C82505" transform="matrix(0.91, 0.42, 0.42, -0.91, 354.3, 299.2)">n</text><text xml:space="preserve" font-family="MarkerFelt-Wide" font-weight="bold" font-size="65.0" fill="#C82505" transform="matrix(0.91, 0.42, 0.42, -0.91, 386.1, 314.1)">e</text><text xml:space="preserve" font-family="MarkerFelt-Wide" font-weight="bold" font-size="65.0" fill="#C82505" transform="matrix(0.91, 0.42, 0.42, -0.91, 412.6, 326.4)">t</text><text xml:space="preserve" font-family="MarkerFelt-Wide" font-weight="bold" font-size="65.0" fill="#C82505" transform="matrix(0.91, 0.42, 0.42, -0.91, 438.6, 338.6)">w</text><text xml:space="preserve" font-family="MarkerFelt-Wide" font-weight="bold" font-size="65.0" fill="#C82505" transform="matrix(0.91, 0.42, 0.42, -0.91, 479.8, 357.8)">o</text><text xml:space="preserve" font-family="MarkerFelt-Wide" font-weight="bold" font-size="65.0" fill="#C82505" transform="matrix(0.91, 0.42, 0.42, -0.91, 510.8, 372.3)">r</text><text xml:space="preserve" font-family="MarkerFelt-Wide" font-weight="bold" font-size="65.0" fill="#C82505" transform="matrix(0.91, 0.42, 0.42, -0.91, 536.5, 384.3)">k</text></g></svg>