<?xml version="1.0" encoding="UTF-8" standalone="no"?><svg xmlns="http://www.w3.org/2000/svg" xmlns:xlink="http://www.w3.org/1999/xlink" clip-rule="evenodd" stroke-miterlimit="4.00" viewBox="0 0 43 230"><desc>SVG generated by Keynote</desc><defs></defs><g transform="matrix(1.00, 0.00, -0.00, -1.00, 0.0, 230.0)"><text xml:space="preserve" font-family="Helvetica-Bold" font-weight="bold" font-size="42.0" fill="#000000" transform="matrix(0.00, 1.00, 1.00, -0.00, 33.0, 1.0)">A</text><text xml:space="preserve" font-family="Helvetica-Bold" font-weight="bold" font-size="42.0" fill="#000000" transform="matrix(0.00, 1.00, 1.00, -0.00, 33.0, 31.3)">p</text><text xml:space="preserve" font-family="Helvetica-Bold" font-weight="bold" font-size="42.0" fill="#000000" transform="matrix(0.00, 1.00, 1.00, -0.00, 33.0, 57.0)">p</text><text xml:space="preserve" font-family="Helvetica-Bold" font-weight="bold" font-size="42.0" fill="#000000" transform="matrix(0.00, 1.00, 1.00, -0.00, 33.0, 82.6)">l</text><text xml:space="preserve" font-family="Helvetica-Bold" font-weight="bold" font-size="42.0" fill="#000000" transform="matrix(0.00, 1.00, 1.00, -0.00, 33.0, 94.3)">i</text><text xml:space="preserve" font-family="Helvetica-Bold" font-weight="bold" font-size="42.0" fill="#000000" transform="matrix(0.00, 1.00, 1.00, -0.00, 33.0, 106.0)">c</text><text xml:space="preserve" font-family="Helvetica-Bold" font-weight="bold" font-size="42.0" fill="#000000" transform="matrix(0.00, 1.00, 1.00, -0.00, 33.0, 129.3)">a</text><text xml:space="preserve" font-family="Helvetica-Bold" font-weight="bold" font-size="42.0" fill="#000000" transform="matrix(0.00, 1.00, 1.00, -0.00, 33.0, 152.7)">t</text><text xml:space="preserve" font-family="Helvetica-Bold" font-weight="bold" font-size="42.0" fill="#000000" transform="matrix(0.00, 1.00, 1.00, -0.00, 33.0, 166.7)">i</text><text xml:space="preserve" font-family="Helvetica-Bold" font-weight="bold" font-size="42.0" fill="#000000" transform="matrix(0.00, 1.00, 1.00, -0.00, 33.0, 178.3)">o</text><text xml:space="preserve" font-family="Helvetica-Bold" font-weight="bold" font-size="42.0" fill="#000000" transform="matrix(0.00, 1.00, 1.00, -0.00, 33.0, 204.0)">n</text></g></svg>