<?xml version="1.0" encoding="UTF-8" standalone="no"?><svg xmlns="http://www.w3.org/2000/svg" xmlns:xlink="http://www.w3.org/1999/xlink" clip-rule="evenodd" stroke-miterlimit="4.00" viewBox="0 0 71 40"><desc>SVG generated by Keynote</desc><defs></defs><g transform="matrix(1.00, 0.00, -0.00, -1.00, 0.0, 40.0)"><path d="M 2.0 37.3 L 68.3 37.3 L 68.3 2.1 L 2.0 2.1 Z M 2.0 37.3 " fill="#DCDDE0"></path><path d="M 0.0 0.0 L 66.3 0.0 L 66.3 35.2 L 0.0 35.2 Z M 0.0 0.0 " fill="none" stroke="#A6AAA8" stroke-width="2.00" transform="matrix(1.00, 0.00, 0.00, -1.00, 2.0, 37.3)"></path><g><clipPath id="clip-559"><path d="M 3.0 3.1 L 67.3 3.1 L 67.3 36.3 L 3.0 36.3 Z M 3.0 3.1 "></path></clipPath><g clip-path="url(#clip-559)"><text xml:space="preserve" font-family="Helvetica-Light" font-size="18.0" fill="#000000" transform="matrix(1.00, 0.00, -0.00, -1.00, 9.0, 13.0)">i</text><text xml:space="preserve" font-family="Helvetica-Light" font-size="18.0" fill="#000000" transform="matrix(1.00, 0.00, -0.00, -1.00, 13.0, 13.0)">n</text><text xml:space="preserve" font-family="Helvetica-Light" font-size="18.0" fill="#000000" transform="matrix(1.00, 0.00, -0.00, -1.00, 23.0, 13.0)">v</text><text xml:space="preserve" font-family="Helvetica-Light" font-size="18.0" fill="#000000" transform="matrix(1.00, 0.00, -0.00, -1.00, 32.0, 13.0)">o</text><text xml:space="preserve" font-family="Helvetica-Light" font-size="18.0" fill="#000000" transform="matrix(1.00, 0.00, -0.00, -1.00, 42.0, 13.0)">k</text><text xml:space="preserve" font-family="Helvetica-Light" font-size="18.0" fill="#000000" transform="matrix(1.00, 0.00, -0.00, -1.00, 51.0, 13.0)">e</text></g></g></g></svg>