<?xml version="1.0" encoding="UTF-8" standalone="no"?><svg xmlns="http://www.w3.org/2000/svg" xmlns:xlink="http://www.w3.org/1999/xlink" clip-rule="evenodd" stroke-miterlimit="4.00" viewBox="0 0 123 110"><desc>SVG generated by Keynote</desc><defs></defs><g transform="matrix(1.00, 0.00, -0.00, -1.00, 0.0, 110.0)"><g><clipPath id="clip-548"><path d="M 1.0 108.0 L 121.0 108.0 L 121.0 1.0 L 1.0 1.0 Z M 1.2 108.5 "></path></clipPath><g clip-path="url(#clip-548)"><g><clipPath id="clip-549"><path d="M 37.0 15.2 L 20.0 28.9 L 20.0 38.6 L 20.0 48.2 L 10.8 56.9 L 1.2 65.6 L 7.8 69.4 C 19.7 76.2 19.7 76.2 15.3 84.3 L 11.4 91.4 L 33.8 98.4 C 71.8 110.2 70.6 110.0 77.3 106.1 C 81.6 103.4 83.4 103.0 85.2 104.1 C 87.1 105.3 90.8 103.8 103.9 96.4 C 113.0 91.4 120.6 86.8 121.0 86.2 C 121.3 85.7 118.9 81.9 115.6 77.8 C 112.2 73.8 109.5 69.7 109.5 68.7 C 109.5 67.8 111.7 63.1 114.3 58.4 L 119.1 49.8 L 112.9 47.2 L 107.0 44.5 L 107.0 33.9 L 107.0 23.2 L 81.3 12.2 C 67.2 6.2 55.2 1.3 54.6 1.4 C 54.0 1.4 46.1 7.6 37.0 15.2 "></path></clipPath><g clip-path="url(#clip-549)"><image xlink:href="7E547CF3A5D83054DC10429136B732CD.png" width="130.00" height="130.00" transform="matrix(0.99, 0.00, -0.00, -0.99, -1.0, 121.0)"></image></g></g></g></g></g></svg>