<?xml version="1.0" encoding="UTF-8" standalone="no"?><svg xmlns="http://www.w3.org/2000/svg" xmlns:xlink="http://www.w3.org/1999/xlink" clip-rule="evenodd" stroke-miterlimit="4.00" viewBox="0 0 207 49"><desc>SVG generated by Keynote</desc><defs></defs><g transform="matrix(1.00, 0.00, -0.00, -1.00, 0.0, 49.0)"><g><clipPath id="clip-552"><path d="M 1.0 47.0 L 206.0 47.0 L 206.0 2.0 L 1.0 2.0 Z M 1.0 47.2 "></path></clipPath><g clip-path="url(#clip-552)"><g><clipPath id="clip-553"><path d="M 52.9 8.5 C 51.5 8.9 50.3 10.5 50.3 12.0 C 50.3 15.3 47.9 17.2 46.6 15.0 C 43.6 10.2 34.9 16.0 35.7 22.3 C 36.0 25.0 35.4 26.2 33.9 26.2 C 32.3 26.2 31.5 24.3 31.2 19.8 C 30.6 12.3 28.3 11.4 27.6 18.3 C 27.2 22.4 26.5 23.2 23.4 23.2 C 20.3 23.2 19.6 22.4 19.2 18.3 C 18.9 15.1 18.0 13.5 16.3 13.5 C 15.0 13.5 12.7 12.4 11.2 11.0 C 8.2 8.2 5.4 9.5 8.2 12.3 C 9.2 13.3 10.0 18.4 10.0 24.3 L 10.0 34.0 L 18.0 34.0 C 24.8 34.0 26.2 34.0 26.8 31.4 C 27.6 28.4 30.8 27.8 42.3 28.4 C 44.9 28.5 47.5 27.9 48.0 27.0 C 48.7 25.9 49.7 25.8 50.8 26.7 C 52.3 28.0 61.3 29.1 65.9 28.6 C 66.7 28.5 66.0 27.5 64.4 26.2 C 62.8 25.0 62.1 24.0 62.9 24.0 C 63.6 24.0 63.0 22.6 61.5 21.0 C 59.1 18.3 59.1 17.9 61.3 17.1 C 65.0 15.7 64.4 9.5 60.4 8.4 C 58.5 7.9 56.7 7.6 56.3 7.7 C 55.9 7.8 54.4 8.1 52.9 8.5 M 187.7 8.7 C 187.7 9.3 188.4 10.6 189.2 11.4 C 190.3 12.4 190.2 14.6 189.0 18.1 C 185.5 28.8 180.3 29.6 180.3 19.4 C 180.3 15.2 179.6 13.5 178.1 13.5 C 176.9 13.5 175.6 14.1 175.1 14.8 C 174.6 15.6 172.4 15.5 169.8 14.5 C 166.5 13.3 164.9 13.3 163.7 14.5 C 162.4 15.8 161.3 15.8 159.2 14.5 C 157.1 13.2 155.7 13.2 153.7 14.4 C 151.9 15.6 150.1 15.6 147.7 14.5 C 145.2 13.3 143.4 13.4 141.4 14.7 C 139.8 15.6 138.2 15.9 137.8 15.2 C 137.4 14.5 134.4 13.9 131.2 13.7 C 124.4 13.5 121.9 16.8 125.7 21.0 C 127.8 23.2 127.8 23.7 125.8 25.4 C 121.9 28.6 119.0 26.1 119.0 19.5 C 119.0 11.7 116.3 11.7 115.7 19.5 C 115.1 27.3 112.4 27.3 111.8 19.4 C 111.4 13.4 111.3 13.3 105.9 13.8 C 100.7 14.2 100.3 14.6 99.9 19.5 C 99.6 22.3 98.8 25.3 98.1 26.1 C 95.7 28.4 92.1 23.8 92.1 18.5 C 92.1 14.0 91.7 13.5 87.8 13.5 C 84.8 13.5 83.3 14.4 82.7 16.5 C 82.3 18.3 80.7 19.5 78.7 19.5 C 76.7 19.5 75.1 18.3 74.6 16.5 C 74.2 14.8 73.0 13.5 71.9 13.5 C 70.4 13.5 70.7 15.9 73.3 23.6 C 77.6 36.2 80.6 37.4 83.4 27.7 C 85.7 19.8 88.2 18.3 88.9 24.3 C 89.3 27.8 90.0 28.4 93.8 28.4 C 96.3 28.4 98.6 29.4 99.1 30.7 C 100.1 33.4 104.2 33.7 103.7 31.1 C 103.5 30.0 104.7 29.2 106.3 29.2 C 108.6 29.2 109.2 30.0 108.8 32.6 C 108.3 36.2 111.2 37.1 114.1 34.3 C 115.2 33.1 116.0 33.1 116.7 34.3 C 117.9 36.3 123.5 36.5 123.5 34.6 C 123.5 33.9 122.4 32.9 121.2 32.4 C 116.8 30.7 120.7 28.4 127.9 28.4 C 133.4 28.4 135.4 27.8 136.1 25.8 C 137.1 23.4 137.3 23.4 139.2 26.1 C 140.6 27.9 143.0 28.9 145.9 28.8 C 148.7 28.7 150.9 29.5 151.4 30.8 C 151.8 32.0 153.2 32.9 154.4 32.9 C 155.6 32.9 156.1 32.3 155.7 31.5 C 154.3 29.3 157.8 28.0 164.3 28.2 C 167.6 28.3 171.1 27.7 172.1 26.9 C 173.4 25.8 174.3 25.8 175.0 26.9 C 175.5 27.7 178.8 28.4 182.3 28.4 C 187.8 28.4 189.0 27.9 190.5 24.6 C 192.4 20.4 195.2 21.0 195.2 25.5 C 195.2 27.1 196.2 28.4 197.4 28.4 C 198.7 28.4 199.7 28.3 199.7 28.1 C 199.7 26.6 193.1 10.9 191.9 9.4 C 190.2 7.3 187.7 6.9 187.7 8.7 M 75.7 53.1 C 75.7 55.1 79.8 55.4 103.3 55.4 C 126.9 55.4 131.0 55.1 131.0 53.1 C 131.0 51.2 126.9 50.9 103.3 50.9 C 79.8 50.9 75.7 51.2 75.7 53.1 M 94.8 69.4 C 85.8 72.7 82.2 75.7 78.9 82.7 C 73.8 93.1 75.5 106.1 82.8 114.2 C 90.4 122.6 105.5 125.1 115.9 119.8 C 130.3 112.5 135.2 94.2 126.5 80.2 C 120.6 70.5 105.5 65.4 94.8 69.4 "></path></clipPath><g clip-path="url(#clip-553)"><image xlink:href="../../634B55AC-2290-4440-BDC7-74632B2ACCE4/assets/31FC516B1E10715FFD92273D53A4C3DF.png" width="248.00" height="153.00" transform="matrix(0.83, 0.00, -0.00, -0.83, 1.0, 129.0)"></image></g></g></g></g></g></svg>