<?xml version="1.0" encoding="UTF-8" standalone="no"?><svg xmlns="http://www.w3.org/2000/svg" xmlns:xlink="http://www.w3.org/1999/xlink" clip-rule="evenodd" stroke-miterlimit="4.00" viewBox="0 0 151 52"><desc>SVG generated by Keynote</desc><defs></defs><g transform="matrix(1.00, 0.00, -0.00, -1.00, 0.0, 52.0)"><path d="M 1.9 50.8 L 149.0 50.8 L 149.0 1.5 L 1.9 1.5 Z M 1.9 50.8 " fill="#000000"></path><g><clipPath id="clip-543"><path d="M -1.8 -2.2 L 153.7 -2.2 L 153.7 54.5 L -1.8 54.5 Z M -1.8 -2.2 "></path></clipPath><g clip-path="url(#clip-543)"><text xml:space="preserve" font-family="Menlo-Regular" font-size="32.0" fill="#FEFFFF" transform="matrix(1.00, 0.00, -0.00, -1.00, 8.0, 15.0)">.</text><text xml:space="preserve" font-family="Menlo-Regular" font-size="32.0" fill="#FEFFFF" transform="matrix(1.00, 0.00, -0.00, -1.00, 27.3, 15.0)">/</text><text xml:space="preserve" font-family="Menlo-Regular" font-size="32.0" fill="#FEFFFF" transform="matrix(1.00, 0.00, -0.00, -1.00, 46.5, 15.0)">b</text><text xml:space="preserve" font-family="Menlo-Regular" font-size="32.0" fill="#FEFFFF" transform="matrix(1.00, 0.00, -0.00, -1.00, 65.8, 15.0)">u</text><text xml:space="preserve" font-family="Menlo-Regular" font-size="32.0" fill="#FEFFFF" transform="matrix(1.00, 0.00, -0.00, -1.00, 85.1, 15.0)">i</text><text xml:space="preserve" font-family="Menlo-Regular" font-size="32.0" fill="#FEFFFF" transform="matrix(1.00, 0.00, -0.00, -1.00, 104.3, 15.0)">l</text><text xml:space="preserve" font-family="Menlo-Regular" font-size="32.0" fill="#FEFFFF" transform="matrix(1.00, 0.00, -0.00, -1.00, 123.6, 15.0)">d</text></g></g></g></svg>